<?xml version="1.0" encoding="UTF-8"?>
<!DOCTYPE svg PUBLIC "-//W3C//DTD SVG 1.1//EN" "http://www.w3.org/Graphics/SVG/1.1/DTD/svg11.dtd">
<svg width="160mm" height="90mm" viewBox="0 0 16000 9000" version="1.1" xmlns="http://www.w3.org/2000/svg" xmlns:xlink="http://www.w3.org/1999/xlink" stroke-width="28.222" stroke-linejoin="round" xml:space="preserve">
 <path fill="rgb(255,255,255)" stroke="none" d="M 7992,8992 L -6,8992 -6,-6 15990,-6 15990,8992 7992,8992 Z "/>
 <path fill="none" stroke="rgb(179,179,179)" stroke-linejoin="round" d="M 7650,7210 L 2138,7210 2138,1469 13161,1469 13161,7210 7650,7210 Z "/>
 <path fill="none" stroke="rgb(179,179,179)" stroke-linejoin="round" d="M 13161,7209 L 2138,7209 "/>
 <path fill="none" stroke="rgb(179,179,179)" stroke-linejoin="round" d="M 13161,6571 L 2138,6571 "/>
 <path fill="none" stroke="rgb(179,179,179)" stroke-linejoin="round" d="M 13161,5933 L 2138,5933 "/>
 <path fill="none" stroke="rgb(179,179,179)" stroke-linejoin="round" d="M 13161,5295 L 2138,5295 "/>
 <path fill="none" stroke="rgb(179,179,179)" stroke-linejoin="round" d="M 13161,4657 L 2138,4657 "/>
 <path fill="none" stroke="rgb(179,179,179)" stroke-linejoin="round" d="M 13161,4020 L 2138,4020 "/>
 <path fill="none" stroke="rgb(179,179,179)" stroke-linejoin="round" d="M 13161,3382 L 2138,3382 "/>
 <path fill="none" stroke="rgb(179,179,179)" stroke-linejoin="round" d="M 13161,2744 L 2138,2744 "/>
 <path fill="none" stroke="rgb(179,179,179)" stroke-linejoin="round" d="M 13161,2106 L 2138,2106 "/>
 <path fill="none" stroke="rgb(179,179,179)" stroke-linejoin="round" d="M 13161,1468 L 2138,1468 "/>
 <path fill="none" stroke="rgb(179,179,179)" stroke-linejoin="round" d="M 2138,7359 L 2138,7209 "/>
 <path fill="none" stroke="rgb(179,179,179)" stroke-linejoin="round" d="M 2138,7359 L 2138,7209 "/>
 <path fill="none" stroke="rgb(179,179,179)" stroke-linejoin="round" d="M 4342,7359 L 4342,7209 "/>
 <path fill="none" stroke="rgb(179,179,179)" stroke-linejoin="round" d="M 4342,7359 L 4342,7209 "/>
 <path fill="none" stroke="rgb(179,179,179)" stroke-linejoin="round" d="M 6547,7359 L 6547,7209 "/>
 <path fill="none" stroke="rgb(179,179,179)" stroke-linejoin="round" d="M 6547,7359 L 6547,7209 "/>
 <path fill="none" stroke="rgb(179,179,179)" stroke-linejoin="round" d="M 8751,7359 L 8751,7209 "/>
 <path fill="none" stroke="rgb(179,179,179)" stroke-linejoin="round" d="M 8751,7359 L 8751,7209 "/>
 <path fill="none" stroke="rgb(179,179,179)" stroke-linejoin="round" d="M 10956,7359 L 10956,7209 "/>
 <path fill="none" stroke="rgb(179,179,179)" stroke-linejoin="round" d="M 10956,7359 L 10956,7209 "/>
 <path fill="none" stroke="rgb(179,179,179)" stroke-linejoin="round" d="M 13161,7359 L 13161,7209 "/>
 <path fill="none" stroke="rgb(179,179,179)" stroke-linejoin="round" d="M 13161,7359 L 13161,7209 "/>
 <path fill="none" stroke="rgb(179,179,179)" stroke-linejoin="round" d="M 2138,7209 L 13161,7209 "/>
 <path fill="none" stroke="rgb(179,179,179)" stroke-linejoin="round" d="M 1988,7209 L 2138,7209 "/>
 <path fill="none" stroke="rgb(179,179,179)" stroke-linejoin="round" d="M 1988,7209 L 2138,7209 "/>
 <path fill="none" stroke="rgb(179,179,179)" stroke-linejoin="round" d="M 1988,6571 L 2138,6571 "/>
 <path fill="none" stroke="rgb(179,179,179)" stroke-linejoin="round" d="M 1988,6571 L 2138,6571 "/>
 <path fill="none" stroke="rgb(179,179,179)" stroke-linejoin="round" d="M 1988,5933 L 2138,5933 "/>
 <path fill="none" stroke="rgb(179,179,179)" stroke-linejoin="round" d="M 1988,5933 L 2138,5933 "/>
 <path fill="none" stroke="rgb(179,179,179)" stroke-linejoin="round" d="M 1988,5295 L 2138,5295 "/>
 <path fill="none" stroke="rgb(179,179,179)" stroke-linejoin="round" d="M 1988,5295 L 2138,5295 "/>
 <path fill="none" stroke="rgb(179,179,179)" stroke-linejoin="round" d="M 1988,4657 L 2138,4657 "/>
 <path fill="none" stroke="rgb(179,179,179)" stroke-linejoin="round" d="M 1988,4657 L 2138,4657 "/>
 <path fill="none" stroke="rgb(179,179,179)" stroke-linejoin="round" d="M 1988,4020 L 2138,4020 "/>
 <path fill="none" stroke="rgb(179,179,179)" stroke-linejoin="round" d="M 1988,4020 L 2138,4020 "/>
 <path fill="none" stroke="rgb(179,179,179)" stroke-linejoin="round" d="M 1988,3382 L 2138,3382 "/>
 <path fill="none" stroke="rgb(179,179,179)" stroke-linejoin="round" d="M 1988,3382 L 2138,3382 "/>
 <path fill="none" stroke="rgb(179,179,179)" stroke-linejoin="round" d="M 1988,2744 L 2138,2744 "/>
 <path fill="none" stroke="rgb(179,179,179)" stroke-linejoin="round" d="M 1988,2744 L 2138,2744 "/>
 <path fill="none" stroke="rgb(179,179,179)" stroke-linejoin="round" d="M 1988,2106 L 2138,2106 "/>
 <path fill="none" stroke="rgb(179,179,179)" stroke-linejoin="round" d="M 1988,2106 L 2138,2106 "/>
 <path fill="none" stroke="rgb(179,179,179)" stroke-linejoin="round" d="M 1988,1468 L 2138,1468 "/>
 <path fill="none" stroke="rgb(179,179,179)" stroke-linejoin="round" d="M 1988,1468 L 2138,1468 "/>
 <path fill="none" stroke="rgb(179,179,179)" stroke-linejoin="round" d="M 2138,7209 L 2138,1468 "/>
 <path fill="none" stroke="rgb(51,51,255)" stroke-width="80" stroke-linejoin="round" d="M 10405,5320 L 10280,5436 10162,5545 10049,5648 9941,5745 9840,5835 9744,5918 9655,5995 9570,6066 9492,6130 9419,6188 9352,6239 9291,6284 9236,6322 9186,6354 9142,6379 9104,6398 9071,6410 9044,6416 9023,6416 9008,6408 9004,6404 9000,6398 8998,6392 8996,6384 8995,6376 8995,6367 8996,6356 8997,6345 9000,6332 9003,6319 9006,6306 9007,6294 9005,6283 9002,6273 8996,6265 8988,6258 8978,6252 8966,6248 8951,6245 8935,6243 8922,6242 8908,6242 8892,6242 8876,6244 8859,6245 8840,6248 8821,6251 8800,6255 8779,6259 8756,6264 8733,6269 8708,6275 8684,6280 8658,6286 8632,6292 8606,6298 8579,6304 8551,6311 8523,6317 8494,6324 8448,6335 8402,6346 8354,6357 8304,6369 8253,6381 8201,6394 8147,6407 8092,6420 8035,6434 7978,6448 7921,6462 7867,6474 7816,6484 7767,6493 7722,6500 7680,6506 7640,6511 7603,6513 7570,6515 7539,6514 7525,6514 7512,6513 7499,6511 7488,6509 7476,6507 7466,6505 7456,6502 7447,6498 7439,6495 7432,6491 7424,6487 7415,6483 7406,6480 7396,6477 7385,6474 7374,6472 7361,6471 7348,6470 7334,6469 7319,6468 7255,6471 7181,6478 7095,6492 6997,6511 6888,6536 6767,6566 6635,6603 6492,6645 6337,6692 6171,6745 6003,6800 5843,6850 5691,6897 5548,6940 5412,6979 5285,7015 5166,7046 5055,7074 4952,7098 4857,7118 4833,7123 4810,7128 4787,7132 4765,7136 4744,7140 4723,7143 4702,7146 4682,7149 4663,7152 4645,7154 4626,7156 4609,7158 4592,7159 4576,7161 4560,7162 4545,7163 4530,7163 4516,7163 4502,7163 4489,7163 "/>
 <path fill="rgb(51,51,255)" stroke="none" d="M 10280,5195 L 10405,5445 10530,5195 10280,5195 Z "/>
 <path fill="none" stroke="rgb(51,51,255)" stroke-linejoin="round" d="M 10280,5195 L 10405,5445 10530,5195 10280,5195 Z "/>
 <path fill="rgb(51,51,255)" stroke="none" d="M 8883,6283 L 9008,6533 9133,6283 8883,6283 Z "/>
 <path fill="none" stroke="rgb(51,51,255)" stroke-linejoin="round" d="M 8883,6283 L 9008,6533 9133,6283 8883,6283 Z "/>
 <path fill="rgb(51,51,255)" stroke="none" d="M 8810,6118 L 8935,6368 9060,6118 8810,6118 Z "/>
 <path fill="none" stroke="rgb(51,51,255)" stroke-linejoin="round" d="M 8810,6118 L 8935,6368 9060,6118 8810,6118 Z "/>
 <path fill="rgb(51,51,255)" stroke="none" d="M 8369,6199 L 8494,6449 8619,6199 8369,6199 Z "/>
 <path fill="none" stroke="rgb(51,51,255)" stroke-linejoin="round" d="M 8369,6199 L 8494,6449 8619,6199 8369,6199 Z "/>
 <path fill="rgb(51,51,255)" stroke="none" d="M 7414,6389 L 7539,6639 7664,6389 7414,6389 Z "/>
 <path fill="none" stroke="rgb(51,51,255)" stroke-linejoin="round" d="M 7414,6389 L 7539,6639 7664,6389 7414,6389 Z "/>
 <path fill="rgb(51,51,255)" stroke="none" d="M 7194,6343 L 7319,6593 7444,6343 7194,6343 Z "/>
 <path fill="none" stroke="rgb(51,51,255)" stroke-linejoin="round" d="M 7194,6343 L 7319,6593 7444,6343 7194,6343 Z "/>
 <path fill="rgb(51,51,255)" stroke="none" d="M 4732,6993 L 4857,7243 4982,6993 4732,6993 Z "/>
 <path fill="none" stroke="rgb(51,51,255)" stroke-linejoin="round" d="M 4732,6993 L 4857,7243 4982,6993 4732,6993 Z "/>
 <path fill="rgb(51,51,255)" stroke="none" d="M 4364,7038 L 4489,7288 4614,7038 4364,7038 Z "/>
 <path fill="none" stroke="rgb(51,51,255)" stroke-linejoin="round" d="M 4364,7038 L 4489,7288 4614,7038 4364,7038 Z "/>
 <path fill="none" stroke="rgb(255,77,77)" stroke-width="80" stroke-linejoin="round" d="M 12315,2106 L 12256,2104 12197,2105 12140,2108 12084,2112 12028,2119 11974,2128 11921,2138 11869,2150 11818,2165 11767,2181 11718,2199 11670,2219 11623,2241 11577,2265 11532,2291 11488,2319 11446,2349 11404,2381 11363,2414 11323,2450 11189,2594 11068,2762 10961,2955 10867,3174 10786,3417 10718,3684 10664,3977 10623,4295 10595,4636 10581,5004 10563,5365 10525,5687 10466,5971 10387,6217 10288,6425 10168,6594 10028,6725 9868,6818 9687,6873 9486,6890 9425,6887 9362,6882 9297,6873 9231,6861 9163,6847 9094,6829 9023,6808 8950,6784 8875,6756 8799,6726 8723,6695 8648,6667 8574,6641 8501,6618 8430,6597 8359,6579 8290,6563 8222,6549 8155,6538 8089,6530 8019,6523 7951,6520 7883,6519 7817,6522 7752,6527 7689,6535 7627,6547 7566,6561 7507,6578 7449,6598 7393,6621 7338,6648 7285,6677 7233,6709 7182,6744 7133,6782 7086,6823 7039,6867 6995,6914 6951,6964 "/>
 <path fill="rgb(255,77,77)" stroke="none" d="M 12190,2106 L 12315,2231 12440,2106 12315,1981 12190,2106 Z "/>
 <path fill="none" stroke="rgb(255,77,77)" stroke-linejoin="round" d="M 12190,2106 L 12315,2231 12440,2106 12315,1981 12190,2106 Z "/>
 <path fill="rgb(255,77,77)" stroke="none" d="M 11198,2450 L 11323,2575 11448,2450 11323,2325 11198,2450 Z "/>
 <path fill="none" stroke="rgb(255,77,77)" stroke-linejoin="round" d="M 11198,2450 L 11323,2575 11448,2450 11323,2325 11198,2450 Z "/>
 <path fill="rgb(255,77,77)" stroke="none" d="M 9361,6890 L 9486,7015 9611,6890 9486,6765 9361,6890 Z "/>
 <path fill="none" stroke="rgb(255,77,77)" stroke-linejoin="round" d="M 9361,6890 L 9486,7015 9611,6890 9486,6765 9361,6890 Z "/>
 <path fill="rgb(255,77,77)" stroke="none" d="M 7965,6530 L 8089,6655 8214,6530 8089,6405 7965,6530 Z "/>
 <path fill="none" stroke="rgb(255,77,77)" stroke-linejoin="round" d="M 7965,6530 L 8089,6655 8214,6530 8089,6405 7965,6530 Z "/>
 <path fill="rgb(255,77,77)" stroke="none" d="M 6826,6964 L 6951,7089 7076,6964 6951,6839 6826,6964 Z "/>
 <path fill="none" stroke="rgb(255,77,77)" stroke-linejoin="round" d="M 6826,6964 L 6951,7089 7076,6964 6951,6839 6826,6964 Z "/>
 <path fill="rgb(0,0,0)" stroke="none" d="M 12306,7084 L 12306,7192 12200,7131 12190,7148 12296,7209 12190,7269 12200,7286 12306,7225 12306,7334 12325,7334 12325,7225 12431,7286 12440,7269 12335,7209 12440,7148 12431,7131 12325,7192 12325,7084 12306,7084 Z "/>
 <path fill="none" stroke="rgb(0,0,0)" stroke-linejoin="round" d="M 12306,7084 L 12306,7192 12200,7131 12190,7148 12296,7209 12190,7269 12200,7286 12306,7225 12306,7334 12325,7334 12325,7225 12431,7286 12440,7269 12335,7209 12440,7148 12431,7131 12325,7192 12325,7084 12306,7084 Z "/>
 <path fill="rgb(0,0,0)" stroke="none" d="M 11313,7084 L 11313,7192 11208,7131 11198,7148 11304,7209 11198,7269 11208,7286 11313,7225 11313,7334 11333,7334 11333,7225 11438,7286 11448,7269 11343,7209 11448,7148 11438,7131 11333,7192 11333,7084 11313,7084 Z "/>
 <path fill="none" stroke="rgb(0,0,0)" stroke-linejoin="round" d="M 11313,7084 L 11313,7192 11208,7131 11198,7148 11304,7209 11198,7269 11208,7286 11313,7225 11313,7334 11333,7334 11333,7225 11438,7286 11448,7269 11343,7209 11448,7148 11438,7131 11333,7192 11333,7084 11313,7084 Z "/>
 <path fill="rgb(0,0,0)" stroke="none" d="M 9476,7084 L 9476,7192 9371,7131 9361,7148 9466,7209 9361,7269 9371,7286 9476,7225 9476,7334 9496,7334 9496,7225 9601,7286 9611,7269 9505,7209 9611,7148 9601,7131 9496,7192 9496,7084 9476,7084 Z "/>
 <path fill="none" stroke="rgb(0,0,0)" stroke-linejoin="round" d="M 9476,7084 L 9476,7192 9371,7131 9361,7148 9466,7209 9361,7269 9371,7286 9476,7225 9476,7334 9496,7334 9496,7225 9601,7286 9611,7269 9505,7209 9611,7148 9601,7131 9496,7192 9496,7084 9476,7084 Z "/>
 <path fill="rgb(0,0,0)" stroke="none" d="M 8080,7084 L 8080,7192 7975,7131 7965,7148 8070,7209 7965,7269 7975,7286 8080,7225 8080,7334 8099,7334 8099,7225 8205,7286 8214,7269 8109,7209 8214,7148 8205,7131 8099,7192 8099,7084 8080,7084 Z "/>
 <path fill="none" stroke="rgb(0,0,0)" stroke-linejoin="round" d="M 8080,7084 L 8080,7192 7975,7131 7965,7148 8070,7209 7965,7269 7975,7286 8080,7225 8080,7334 8099,7334 8099,7225 8205,7286 8214,7269 8109,7209 8214,7148 8205,7131 8099,7192 8099,7084 8080,7084 Z "/>
 <path fill="rgb(0,0,0)" stroke="none" d="M 6942,7084 L 6942,7192 6836,7131 6826,7148 6932,7209 6826,7269 6836,7286 6942,7225 6942,7334 6961,7334 6961,7225 7067,7286 7076,7269 6971,7209 7076,7148 7067,7131 6961,7192 6961,7084 6942,7084 Z "/>
 <path fill="none" stroke="rgb(0,0,0)" stroke-linejoin="round" d="M 6942,7084 L 6942,7192 6836,7131 6826,7148 6932,7209 6826,7269 6836,7286 6942,7225 6942,7334 6961,7334 6961,7225 7067,7286 7076,7269 6971,7209 7076,7148 7067,7131 6961,7192 6961,7084 6942,7084 Z "/>
 <path fill="rgb(0,0,0)" stroke="none" d="M 10395,7084 L 10395,7192 10289,7131 10280,7148 10385,7209 10280,7269 10289,7286 10395,7225 10395,7334 10414,7334 10414,7225 10520,7286 10530,7269 10424,7209 10530,7148 10520,7131 10414,7192 10414,7084 10395,7084 Z "/>
 <path fill="none" stroke="rgb(0,0,0)" stroke-linejoin="round" d="M 10395,7084 L 10395,7192 10289,7131 10280,7148 10385,7209 10280,7269 10289,7286 10395,7225 10395,7334 10414,7334 10414,7225 10520,7286 10530,7269 10424,7209 10530,7148 10520,7131 10414,7192 10414,7084 10395,7084 Z "/>
 <path fill="rgb(0,0,0)" stroke="none" d="M 8998,7084 L 8998,7192 8893,7131 8883,7148 8989,7209 8883,7269 8893,7286 8998,7225 8998,7334 9018,7334 9018,7225 9123,7286 9133,7269 9028,7209 9133,7148 9123,7131 9018,7192 9018,7084 8998,7084 Z "/>
 <path fill="none" stroke="rgb(0,0,0)" stroke-linejoin="round" d="M 8998,7084 L 8998,7192 8893,7131 8883,7148 8989,7209 8883,7269 8893,7286 8998,7225 8998,7334 9018,7334 9018,7225 9123,7286 9133,7269 9028,7209 9133,7148 9123,7131 9018,7192 9018,7084 8998,7084 Z "/>
 <path fill="rgb(0,0,0)" stroke="none" d="M 8925,7084 L 8925,7192 8819,7131 8810,7148 8915,7209 8810,7269 8819,7286 8925,7225 8925,7334 8944,7334 8944,7225 9050,7286 9060,7269 8954,7209 9060,7148 9050,7131 8944,7192 8944,7084 8925,7084 Z "/>
 <path fill="none" stroke="rgb(0,0,0)" stroke-linejoin="round" d="M 8925,7084 L 8925,7192 8819,7131 8810,7148 8915,7209 8810,7269 8819,7286 8925,7225 8925,7334 8944,7334 8944,7225 9050,7286 9060,7269 8954,7209 9060,7148 9050,7131 8944,7192 8944,7084 8925,7084 Z "/>
 <path fill="rgb(0,0,0)" stroke="none" d="M 8484,7084 L 8484,7192 8378,7131 8369,7148 8474,7209 8369,7269 8378,7286 8484,7225 8484,7334 8503,7334 8503,7225 8609,7286 8619,7269 8513,7209 8619,7148 8609,7131 8503,7192 8503,7084 8484,7084 Z "/>
 <path fill="none" stroke="rgb(0,0,0)" stroke-linejoin="round" d="M 8484,7084 L 8484,7192 8378,7131 8369,7148 8474,7209 8369,7269 8378,7286 8484,7225 8484,7334 8503,7334 8503,7225 8609,7286 8619,7269 8513,7209 8619,7148 8609,7131 8503,7192 8503,7084 8484,7084 Z "/>
 <path fill="rgb(0,0,0)" stroke="none" d="M 7529,7084 L 7529,7192 7424,7131 7414,7148 7520,7209 7414,7269 7424,7286 7529,7225 7529,7334 7549,7334 7549,7225 7654,7286 7664,7269 7559,7209 7664,7148 7654,7131 7549,7192 7549,7084 7529,7084 Z "/>
 <path fill="none" stroke="rgb(0,0,0)" stroke-linejoin="round" d="M 7529,7084 L 7529,7192 7424,7131 7414,7148 7520,7209 7414,7269 7424,7286 7529,7225 7529,7334 7549,7334 7549,7225 7654,7286 7664,7269 7559,7209 7664,7148 7654,7131 7549,7192 7549,7084 7529,7084 Z "/>
 <path fill="rgb(0,0,0)" stroke="none" d="M 7309,7084 L 7309,7192 7204,7131 7194,7148 7299,7209 7194,7269 7204,7286 7309,7225 7309,7334 7329,7334 7329,7225 7434,7286 7444,7269 7338,7209 7444,7148 7434,7131 7329,7192 7329,7084 7309,7084 Z "/>
 <path fill="none" stroke="rgb(0,0,0)" stroke-linejoin="round" d="M 7309,7084 L 7309,7192 7204,7131 7194,7148 7299,7209 7194,7269 7204,7286 7309,7225 7309,7334 7329,7334 7329,7225 7434,7286 7444,7269 7338,7209 7444,7148 7434,7131 7329,7192 7329,7084 7309,7084 Z "/>
 <path fill="rgb(0,0,0)" stroke="none" d="M 4847,7084 L 4847,7192 4742,7131 4732,7148 4837,7209 4732,7269 4742,7286 4847,7225 4847,7334 4867,7334 4867,7225 4972,7286 4982,7269 4876,7209 4982,7148 4972,7131 4867,7192 4867,7084 4847,7084 Z "/>
 <path fill="none" stroke="rgb(0,0,0)" stroke-linejoin="round" d="M 4847,7084 L 4847,7192 4742,7131 4732,7148 4837,7209 4732,7269 4742,7286 4847,7225 4847,7334 4867,7334 4867,7225 4972,7286 4982,7269 4876,7209 4982,7148 4972,7131 4867,7192 4867,7084 4847,7084 Z "/>
 <path fill="rgb(0,0,0)" stroke="none" d="M 4480,7084 L 4480,7192 4374,7131 4364,7148 4470,7209 4364,7269 4374,7286 4480,7225 4480,7334 4499,7334 4499,7225 4605,7286 4614,7269 4509,7209 4614,7148 4605,7131 4499,7192 4499,7084 4480,7084 Z "/>
 <path fill="none" stroke="rgb(0,0,0)" stroke-linejoin="round" d="M 4480,7084 L 4480,7192 4374,7131 4364,7148 4470,7209 4364,7269 4374,7286 4480,7225 4480,7334 4499,7334 4499,7225 4605,7286 4614,7269 4509,7209 4614,7148 4605,7131 4499,7192 4499,7084 4480,7084 Z "/>
 <text class="SVGTextShape"><tspan class="TextParagraph"><tspan class="TextPosition" x="1750" y="7777"><tspan font-family="Liberation Sans, sans-serif" font-size="353px" font-weight="400" lengthAdjust="spacingAndGlyphs" textLength="776" fill="rgb(0,0,0)" stroke="none" style="white-space: pre">2000</tspan></tspan></tspan></text>
 <text class="SVGTextShape"><tspan class="TextParagraph"><tspan class="TextPosition" x="3954" y="7777"><tspan font-family="Liberation Sans, sans-serif" font-size="353px" font-weight="400" lengthAdjust="spacingAndGlyphs" textLength="776" fill="rgb(0,0,0)" stroke="none" style="white-space: pre">2005</tspan></tspan></tspan></text>
 <text class="SVGTextShape"><tspan class="TextParagraph"><tspan class="TextPosition" x="6159" y="7777"><tspan font-family="Liberation Sans, sans-serif" font-size="353px" font-weight="400" lengthAdjust="spacingAndGlyphs" textLength="776" fill="rgb(0,0,0)" stroke="none" style="white-space: pre">2010</tspan></tspan></tspan></text>
 <text class="SVGTextShape"><tspan class="TextParagraph"><tspan class="TextPosition" x="8363" y="7777"><tspan font-family="Liberation Sans, sans-serif" font-size="353px" font-weight="400" lengthAdjust="spacingAndGlyphs" textLength="776" fill="rgb(0,0,0)" stroke="none" style="white-space: pre">2015</tspan></tspan></tspan></text>
 <text class="SVGTextShape"><tspan class="TextParagraph"><tspan class="TextPosition" x="10568" y="7777"><tspan font-family="Liberation Sans, sans-serif" font-size="353px" font-weight="400" lengthAdjust="spacingAndGlyphs" textLength="776" fill="rgb(0,0,0)" stroke="none" style="white-space: pre">2020</tspan></tspan></tspan></text>
 <text class="SVGTextShape"><tspan class="TextParagraph"><tspan class="TextPosition" x="12773" y="7777"><tspan font-family="Liberation Sans, sans-serif" font-size="353px" font-weight="400" lengthAdjust="spacingAndGlyphs" textLength="776" fill="rgb(0,0,0)" stroke="none" style="white-space: pre">2025</tspan></tspan></tspan></text>
 <text class="SVGTextShape"><tspan class="TextParagraph"><tspan class="TextPosition" x="1694" y="7332"><tspan font-family="Liberation Sans, sans-serif" font-size="353px" font-weight="400" lengthAdjust="spacingAndGlyphs" textLength="194" fill="rgb(0,0,0)" stroke="none" style="white-space: pre">0</tspan></tspan></tspan></text>
 <text class="SVGTextShape"><tspan class="TextParagraph"><tspan class="TextPosition" x="1500" y="6694"><tspan font-family="Liberation Sans, sans-serif" font-size="353px" font-weight="400" lengthAdjust="spacingAndGlyphs" textLength="388" fill="rgb(0,0,0)" stroke="none" style="white-space: pre">50</tspan></tspan></tspan></text>
 <text class="SVGTextShape"><tspan class="TextParagraph"><tspan class="TextPosition" x="1305" y="6056"><tspan font-family="Liberation Sans, sans-serif" font-size="353px" font-weight="400" lengthAdjust="spacingAndGlyphs" textLength="582" fill="rgb(0,0,0)" stroke="none" style="white-space: pre">100</tspan></tspan></tspan></text>
 <text class="SVGTextShape"><tspan class="TextParagraph"><tspan class="TextPosition" x="1305" y="5418"><tspan font-family="Liberation Sans, sans-serif" font-size="353px" font-weight="400" lengthAdjust="spacingAndGlyphs" textLength="582" fill="rgb(0,0,0)" stroke="none" style="white-space: pre">150</tspan></tspan></tspan></text>
 <text class="SVGTextShape"><tspan class="TextParagraph"><tspan class="TextPosition" x="1305" y="4780"><tspan font-family="Liberation Sans, sans-serif" font-size="353px" font-weight="400" lengthAdjust="spacingAndGlyphs" textLength="582" fill="rgb(0,0,0)" stroke="none" style="white-space: pre">200</tspan></tspan></tspan></text>
 <text class="SVGTextShape"><tspan class="TextParagraph"><tspan class="TextPosition" x="1305" y="4143"><tspan font-family="Liberation Sans, sans-serif" font-size="353px" font-weight="400" lengthAdjust="spacingAndGlyphs" textLength="582" fill="rgb(0,0,0)" stroke="none" style="white-space: pre">250</tspan></tspan></tspan></text>
 <text class="SVGTextShape"><tspan class="TextParagraph"><tspan class="TextPosition" x="1305" y="3505"><tspan font-family="Liberation Sans, sans-serif" font-size="353px" font-weight="400" lengthAdjust="spacingAndGlyphs" textLength="582" fill="rgb(0,0,0)" stroke="none" style="white-space: pre">300</tspan></tspan></tspan></text>
 <text class="SVGTextShape"><tspan class="TextParagraph"><tspan class="TextPosition" x="1305" y="2867"><tspan font-family="Liberation Sans, sans-serif" font-size="353px" font-weight="400" lengthAdjust="spacingAndGlyphs" textLength="582" fill="rgb(0,0,0)" stroke="none" style="white-space: pre">350</tspan></tspan></tspan></text>
 <text class="SVGTextShape"><tspan class="TextParagraph"><tspan class="TextPosition" x="1305" y="2229"><tspan font-family="Liberation Sans, sans-serif" font-size="353px" font-weight="400" lengthAdjust="spacingAndGlyphs" textLength="582" fill="rgb(0,0,0)" stroke="none" style="white-space: pre">400</tspan></tspan></tspan></text>
 <text class="SVGTextShape"><tspan class="TextParagraph"><tspan class="TextPosition" x="1305" y="1591"><tspan font-family="Liberation Sans, sans-serif" font-size="353px" font-weight="400" lengthAdjust="spacingAndGlyphs" textLength="582" fill="rgb(0,0,0)" stroke="none" style="white-space: pre">450</tspan></tspan></tspan></text>
 <text class="SVGTextShape" transform="rotate(-90 12438 6982)"><tspan class="TextParagraph"><tspan class="TextPosition" x="12438" y="6982"><tspan font-family="Liberation Sans, sans-serif" font-size="353px" font-weight="400" lengthAdjust="spacingAndGlyphs" textLength="2543" fill="rgb(0,0,0)" stroke="none" style="white-space: pre">Ryzen 7950X3D</tspan></tspan></tspan></text>
 <text class="SVGTextShape" transform="rotate(-90 11446 6982)"><tspan class="TextParagraph"><tspan class="TextPosition" x="11446" y="6982"><tspan font-family="Liberation Sans, sans-serif" font-size="353px" font-weight="400" lengthAdjust="spacingAndGlyphs" textLength="2388" fill="rgb(0,0,0)" stroke="none" style="white-space: pre">Ryzen 9 5950X</tspan></tspan></tspan></text>
 <text class="SVGTextShape" transform="rotate(-90 9609 6982)"><tspan class="TextParagraph"><tspan class="TextPosition" x="9609" y="6982"><tspan font-family="Liberation Sans, sans-serif" font-size="353px" font-weight="400" lengthAdjust="spacingAndGlyphs" textLength="1514" fill="rgb(0,0,0)" stroke="none" style="white-space: pre">A12-9800</tspan></tspan></tspan></text>
 <text class="SVGTextShape" transform="rotate(-90 8212 6982)"><tspan class="TextParagraph"><tspan class="TextPosition" x="8212" y="6982"><tspan font-family="Liberation Sans, sans-serif" font-size="353px" font-weight="400" lengthAdjust="spacingAndGlyphs" textLength="1339" fill="rgb(0,0,0)" stroke="none" style="white-space: pre">FX-9590</tspan></tspan></tspan></text>
 <text class="SVGTextShape" transform="rotate(-90 7074 6982)"><tspan class="TextParagraph"><tspan class="TextPosition" x="7074" y="6982"><tspan font-family="Liberation Sans, sans-serif" font-size="353px" font-weight="400" lengthAdjust="spacingAndGlyphs" textLength="3203" fill="rgb(0,0,0)" stroke="none" style="white-space: pre">Phenom II X6 1100T</tspan></tspan></tspan></text>
 <text class="SVGTextShape" transform="rotate(-90 10528 6982)"><tspan class="TextParagraph"><tspan class="TextPosition" x="10528" y="6982"><tspan font-family="Liberation Sans, sans-serif" font-size="353px" font-weight="400" lengthAdjust="spacingAndGlyphs" textLength="1398" fill="rgb(0,0,0)" stroke="none" style="white-space: pre">i9-9900K</tspan></tspan></tspan></text>
 <text class="SVGTextShape" transform="rotate(-90 9131 6982)"><tspan class="TextParagraph"><tspan class="TextPosition" x="9131" y="6982"><tspan font-family="Liberation Sans, sans-serif" font-size="353px" font-weight="400" lengthAdjust="spacingAndGlyphs" textLength="1398" fill="rgb(0,0,0)" stroke="none" style="white-space: pre">i7-6700K</tspan></tspan></tspan></text>
 <text class="SVGTextShape" transform="rotate(-90 9058 6982)"><tspan class="TextParagraph"><tspan class="TextPosition" x="9058" y="6982"><tspan font-family="Liberation Sans, sans-serif" font-size="353px" font-weight="400" lengthAdjust="spacingAndGlyphs" textLength="1417" fill="rgb(0,0,0)" stroke="none" style="white-space: pre">i7-5775C</tspan></tspan></tspan></text>
 <text class="SVGTextShape" transform="rotate(-90 8617 6982)"><tspan class="TextParagraph"><tspan class="TextPosition" x="8617" y="6982"><tspan font-family="Liberation Sans, sans-serif" font-size="353px" font-weight="400" lengthAdjust="spacingAndGlyphs" textLength="1398" fill="rgb(0,0,0)" stroke="none" style="white-space: pre">i7-4790K</tspan></tspan></tspan></text>
 <text class="SVGTextShape" transform="rotate(-90 7662 6982)"><tspan class="TextParagraph"><tspan class="TextPosition" x="7662" y="6982"><tspan font-family="Liberation Sans, sans-serif" font-size="353px" font-weight="400" lengthAdjust="spacingAndGlyphs" textLength="1398" fill="rgb(0,0,0)" stroke="none" style="white-space: pre">i7-3770K</tspan></tspan></tspan></text>
 <text class="SVGTextShape" transform="rotate(-90 7442 6982)"><tspan class="TextParagraph"><tspan class="TextPosition" x="7442" y="6982"><tspan font-family="Liberation Sans, sans-serif" font-size="353px" font-weight="400" lengthAdjust="spacingAndGlyphs" textLength="1398" fill="rgb(0,0,0)" stroke="none" style="white-space: pre">i7-2700K</tspan></tspan></tspan></text>
 <text class="SVGTextShape" transform="rotate(-90 4980 6982)"><tspan class="TextParagraph"><tspan class="TextPosition" x="4980" y="6982"><tspan font-family="Liberation Sans, sans-serif" font-size="353px" font-weight="400" lengthAdjust="spacingAndGlyphs" textLength="3105" fill="rgb(0,0,0)" stroke="none" style="white-space: pre">Pentium D 3.73GHz</tspan></tspan></tspan></text>
 <text class="SVGTextShape" transform="rotate(-90 4612 6982)"><tspan class="TextParagraph"><tspan class="TextPosition" x="4612" y="6982"><tspan font-family="Liberation Sans, sans-serif" font-size="353px" font-weight="400" lengthAdjust="spacingAndGlyphs" textLength="3416" fill="rgb(0,0,0)" stroke="none" style="white-space: pre">Pentium 4 HT 3.8GHz</tspan></tspan></tspan></text>
 <text class="SVGTextShape"><tspan class="TextParagraph"><tspan class="TextPosition" x="4553" y="860"><tspan font-family="Liberation Sans, sans-serif" font-size="459px" font-weight="400" lengthAdjust="spacingAndGlyphs" textLength="6879" fill="rgb(0,0,0)" stroke="none" style="white-space: pre">CPU Performance (multithreaded)</tspan></tspan></tspan></text>
 <path fill="none" stroke="rgb(255,77,77)" stroke-width="80" stroke-linejoin="round" d="M 13986,4246 L 14786,4246 "/>
 <path fill="rgb(255,77,77)" stroke="none" d="M 14280,4246 L 14386,4352 14491,4246 14386,4141 14280,4246 Z "/>
 <path fill="none" stroke="rgb(255,77,77)" stroke-linejoin="round" d="M 14280,4246 L 14386,4352 14491,4246 14386,4141 14280,4246 Z "/>
 <path fill="none" stroke="rgb(51,51,255)" stroke-width="80" stroke-linejoin="round" d="M 13986,4738 L 14786,4738 "/>
 <path fill="rgb(51,51,255)" stroke="none" d="M 14280,4633 L 14386,4844 14491,4633 14280,4633 Z "/>
 <path fill="none" stroke="rgb(51,51,255)" stroke-linejoin="round" d="M 14280,4633 L 14386,4844 14491,4633 14280,4633 Z "/>
 <text class="SVGTextShape"><tspan class="TextParagraph"><tspan class="TextPosition" x="14886" y="4368"><tspan font-family="Liberation Sans, sans-serif" font-size="353px" font-weight="400" lengthAdjust="spacingAndGlyphs" textLength="776" fill="rgb(0,0,0)" stroke="none" style="white-space: pre">AMD</tspan></tspan></tspan></text>
 <text class="SVGTextShape"><tspan class="TextParagraph"><tspan class="TextPosition" x="14886" y="4860"><tspan font-family="Liberation Sans, sans-serif" font-size="353px" font-weight="400" lengthAdjust="spacingAndGlyphs" textLength="660" fill="rgb(0,0,0)" stroke="none" style="white-space: pre">Intel</tspan></tspan></tspan></text>
 <text class="SVGTextShape"><tspan class="TextParagraph"><tspan class="TextPosition" x="6079" y="8413"><tspan font-family="Liberation Sans, sans-serif" font-size="318px" font-weight="400" lengthAdjust="spacingAndGlyphs" textLength="2700" fill="rgb(0,0,0)" stroke="none" style="white-space: pre">year of introduction</tspan></tspan></tspan></text>
 <text class="SVGTextShape" transform="rotate(-90 827 5205)"><tspan class="TextParagraph"><tspan class="TextPosition" x="827" y="5205"><tspan font-family="Liberation Sans, sans-serif" font-size="318px" font-weight="400" lengthAdjust="spacingAndGlyphs" textLength="1287" fill="rgb(0,0,0)" stroke="none" style="white-space: pre">GFLOPS</tspan></tspan></tspan></text>
</svg>