<?xml version="1.0" encoding="UTF-8"?>
<!DOCTYPE svg PUBLIC "-//W3C//DTD SVG 1.1//EN" "http://www.w3.org/Graphics/SVG/1.1/DTD/svg11.dtd">
<svg width="160mm" height="90mm" viewBox="0 0 16000 9000" version="1.1" xmlns="http://www.w3.org/2000/svg" xmlns:xlink="http://www.w3.org/1999/xlink" stroke-width="28.222" stroke-linejoin="round" xml:space="preserve">
 <path fill="rgb(255,255,255)" stroke="none" d="M 7992,8992 L -6,8992 -6,-6 15990,-6 15990,8992 7992,8992 Z "/>
 <path fill="none" stroke="rgb(179,179,179)" stroke-linejoin="round" d="M 7552,7210 L 1943,7210 1943,1469 13161,1469 13161,7210 7552,7210 Z "/>
 <path fill="none" stroke="rgb(179,179,179)" stroke-linejoin="round" d="M 13161,7209 L 1943,7209 "/>
 <path fill="none" stroke="rgb(179,179,179)" stroke-linejoin="round" d="M 13161,6491 L 1943,6491 "/>
 <path fill="none" stroke="rgb(179,179,179)" stroke-linejoin="round" d="M 13161,5773 L 1943,5773 "/>
 <path fill="none" stroke="rgb(179,179,179)" stroke-linejoin="round" d="M 13161,5055 L 1943,5055 "/>
 <path fill="none" stroke="rgb(179,179,179)" stroke-linejoin="round" d="M 13161,4339 L 1943,4339 "/>
 <path fill="none" stroke="rgb(179,179,179)" stroke-linejoin="round" d="M 13161,3621 L 1943,3621 "/>
 <path fill="none" stroke="rgb(179,179,179)" stroke-linejoin="round" d="M 13161,2903 L 1943,2903 "/>
 <path fill="none" stroke="rgb(179,179,179)" stroke-linejoin="round" d="M 13161,2185 L 1943,2185 "/>
 <path fill="none" stroke="rgb(179,179,179)" stroke-linejoin="round" d="M 13161,1468 L 1943,1468 "/>
 <path fill="none" stroke="rgb(179,179,179)" stroke-linejoin="round" d="M 1943,7359 L 1943,7209 "/>
 <path fill="none" stroke="rgb(179,179,179)" stroke-linejoin="round" d="M 1943,7359 L 1943,7209 "/>
 <path fill="none" stroke="rgb(179,179,179)" stroke-linejoin="round" d="M 4186,7359 L 4186,7209 "/>
 <path fill="none" stroke="rgb(179,179,179)" stroke-linejoin="round" d="M 4186,7359 L 4186,7209 "/>
 <path fill="none" stroke="rgb(179,179,179)" stroke-linejoin="round" d="M 6430,7359 L 6430,7209 "/>
 <path fill="none" stroke="rgb(179,179,179)" stroke-linejoin="round" d="M 6430,7359 L 6430,7209 "/>
 <path fill="none" stroke="rgb(179,179,179)" stroke-linejoin="round" d="M 8673,7359 L 8673,7209 "/>
 <path fill="none" stroke="rgb(179,179,179)" stroke-linejoin="round" d="M 8673,7359 L 8673,7209 "/>
 <path fill="none" stroke="rgb(179,179,179)" stroke-linejoin="round" d="M 10917,7359 L 10917,7209 "/>
 <path fill="none" stroke="rgb(179,179,179)" stroke-linejoin="round" d="M 10917,7359 L 10917,7209 "/>
 <path fill="none" stroke="rgb(179,179,179)" stroke-linejoin="round" d="M 13161,7359 L 13161,7209 "/>
 <path fill="none" stroke="rgb(179,179,179)" stroke-linejoin="round" d="M 13161,7359 L 13161,7209 "/>
 <path fill="none" stroke="rgb(179,179,179)" stroke-linejoin="round" d="M 1943,7209 L 13161,7209 "/>
 <path fill="none" stroke="rgb(179,179,179)" stroke-linejoin="round" d="M 1793,7209 L 1943,7209 "/>
 <path fill="none" stroke="rgb(179,179,179)" stroke-linejoin="round" d="M 1793,7209 L 1943,7209 "/>
 <path fill="none" stroke="rgb(179,179,179)" stroke-linejoin="round" d="M 1793,6491 L 1943,6491 "/>
 <path fill="none" stroke="rgb(179,179,179)" stroke-linejoin="round" d="M 1793,6491 L 1943,6491 "/>
 <path fill="none" stroke="rgb(179,179,179)" stroke-linejoin="round" d="M 1793,5773 L 1943,5773 "/>
 <path fill="none" stroke="rgb(179,179,179)" stroke-linejoin="round" d="M 1793,5773 L 1943,5773 "/>
 <path fill="none" stroke="rgb(179,179,179)" stroke-linejoin="round" d="M 1793,5055 L 1943,5055 "/>
 <path fill="none" stroke="rgb(179,179,179)" stroke-linejoin="round" d="M 1793,5055 L 1943,5055 "/>
 <path fill="none" stroke="rgb(179,179,179)" stroke-linejoin="round" d="M 1793,4339 L 1943,4339 "/>
 <path fill="none" stroke="rgb(179,179,179)" stroke-linejoin="round" d="M 1793,4339 L 1943,4339 "/>
 <path fill="none" stroke="rgb(179,179,179)" stroke-linejoin="round" d="M 1793,3621 L 1943,3621 "/>
 <path fill="none" stroke="rgb(179,179,179)" stroke-linejoin="round" d="M 1793,3621 L 1943,3621 "/>
 <path fill="none" stroke="rgb(179,179,179)" stroke-linejoin="round" d="M 1793,2903 L 1943,2903 "/>
 <path fill="none" stroke="rgb(179,179,179)" stroke-linejoin="round" d="M 1793,2903 L 1943,2903 "/>
 <path fill="none" stroke="rgb(179,179,179)" stroke-linejoin="round" d="M 1793,2185 L 1943,2185 "/>
 <path fill="none" stroke="rgb(179,179,179)" stroke-linejoin="round" d="M 1793,2185 L 1943,2185 "/>
 <path fill="none" stroke="rgb(179,179,179)" stroke-linejoin="round" d="M 1793,1468 L 1943,1468 "/>
 <path fill="none" stroke="rgb(179,179,179)" stroke-linejoin="round" d="M 1793,1468 L 1943,1468 "/>
 <path fill="none" stroke="rgb(179,179,179)" stroke-linejoin="round" d="M 1943,7209 L 1943,1468 "/>
 <path fill="none" stroke="rgb(51,51,255)" stroke-width="80" stroke-linejoin="round" d="M 10356,3646 L 10239,3729 10127,3806 10020,3877 9918,3943 9821,4004 9728,4058 9640,4108 9557,4151 9479,4189 9406,4221 9337,4248 9273,4269 9214,4284 9160,4294 9110,4298 9066,4297 9026,4289 8991,4277 8960,4258 8935,4234 8921,4216 8909,4195 8899,4172 8891,4147 8885,4119 8881,4089 8879,4057 8879,4022 8881,3985 8885,3945 8889,3907 8892,3871 8893,3839 8893,3810 8891,3784 8888,3762 8883,3743 8877,3728 8869,3716 8860,3707 8849,3701 8838,3699 8824,3700 8809,3704 8793,3712 8776,3722 8757,3736 8736,3753 8714,3774 8691,3797 8666,3822 8641,3848 8615,3874 8588,3901 8561,3928 8532,3955 8503,3983 8473,4011 8443,4040 8411,4069 8365,4111 8318,4154 8268,4198 8218,4243 8165,4289 8112,4335 8056,4382 7999,4431 7942,4480 7881,4529 7822,4576 7766,4618 7714,4653 7665,4683 7619,4707 7576,4724 7537,4736 7501,4742 7469,4742 7440,4736 7425,4730 7411,4722 7398,4712 7386,4700 7375,4686 7365,4670 7357,4652 7349,4632 7343,4610 7338,4586 7332,4562 7325,4541 7317,4522 7307,4505 7295,4491 7282,4478 7268,4468 7252,4460 7234,4454 7215,4450 7153,4451 7078,4470 6991,4506 6892,4561 6781,4634 6657,4725 6521,4834 6373,4961 6212,5106 6039,5268 5865,5433 5700,5585 5544,5724 5397,5850 5260,5963 5131,6062 5012,6149 4902,6222 4801,6282 4710,6329 4682,6342 4654,6353 4628,6363 4603,6371 4579,6378 4556,6384 4533,6388 4512,6391 4492,6392 4473,6392 4455,6390 4437,6387 4421,6383 4406,6377 4392,6369 4379,6361 4366,6350 4355,6339 4345,6326 4336,6311 "/>
 <path fill="rgb(51,51,255)" stroke="none" d="M 10231,3521 L 10356,3771 10481,3521 10231,3521 Z "/>
 <path fill="none" stroke="rgb(51,51,255)" stroke-linejoin="round" d="M 10231,3521 L 10356,3771 10481,3521 10231,3521 Z "/>
 <path fill="rgb(51,51,255)" stroke="none" d="M 8810,4109 L 8935,4359 9060,4109 8810,4109 Z "/>
 <path fill="none" stroke="rgb(51,51,255)" stroke-linejoin="round" d="M 8810,4109 L 8935,4359 9060,4109 8810,4109 Z "/>
 <path fill="rgb(51,51,255)" stroke="none" d="M 8735,3582 L 8860,3832 8985,3582 8735,3582 Z "/>
 <path fill="none" stroke="rgb(51,51,255)" stroke-linejoin="round" d="M 8735,3582 L 8860,3832 8985,3582 8735,3582 Z "/>
 <path fill="rgb(51,51,255)" stroke="none" d="M 8286,3944 L 8411,4194 8536,3944 8286,3944 Z "/>
 <path fill="none" stroke="rgb(51,51,255)" stroke-linejoin="round" d="M 8286,3944 L 8411,4194 8536,3944 8286,3944 Z "/>
 <path fill="rgb(51,51,255)" stroke="none" d="M 7315,4611 L 7440,4861 7565,4611 7315,4611 Z "/>
 <path fill="none" stroke="rgb(51,51,255)" stroke-linejoin="round" d="M 7315,4611 L 7440,4861 7565,4611 7315,4611 Z "/>
 <path fill="rgb(51,51,255)" stroke="none" d="M 7090,4325 L 7215,4574 7340,4325 7090,4325 Z "/>
 <path fill="none" stroke="rgb(51,51,255)" stroke-linejoin="round" d="M 7090,4325 L 7215,4574 7340,4325 7090,4325 Z "/>
 <path fill="rgb(51,51,255)" stroke="none" d="M 4585,6204 L 4710,6454 4835,6204 4585,6204 Z "/>
 <path fill="none" stroke="rgb(51,51,255)" stroke-linejoin="round" d="M 4585,6204 L 4710,6454 4835,6204 4585,6204 Z "/>
 <path fill="rgb(51,51,255)" stroke="none" d="M 4211,6186 L 4336,6436 4461,6186 4211,6186 Z "/>
 <path fill="none" stroke="rgb(51,51,255)" stroke-linejoin="round" d="M 4211,6186 L 4336,6436 4461,6186 4211,6186 Z "/>
 <path fill="none" stroke="rgb(255,77,77)" stroke-width="80" stroke-linejoin="round" d="M 12300,2401 L 12249,2382 12198,2366 12148,2353 12097,2343 12046,2337 11995,2333 11945,2333 11894,2336 11843,2342 11793,2351 11742,2364 11692,2379 11642,2398 11591,2420 11541,2444 11491,2472 11441,2504 11391,2538 11341,2575 11291,2616 11200,2698 11109,2790 11019,2893 10928,3006 10838,3129 10748,3263 10659,3407 10569,3561 10480,3726 10390,3901 10300,4074 10209,4232 10116,4374 10021,4500 9925,4611 9827,4708 9728,4789 9627,4855 9525,4905 9421,4940 9351,4955 9281,4963 9211,4965 9139,4960 9067,4948 8995,4930 8921,4905 8847,4873 8772,4835 8697,4790 8622,4745 8548,4704 8475,4668 8404,4637 8333,4610 8264,4589 8196,4573 8130,4561 8064,4555 8000,4553 7927,4557 7855,4568 7785,4585 7716,4609 7649,4640 7584,4678 7520,4722 7458,4773 7398,4830 7339,4894 7282,4965 7226,5042 7172,5127 7120,5217 7070,5315 7021,5419 6973,5530 6928,5647 6884,5771 6841,5902 "/>
 <path fill="rgb(255,77,77)" stroke="none" d="M 12175,2401 L 12300,2526 12425,2401 12300,2276 12175,2401 Z "/>
 <path fill="none" stroke="rgb(255,77,77)" stroke-linejoin="round" d="M 12175,2401 L 12300,2526 12425,2401 12300,2276 12175,2401 Z "/>
 <path fill="rgb(255,77,77)" stroke="none" d="M 11166,2616 L 11291,2741 11416,2616 11291,2491 11166,2616 Z "/>
 <path fill="none" stroke="rgb(255,77,77)" stroke-linejoin="round" d="M 11166,2616 L 11291,2741 11416,2616 11291,2491 11166,2616 Z "/>
 <path fill="rgb(255,77,77)" stroke="none" d="M 9296,4940 L 9421,5065 9546,4940 9421,4815 9296,4940 Z "/>
 <path fill="none" stroke="rgb(255,77,77)" stroke-linejoin="round" d="M 9296,4940 L 9421,5065 9546,4940 9421,4815 9296,4940 Z "/>
 <path fill="rgb(255,77,77)" stroke="none" d="M 7876,4553 L 8000,4678 8125,4553 8000,4429 7876,4553 Z "/>
 <path fill="none" stroke="rgb(255,77,77)" stroke-linejoin="round" d="M 7876,4553 L 8000,4678 8125,4553 8000,4429 7876,4553 Z "/>
 <path fill="rgb(255,77,77)" stroke="none" d="M 6716,5902 L 6841,6027 6966,5902 6841,5777 6716,5902 Z "/>
 <path fill="none" stroke="rgb(255,77,77)" stroke-linejoin="round" d="M 6716,5902 L 6841,6027 6966,5902 6841,5777 6716,5902 Z "/>
 <path fill="rgb(0,0,0)" stroke="none" d="M 12291,7084 L 12291,7192 12185,7131 12175,7148 12281,7209 12175,7269 12185,7286 12291,7225 12291,7334 12310,7334 12310,7225 12416,7286 12425,7269 12320,7209 12425,7148 12416,7131 12310,7192 12310,7084 12291,7084 Z "/>
 <path fill="none" stroke="rgb(0,0,0)" stroke-linejoin="round" d="M 12291,7084 L 12291,7192 12185,7131 12175,7148 12281,7209 12175,7269 12185,7286 12291,7225 12291,7334 12310,7334 12310,7225 12416,7286 12425,7269 12320,7209 12425,7148 12416,7131 12310,7192 12310,7084 12291,7084 Z "/>
 <path fill="rgb(0,0,0)" stroke="none" d="M 11281,7084 L 11281,7192 11175,7131 11166,7148 11271,7209 11166,7269 11175,7286 11281,7225 11281,7334 11300,7334 11300,7225 11406,7286 11416,7269 11310,7209 11416,7148 11406,7131 11300,7192 11300,7084 11281,7084 Z "/>
 <path fill="none" stroke="rgb(0,0,0)" stroke-linejoin="round" d="M 11281,7084 L 11281,7192 11175,7131 11166,7148 11271,7209 11166,7269 11175,7286 11281,7225 11281,7334 11300,7334 11300,7225 11406,7286 11416,7269 11310,7209 11416,7148 11406,7131 11300,7192 11300,7084 11281,7084 Z "/>
 <path fill="rgb(0,0,0)" stroke="none" d="M 9411,7084 L 9411,7192 9306,7131 9296,7148 9401,7209 9296,7269 9306,7286 9411,7225 9411,7334 9431,7334 9431,7225 9536,7286 9546,7269 9440,7209 9546,7148 9536,7131 9431,7192 9431,7084 9411,7084 Z "/>
 <path fill="none" stroke="rgb(0,0,0)" stroke-linejoin="round" d="M 9411,7084 L 9411,7192 9306,7131 9296,7148 9401,7209 9296,7269 9306,7286 9411,7225 9411,7334 9431,7334 9431,7225 9536,7286 9546,7269 9440,7209 9546,7148 9536,7131 9431,7192 9431,7084 9411,7084 Z "/>
 <path fill="rgb(0,0,0)" stroke="none" d="M 7991,7084 L 7991,7192 7886,7131 7876,7148 7981,7209 7876,7269 7886,7286 7991,7225 7991,7334 8010,7334 8010,7225 8115,7286 8125,7269 8019,7209 8125,7148 8115,7131 8010,7192 8010,7084 7991,7084 Z "/>
 <path fill="none" stroke="rgb(0,0,0)" stroke-linejoin="round" d="M 7991,7084 L 7991,7192 7886,7131 7876,7148 7981,7209 7876,7269 7886,7286 7991,7225 7991,7334 8010,7334 8010,7225 8115,7286 8125,7269 8019,7209 8125,7148 8115,7131 8010,7192 8010,7084 7991,7084 Z "/>
 <path fill="rgb(0,0,0)" stroke="none" d="M 6832,7084 L 6832,7192 6726,7131 6716,7148 6822,7209 6716,7269 6726,7286 6832,7225 6832,7334 6851,7334 6851,7225 6957,7286 6966,7269 6861,7209 6966,7148 6957,7131 6851,7192 6851,7084 6832,7084 Z "/>
 <path fill="none" stroke="rgb(0,0,0)" stroke-linejoin="round" d="M 6832,7084 L 6832,7192 6726,7131 6716,7148 6822,7209 6716,7269 6726,7286 6832,7225 6832,7334 6851,7334 6851,7225 6957,7286 6966,7269 6861,7209 6966,7148 6957,7131 6851,7192 6851,7084 6832,7084 Z "/>
 <path fill="rgb(0,0,0)" stroke="none" d="M 10346,7084 L 10346,7192 10241,7131 10231,7148 10336,7209 10231,7269 10241,7286 10346,7225 10346,7334 10366,7334 10366,7225 10471,7286 10481,7269 10375,7209 10481,7148 10471,7131 10366,7192 10366,7084 10346,7084 Z "/>
 <path fill="none" stroke="rgb(0,0,0)" stroke-linejoin="round" d="M 10346,7084 L 10346,7192 10241,7131 10231,7148 10336,7209 10231,7269 10241,7286 10346,7225 10346,7334 10366,7334 10366,7225 10471,7286 10481,7269 10375,7209 10481,7148 10471,7131 10366,7192 10366,7084 10346,7084 Z "/>
 <path fill="rgb(0,0,0)" stroke="none" d="M 8925,7084 L 8925,7192 8819,7131 8810,7148 8915,7209 8810,7269 8819,7286 8925,7225 8925,7334 8944,7334 8944,7225 9050,7286 9060,7269 8954,7209 9060,7148 9050,7131 8944,7192 8944,7084 8925,7084 Z "/>
 <path fill="none" stroke="rgb(0,0,0)" stroke-linejoin="round" d="M 8925,7084 L 8925,7192 8819,7131 8810,7148 8915,7209 8810,7269 8819,7286 8925,7225 8925,7334 8944,7334 8944,7225 9050,7286 9060,7269 8954,7209 9060,7148 9050,7131 8944,7192 8944,7084 8925,7084 Z "/>
 <path fill="rgb(0,0,0)" stroke="none" d="M 8850,7084 L 8850,7192 8745,7131 8735,7148 8840,7209 8735,7269 8745,7286 8850,7225 8850,7334 8870,7334 8870,7225 8975,7286 8985,7269 8879,7209 8985,7148 8975,7131 8870,7192 8870,7084 8850,7084 Z "/>
 <path fill="none" stroke="rgb(0,0,0)" stroke-linejoin="round" d="M 8850,7084 L 8850,7192 8745,7131 8735,7148 8840,7209 8735,7269 8745,7286 8850,7225 8850,7334 8870,7334 8870,7225 8975,7286 8985,7269 8879,7209 8985,7148 8975,7131 8870,7192 8870,7084 8850,7084 Z "/>
 <path fill="rgb(0,0,0)" stroke="none" d="M 8401,7084 L 8401,7192 8296,7131 8286,7148 8392,7209 8286,7269 8296,7286 8401,7225 8401,7334 8421,7334 8421,7225 8526,7286 8536,7269 8431,7209 8536,7148 8526,7131 8421,7192 8421,7084 8401,7084 Z "/>
 <path fill="none" stroke="rgb(0,0,0)" stroke-linejoin="round" d="M 8401,7084 L 8401,7192 8296,7131 8286,7148 8392,7209 8286,7269 8296,7286 8401,7225 8401,7334 8421,7334 8421,7225 8526,7286 8536,7269 8431,7209 8536,7148 8526,7131 8421,7192 8421,7084 8401,7084 Z "/>
 <path fill="rgb(0,0,0)" stroke="none" d="M 7430,7084 L 7430,7192 7325,7131 7315,7148 7420,7209 7315,7269 7325,7286 7430,7225 7430,7334 7450,7334 7450,7225 7555,7286 7565,7269 7459,7209 7565,7148 7555,7131 7450,7192 7450,7084 7430,7084 Z "/>
 <path fill="none" stroke="rgb(0,0,0)" stroke-linejoin="round" d="M 7430,7084 L 7430,7192 7325,7131 7315,7148 7420,7209 7315,7269 7325,7286 7430,7225 7430,7334 7450,7334 7450,7225 7555,7286 7565,7269 7459,7209 7565,7148 7555,7131 7450,7192 7450,7084 7430,7084 Z "/>
 <path fill="rgb(0,0,0)" stroke="none" d="M 7206,7084 L 7206,7192 7100,7131 7090,7148 7196,7209 7090,7269 7100,7286 7206,7225 7206,7334 7225,7334 7225,7225 7331,7286 7340,7269 7235,7209 7340,7148 7331,7131 7225,7192 7225,7084 7206,7084 Z "/>
 <path fill="none" stroke="rgb(0,0,0)" stroke-linejoin="round" d="M 7206,7084 L 7206,7192 7100,7131 7090,7148 7196,7209 7090,7269 7100,7286 7206,7225 7206,7334 7225,7334 7225,7225 7331,7286 7340,7269 7235,7209 7340,7148 7331,7131 7225,7192 7225,7084 7206,7084 Z "/>
 <path fill="rgb(0,0,0)" stroke="none" d="M 4700,7084 L 4700,7192 4595,7131 4585,7148 4690,7209 4585,7269 4595,7286 4700,7225 4700,7334 4720,7334 4720,7225 4825,7286 4835,7269 4729,7209 4835,7148 4825,7131 4720,7192 4720,7084 4700,7084 Z "/>
 <path fill="none" stroke="rgb(0,0,0)" stroke-linejoin="round" d="M 4700,7084 L 4700,7192 4595,7131 4585,7148 4690,7209 4585,7269 4595,7286 4700,7225 4700,7334 4720,7334 4720,7225 4825,7286 4835,7269 4729,7209 4835,7148 4825,7131 4720,7192 4720,7084 4700,7084 Z "/>
 <path fill="rgb(0,0,0)" stroke="none" d="M 4326,7084 L 4326,7192 4221,7131 4211,7148 4316,7209 4211,7269 4221,7286 4326,7225 4326,7334 4346,7334 4346,7225 4451,7286 4461,7269 4355,7209 4461,7148 4451,7131 4346,7192 4346,7084 4326,7084 Z "/>
 <path fill="none" stroke="rgb(0,0,0)" stroke-linejoin="round" d="M 4326,7084 L 4326,7192 4221,7131 4211,7148 4316,7209 4211,7269 4221,7286 4326,7225 4326,7334 4346,7334 4346,7225 4451,7286 4461,7269 4355,7209 4461,7148 4451,7131 4346,7192 4346,7084 4326,7084 Z "/>
 <text class="SVGTextShape"><tspan class="TextParagraph"><tspan class="TextPosition" x="1555" y="7777"><tspan font-family="Liberation Sans, sans-serif" font-size="353px" font-weight="400" lengthAdjust="spacingAndGlyphs" textLength="776" fill="rgb(0,0,0)" stroke="none" style="white-space: pre">2000</tspan></tspan></tspan></text>
 <text class="SVGTextShape"><tspan class="TextParagraph"><tspan class="TextPosition" x="3798" y="7777"><tspan font-family="Liberation Sans, sans-serif" font-size="353px" font-weight="400" lengthAdjust="spacingAndGlyphs" textLength="776" fill="rgb(0,0,0)" stroke="none" style="white-space: pre">2005</tspan></tspan></tspan></text>
 <text class="SVGTextShape"><tspan class="TextParagraph"><tspan class="TextPosition" x="6042" y="7777"><tspan font-family="Liberation Sans, sans-serif" font-size="353px" font-weight="400" lengthAdjust="spacingAndGlyphs" textLength="776" fill="rgb(0,0,0)" stroke="none" style="white-space: pre">2010</tspan></tspan></tspan></text>
 <text class="SVGTextShape"><tspan class="TextParagraph"><tspan class="TextPosition" x="8285" y="7777"><tspan font-family="Liberation Sans, sans-serif" font-size="353px" font-weight="400" lengthAdjust="spacingAndGlyphs" textLength="776" fill="rgb(0,0,0)" stroke="none" style="white-space: pre">2015</tspan></tspan></tspan></text>
 <text class="SVGTextShape"><tspan class="TextParagraph"><tspan class="TextPosition" x="10529" y="7777"><tspan font-family="Liberation Sans, sans-serif" font-size="353px" font-weight="400" lengthAdjust="spacingAndGlyphs" textLength="776" fill="rgb(0,0,0)" stroke="none" style="white-space: pre">2020</tspan></tspan></tspan></text>
 <text class="SVGTextShape"><tspan class="TextParagraph"><tspan class="TextPosition" x="12773" y="7777"><tspan font-family="Liberation Sans, sans-serif" font-size="353px" font-weight="400" lengthAdjust="spacingAndGlyphs" textLength="776" fill="rgb(0,0,0)" stroke="none" style="white-space: pre">2025</tspan></tspan></tspan></text>
 <text class="SVGTextShape"><tspan class="TextParagraph"><tspan class="TextPosition" x="1499" y="7332"><tspan font-family="Liberation Sans, sans-serif" font-size="353px" font-weight="400" lengthAdjust="spacingAndGlyphs" textLength="194" fill="rgb(0,0,0)" stroke="none" style="white-space: pre">0</tspan></tspan></tspan></text>
 <text class="SVGTextShape"><tspan class="TextParagraph"><tspan class="TextPosition" x="1499" y="6614"><tspan font-family="Liberation Sans, sans-serif" font-size="353px" font-weight="400" lengthAdjust="spacingAndGlyphs" textLength="194" fill="rgb(0,0,0)" stroke="none" style="white-space: pre">2</tspan></tspan></tspan></text>
 <text class="SVGTextShape"><tspan class="TextParagraph"><tspan class="TextPosition" x="1499" y="5896"><tspan font-family="Liberation Sans, sans-serif" font-size="353px" font-weight="400" lengthAdjust="spacingAndGlyphs" textLength="194" fill="rgb(0,0,0)" stroke="none" style="white-space: pre">4</tspan></tspan></tspan></text>
 <text class="SVGTextShape"><tspan class="TextParagraph"><tspan class="TextPosition" x="1499" y="5178"><tspan font-family="Liberation Sans, sans-serif" font-size="353px" font-weight="400" lengthAdjust="spacingAndGlyphs" textLength="194" fill="rgb(0,0,0)" stroke="none" style="white-space: pre">6</tspan></tspan></tspan></text>
 <text class="SVGTextShape"><tspan class="TextParagraph"><tspan class="TextPosition" x="1499" y="4462"><tspan font-family="Liberation Sans, sans-serif" font-size="353px" font-weight="400" lengthAdjust="spacingAndGlyphs" textLength="194" fill="rgb(0,0,0)" stroke="none" style="white-space: pre">8</tspan></tspan></tspan></text>
 <text class="SVGTextShape"><tspan class="TextParagraph"><tspan class="TextPosition" x="1305" y="3744"><tspan font-family="Liberation Sans, sans-serif" font-size="353px" font-weight="400" lengthAdjust="spacingAndGlyphs" textLength="388" fill="rgb(0,0,0)" stroke="none" style="white-space: pre">10</tspan></tspan></tspan></text>
 <text class="SVGTextShape"><tspan class="TextParagraph"><tspan class="TextPosition" x="1305" y="3026"><tspan font-family="Liberation Sans, sans-serif" font-size="353px" font-weight="400" lengthAdjust="spacingAndGlyphs" textLength="388" fill="rgb(0,0,0)" stroke="none" style="white-space: pre">12</tspan></tspan></tspan></text>
 <text class="SVGTextShape"><tspan class="TextParagraph"><tspan class="TextPosition" x="1305" y="2308"><tspan font-family="Liberation Sans, sans-serif" font-size="353px" font-weight="400" lengthAdjust="spacingAndGlyphs" textLength="388" fill="rgb(0,0,0)" stroke="none" style="white-space: pre">14</tspan></tspan></tspan></text>
 <text class="SVGTextShape"><tspan class="TextParagraph"><tspan class="TextPosition" x="1305" y="1591"><tspan font-family="Liberation Sans, sans-serif" font-size="353px" font-weight="400" lengthAdjust="spacingAndGlyphs" textLength="388" fill="rgb(0,0,0)" stroke="none" style="white-space: pre">16</tspan></tspan></tspan></text>
 <text class="SVGTextShape" transform="rotate(-90 12423 6982)"><tspan class="TextParagraph"><tspan class="TextPosition" x="12423" y="6982"><tspan font-family="Liberation Sans, sans-serif" font-size="353px" font-weight="400" lengthAdjust="spacingAndGlyphs" textLength="2543" fill="rgb(0,0,0)" stroke="none" style="white-space: pre">Ryzen 7950X3D</tspan></tspan></tspan></text>
 <text class="SVGTextShape" transform="rotate(-90 11414 6982)"><tspan class="TextParagraph"><tspan class="TextPosition" x="11414" y="6982"><tspan font-family="Liberation Sans, sans-serif" font-size="353px" font-weight="400" lengthAdjust="spacingAndGlyphs" textLength="2388" fill="rgb(0,0,0)" stroke="none" style="white-space: pre">Ryzen 9 5950X</tspan></tspan></tspan></text>
 <text class="SVGTextShape" transform="rotate(-90 9544 6982)"><tspan class="TextParagraph"><tspan class="TextPosition" x="9544" y="6982"><tspan font-family="Liberation Sans, sans-serif" font-size="353px" font-weight="400" lengthAdjust="spacingAndGlyphs" textLength="1514" fill="rgb(0,0,0)" stroke="none" style="white-space: pre">A12-9800</tspan></tspan></tspan></text>
 <text class="SVGTextShape" transform="rotate(-90 8123 6982)"><tspan class="TextParagraph"><tspan class="TextPosition" x="8123" y="6982"><tspan font-family="Liberation Sans, sans-serif" font-size="353px" font-weight="400" lengthAdjust="spacingAndGlyphs" textLength="1339" fill="rgb(0,0,0)" stroke="none" style="white-space: pre">FX-9590</tspan></tspan></tspan></text>
 <text class="SVGTextShape" transform="rotate(-90 6964 6982)"><tspan class="TextParagraph"><tspan class="TextPosition" x="6964" y="6982"><tspan font-family="Liberation Sans, sans-serif" font-size="353px" font-weight="400" lengthAdjust="spacingAndGlyphs" textLength="3203" fill="rgb(0,0,0)" stroke="none" style="white-space: pre">Phenom II X6 1100T</tspan></tspan></tspan></text>
 <text class="SVGTextShape" transform="rotate(-90 10479 6982)"><tspan class="TextParagraph"><tspan class="TextPosition" x="10479" y="6982"><tspan font-family="Liberation Sans, sans-serif" font-size="353px" font-weight="400" lengthAdjust="spacingAndGlyphs" textLength="1398" fill="rgb(0,0,0)" stroke="none" style="white-space: pre">i9-9900K</tspan></tspan></tspan></text>
 <text class="SVGTextShape" transform="rotate(-90 9058 6982)"><tspan class="TextParagraph"><tspan class="TextPosition" x="9058" y="6982"><tspan font-family="Liberation Sans, sans-serif" font-size="353px" font-weight="400" lengthAdjust="spacingAndGlyphs" textLength="1398" fill="rgb(0,0,0)" stroke="none" style="white-space: pre">i7-6700K</tspan></tspan></tspan></text>
 <text class="SVGTextShape" transform="rotate(-90 8983 6982)"><tspan class="TextParagraph"><tspan class="TextPosition" x="8983" y="6982"><tspan font-family="Liberation Sans, sans-serif" font-size="353px" font-weight="400" lengthAdjust="spacingAndGlyphs" textLength="1417" fill="rgb(0,0,0)" stroke="none" style="white-space: pre">i7-5775C</tspan></tspan></tspan></text>
 <text class="SVGTextShape" transform="rotate(-90 8534 6982)"><tspan class="TextParagraph"><tspan class="TextPosition" x="8534" y="6982"><tspan font-family="Liberation Sans, sans-serif" font-size="353px" font-weight="400" lengthAdjust="spacingAndGlyphs" textLength="1398" fill="rgb(0,0,0)" stroke="none" style="white-space: pre">i7-4790K</tspan></tspan></tspan></text>
 <text class="SVGTextShape" transform="rotate(-90 7563 6982)"><tspan class="TextParagraph"><tspan class="TextPosition" x="7563" y="6982"><tspan font-family="Liberation Sans, sans-serif" font-size="353px" font-weight="400" lengthAdjust="spacingAndGlyphs" textLength="1398" fill="rgb(0,0,0)" stroke="none" style="white-space: pre">i7-3770K</tspan></tspan></tspan></text>
 <text class="SVGTextShape" transform="rotate(-90 7338 6982)"><tspan class="TextParagraph"><tspan class="TextPosition" x="7338" y="6982"><tspan font-family="Liberation Sans, sans-serif" font-size="353px" font-weight="400" lengthAdjust="spacingAndGlyphs" textLength="1398" fill="rgb(0,0,0)" stroke="none" style="white-space: pre">i7-2700K</tspan></tspan></tspan></text>
 <text class="SVGTextShape" transform="rotate(-90 4833 6982)"><tspan class="TextParagraph"><tspan class="TextPosition" x="4833" y="6982"><tspan font-family="Liberation Sans, sans-serif" font-size="353px" font-weight="400" lengthAdjust="spacingAndGlyphs" textLength="3105" fill="rgb(0,0,0)" stroke="none" style="white-space: pre">Pentium D 3.73GHz</tspan></tspan></tspan></text>
 <text class="SVGTextShape" transform="rotate(-90 4459 6982)"><tspan class="TextParagraph"><tspan class="TextPosition" x="4459" y="6982"><tspan font-family="Liberation Sans, sans-serif" font-size="353px" font-weight="400" lengthAdjust="spacingAndGlyphs" textLength="3416" fill="rgb(0,0,0)" stroke="none" style="white-space: pre">Pentium 4 HT 3.8GHz</tspan></tspan></tspan></text>
 <text class="SVGTextShape"><tspan class="TextParagraph"><tspan class="TextPosition" x="3566" y="860"><tspan font-family="Liberation Sans, sans-serif" font-size="459px" font-weight="400" lengthAdjust="spacingAndGlyphs" textLength="8852" fill="rgb(0,0,0)" stroke="none" style="white-space: pre">CPU Performance (single threaded, float32)</tspan></tspan></tspan></text>
 <path fill="none" stroke="rgb(255,77,77)" stroke-width="80" stroke-linejoin="round" d="M 13986,4246 L 14786,4246 "/>
 <path fill="rgb(255,77,77)" stroke="none" d="M 14280,4246 L 14386,4352 14491,4246 14386,4141 14280,4246 Z "/>
 <path fill="none" stroke="rgb(255,77,77)" stroke-linejoin="round" d="M 14280,4246 L 14386,4352 14491,4246 14386,4141 14280,4246 Z "/>
 <path fill="none" stroke="rgb(51,51,255)" stroke-width="80" stroke-linejoin="round" d="M 13986,4738 L 14786,4738 "/>
 <path fill="rgb(51,51,255)" stroke="none" d="M 14280,4633 L 14386,4844 14491,4633 14280,4633 Z "/>
 <path fill="none" stroke="rgb(51,51,255)" stroke-linejoin="round" d="M 14280,4633 L 14386,4844 14491,4633 14280,4633 Z "/>
 <text class="SVGTextShape"><tspan class="TextParagraph"><tspan class="TextPosition" x="14886" y="4368"><tspan font-family="Liberation Sans, sans-serif" font-size="353px" font-weight="400" lengthAdjust="spacingAndGlyphs" textLength="776" fill="rgb(0,0,0)" stroke="none" style="white-space: pre">AMD</tspan></tspan></tspan></text>
 <text class="SVGTextShape"><tspan class="TextParagraph"><tspan class="TextPosition" x="14886" y="4860"><tspan font-family="Liberation Sans, sans-serif" font-size="353px" font-weight="400" lengthAdjust="spacingAndGlyphs" textLength="660" fill="rgb(0,0,0)" stroke="none" style="white-space: pre">Intel</tspan></tspan></tspan></text>
 <text class="SVGTextShape"><tspan class="TextParagraph"><tspan class="TextPosition" x="6079" y="8413"><tspan font-family="Liberation Sans, sans-serif" font-size="318px" font-weight="400" lengthAdjust="spacingAndGlyphs" textLength="2700" fill="rgb(0,0,0)" stroke="none" style="white-space: pre">year of introduction</tspan></tspan></tspan></text>
 <text class="SVGTextShape" transform="rotate(-90 827 5205)"><tspan class="TextParagraph"><tspan class="TextPosition" x="827" y="5205"><tspan font-family="Liberation Sans, sans-serif" font-size="318px" font-weight="400" lengthAdjust="spacingAndGlyphs" textLength="1287" fill="rgb(0,0,0)" stroke="none" style="white-space: pre">GFLOPS</tspan></tspan></tspan></text>
</svg>