<?xml version="1.0" encoding="UTF-8"?>
<!DOCTYPE svg PUBLIC "-//W3C//DTD SVG 1.1//EN" "http://www.w3.org/Graphics/SVG/1.1/DTD/svg11.dtd">
<svg width="160mm" height="90mm" viewBox="0 0 16000 9000" version="1.1" xmlns="http://www.w3.org/2000/svg" xmlns:xlink="http://www.w3.org/1999/xlink" stroke-width="28.222" stroke-linejoin="round" xml:space="preserve">
 <path fill="rgb(255,255,255)" stroke="none" d="M 7991,8991 L -7,8991 -7,-7 15989,-7 15989,8991 7991,8991 Z "/>
 <path fill="none" stroke="rgb(179,179,179)" stroke-linejoin="round" d="M 7407,7197 L 1959,7197 1959,1478 12855,1478 12855,7197 7407,7197 Z "/>
 <path fill="none" stroke="rgb(179,179,179)" stroke-linejoin="round" d="M 12854,7196 L 1958,7196 "/>
 <path fill="none" stroke="rgb(179,179,179)" stroke-linejoin="round" d="M 12854,6242 L 1958,6242 "/>
 <path fill="none" stroke="rgb(179,179,179)" stroke-linejoin="round" d="M 12854,5289 L 1958,5289 "/>
 <path fill="none" stroke="rgb(179,179,179)" stroke-linejoin="round" d="M 12854,4337 L 1958,4337 "/>
 <path fill="none" stroke="rgb(179,179,179)" stroke-linejoin="round" d="M 12854,3383 L 1958,3383 "/>
 <path fill="none" stroke="rgb(179,179,179)" stroke-linejoin="round" d="M 12854,2430 L 1958,2430 "/>
 <path fill="none" stroke="rgb(179,179,179)" stroke-linejoin="round" d="M 12854,1477 L 1958,1477 "/>
 <path fill="none" stroke="rgb(179,179,179)" stroke-linejoin="round" d="M 1958,7346 L 1958,7196 "/>
 <path fill="none" stroke="rgb(179,179,179)" stroke-linejoin="round" d="M 1958,7346 L 1958,7196 "/>
 <path fill="none" stroke="rgb(179,179,179)" stroke-linejoin="round" d="M 3515,7346 L 3515,7196 "/>
 <path fill="none" stroke="rgb(179,179,179)" stroke-linejoin="round" d="M 3515,7346 L 3515,7196 "/>
 <path fill="none" stroke="rgb(179,179,179)" stroke-linejoin="round" d="M 5072,7346 L 5072,7196 "/>
 <path fill="none" stroke="rgb(179,179,179)" stroke-linejoin="round" d="M 5072,7346 L 5072,7196 "/>
 <path fill="none" stroke="rgb(179,179,179)" stroke-linejoin="round" d="M 6629,7346 L 6629,7196 "/>
 <path fill="none" stroke="rgb(179,179,179)" stroke-linejoin="round" d="M 6629,7346 L 6629,7196 "/>
 <path fill="none" stroke="rgb(179,179,179)" stroke-linejoin="round" d="M 8184,7346 L 8184,7196 "/>
 <path fill="none" stroke="rgb(179,179,179)" stroke-linejoin="round" d="M 8184,7346 L 8184,7196 "/>
 <path fill="none" stroke="rgb(179,179,179)" stroke-linejoin="round" d="M 9741,7346 L 9741,7196 "/>
 <path fill="none" stroke="rgb(179,179,179)" stroke-linejoin="round" d="M 9741,7346 L 9741,7196 "/>
 <path fill="none" stroke="rgb(179,179,179)" stroke-linejoin="round" d="M 11298,7346 L 11298,7196 "/>
 <path fill="none" stroke="rgb(179,179,179)" stroke-linejoin="round" d="M 11298,7346 L 11298,7196 "/>
 <path fill="none" stroke="rgb(179,179,179)" stroke-linejoin="round" d="M 12854,7346 L 12854,7196 "/>
 <path fill="none" stroke="rgb(179,179,179)" stroke-linejoin="round" d="M 12854,7346 L 12854,7196 "/>
 <path fill="none" stroke="rgb(179,179,179)" stroke-linejoin="round" d="M 1958,7196 L 12854,7196 "/>
 <path fill="none" stroke="rgb(179,179,179)" stroke-linejoin="round" d="M 1808,7196 L 1958,7196 "/>
 <path fill="none" stroke="rgb(179,179,179)" stroke-linejoin="round" d="M 1808,7196 L 1958,7196 "/>
 <path fill="none" stroke="rgb(179,179,179)" stroke-linejoin="round" d="M 1808,6242 L 1958,6242 "/>
 <path fill="none" stroke="rgb(179,179,179)" stroke-linejoin="round" d="M 1808,6242 L 1958,6242 "/>
 <path fill="none" stroke="rgb(179,179,179)" stroke-linejoin="round" d="M 1808,5289 L 1958,5289 "/>
 <path fill="none" stroke="rgb(179,179,179)" stroke-linejoin="round" d="M 1808,5289 L 1958,5289 "/>
 <path fill="none" stroke="rgb(179,179,179)" stroke-linejoin="round" d="M 1808,4337 L 1958,4337 "/>
 <path fill="none" stroke="rgb(179,179,179)" stroke-linejoin="round" d="M 1808,4337 L 1958,4337 "/>
 <path fill="none" stroke="rgb(179,179,179)" stroke-linejoin="round" d="M 1808,3383 L 1958,3383 "/>
 <path fill="none" stroke="rgb(179,179,179)" stroke-linejoin="round" d="M 1808,3383 L 1958,3383 "/>
 <path fill="none" stroke="rgb(179,179,179)" stroke-linejoin="round" d="M 1808,2430 L 1958,2430 "/>
 <path fill="none" stroke="rgb(179,179,179)" stroke-linejoin="round" d="M 1808,2430 L 1958,2430 "/>
 <path fill="none" stroke="rgb(179,179,179)" stroke-linejoin="round" d="M 1808,1477 L 1958,1477 "/>
 <path fill="none" stroke="rgb(179,179,179)" stroke-linejoin="round" d="M 1808,1477 L 1958,1477 "/>
 <path fill="none" stroke="rgb(179,179,179)" stroke-linejoin="round" d="M 1958,7196 L 1958,1477 "/>
 <path fill="none" stroke="rgb(255,211,32)" stroke-width="80" stroke-linejoin="round" d="M 12011,7101 L 12008,7094 12002,7088 11995,7083 11986,7077 11974,7072 11960,7067 11945,7063 11927,7059 11908,7055 11886,7051 11862,7048 11836,7045 11809,7042 11779,7040 11747,7038 11713,7036 11677,7034 11639,7033 11599,7032 11557,7032 11476,7031 11388,7032 11294,7033 11193,7036 11085,7039 10971,7043 10850,7049 10723,7055 10588,7062 10448,7071 10307,7079 10173,7087 10046,7095 9926,7102 9813,7109 9707,7115 9608,7121 9516,7126 9430,7131 9352,7135 9317,7137 9283,7139 9252,7141 9221,7143 9193,7144 9165,7146 9140,7147 9116,7148 9093,7150 9073,7151 9052,7152 9031,7152 9009,7153 8986,7154 8963,7154 8938,7154 8913,7154 8887,7154 8860,7154 8833,7153 8794,7152 8753,7151 8711,7150 8667,7148 8622,7146 8576,7144 8528,7141 8478,7138 8427,7135 8374,7132 8321,7128 8269,7125 8216,7122 8164,7120 8113,7118 8061,7117 8010,7116 7961,7115 7911,7115 7861,7115 7813,7115 7765,7116 7717,7117 7669,7118 7622,7120 7576,7123 7529,7125 7484,7128 7438,7132 7393,7135 7348,7139 7303,7143 7259,7146 7214,7149 7170,7151 7126,7154 7083,7156 7039,7158 6996,7159 6953,7161 6915,7162 6877,7162 6839,7163 6801,7163 6764,7163 6726,7163 6689,7162 6652,7162 6615,7161 6578,7160 6542,7159 6504,7158 6465,7156 6426,7155 6386,7154 6345,7153 6304,7152 6261,7151 6218,7151 6175,7150 6117,7149 6058,7148 5998,7147 5936,7146 5874,7145 5810,7144 5745,7144 5678,7143 5610,7142 5541,7142 5472,7141 5403,7141 5335,7140 5268,7139 5201,7138 5135,7137 5070,7136 5005,7135 4941,7134 4877,7133 4820,7132 4764,7131 4708,7130 4653,7129 4598,7127 4544,7126 4490,7125 4437,7123 4384,7122 4332,7120 4280,7118 4229,7117 4179,7115 4129,7113 4079,7111 4030,7109 3982,7108 3934,7106 3886,7104 3840,7101 "/>
 <path fill="rgb(255,211,32)" stroke="none" d="M 11886,6976 L 12011,7226 12136,6976 11886,6976 Z "/>
 <path fill="none" stroke="rgb(255,211,32)" stroke-linejoin="round" d="M 11886,6976 L 12011,7226 12136,6976 11886,6976 Z "/>
 <path fill="rgb(255,211,32)" stroke="none" d="M 11432,6907 L 11557,7157 11682,6907 11432,6907 Z "/>
 <path fill="none" stroke="rgb(255,211,32)" stroke-linejoin="round" d="M 11432,6907 L 11557,7157 11682,6907 11432,6907 Z "/>
 <path fill="rgb(255,211,32)" stroke="none" d="M 9227,7010 L 9352,7260 9477,7010 9227,7010 Z "/>
 <path fill="none" stroke="rgb(255,211,32)" stroke-linejoin="round" d="M 9227,7010 L 9352,7260 9477,7010 9227,7010 Z "/>
 <path fill="rgb(255,211,32)" stroke="none" d="M 8708,7028 L 8833,7278 8958,7028 8708,7028 Z "/>
 <path fill="none" stroke="rgb(255,211,32)" stroke-linejoin="round" d="M 8708,7028 L 8833,7278 8958,7028 8708,7028 Z "/>
 <path fill="rgb(255,211,32)" stroke="none" d="M 7736,6990 L 7861,7240 7986,6990 7736,6990 Z "/>
 <path fill="none" stroke="rgb(255,211,32)" stroke-linejoin="round" d="M 7736,6990 L 7861,7240 7986,6990 7736,6990 Z "/>
 <path fill="rgb(255,211,32)" stroke="none" d="M 6828,7036 L 6953,7286 7078,7036 6828,7036 Z "/>
 <path fill="none" stroke="rgb(255,211,32)" stroke-linejoin="round" d="M 6828,7036 L 6953,7286 7078,7036 6828,7036 Z "/>
 <path fill="rgb(255,211,32)" stroke="none" d="M 6050,7025 L 6175,7275 6300,7025 6050,7025 Z "/>
 <path fill="none" stroke="rgb(255,211,32)" stroke-linejoin="round" d="M 6050,7025 L 6175,7275 6300,7025 6050,7025 Z "/>
 <path fill="rgb(255,211,32)" stroke="none" d="M 4752,7008 L 4877,7258 5002,7008 4752,7008 Z "/>
 <path fill="none" stroke="rgb(255,211,32)" stroke-linejoin="round" d="M 4752,7008 L 4877,7258 5002,7008 4752,7008 Z "/>
 <path fill="rgb(255,211,32)" stroke="none" d="M 3715,6976 L 3840,7226 3965,6976 3715,6976 Z "/>
 <path fill="none" stroke="rgb(255,211,32)" stroke-linejoin="round" d="M 3715,6976 L 3840,7226 3965,6976 3715,6976 Z "/>
 <path fill="none" stroke="rgb(255,66,14)" stroke-width="80" stroke-linejoin="round" d="M 12011,4869 L 11998,4838 11984,4809 11968,4782 11952,4757 11935,4733 11916,4712 11897,4692 11877,4674 11856,4658 11833,4644 11810,4631 11786,4621 11761,4612 11735,4605 11708,4600 11680,4597 11650,4595 11620,4596 11589,4598 11557,4602 11474,4621 11384,4650 11289,4691 11187,4743 11080,4807 10966,4881 10847,4967 10721,5065 10590,5173 10452,5293 10315,5415 10183,5532 10058,5642 9939,5747 9826,5845 9719,5937 9618,6023 9523,6104 9434,6178 9352,6246 9320,6272 9289,6297 9259,6321 9230,6344 9202,6366 9176,6387 9150,6407 9125,6426 9101,6444 9078,6461 9056,6477 9033,6490 9009,6501 8986,6510 8961,6516 8937,6521 8911,6523 8886,6523 8860,6520 8833,6516 8790,6504 8746,6487 8701,6464 8654,6435 8607,6401 8558,6362 8508,6317 8458,6266 8406,6210 8352,6148 8299,6087 8247,6032 8195,5984 8145,5943 8095,5908 8046,5880 7998,5858 7952,5843 7906,5834 7861,5832 7813,5838 7767,5851 7721,5871 7676,5900 7633,5936 7590,5979 7548,6031 7508,6090 7469,6157 7430,6231 7391,6305 7350,6372 7308,6432 7263,6483 7216,6527 7167,6564 7117,6592 7064,6614 7010,6627 6953,6633 6921,6633 6888,6631 6854,6626 6820,6619 6786,6610 6750,6598 6715,6584 6678,6568 6641,6549 6603,6528 6565,6506 6525,6487 6485,6470 6444,6454 6401,6441 6358,6430 6313,6420 6268,6412 6222,6407 6175,6403 6119,6402 6062,6402 6004,6406 5944,6412 5884,6421 5822,6432 5758,6446 5693,6462 5628,6481 5560,6503 5492,6525 5424,6547 5356,6568 5288,6588 5220,6607 5151,6626 5083,6644 5015,6661 4946,6677 4877,6692 4826,6703 4774,6714 4723,6724 4671,6733 4620,6743 4568,6751 4516,6760 4464,6767 4413,6775 4361,6782 4309,6788 4257,6794 4205,6800 4153,6805 4101,6810 4048,6814 3996,6818 3944,6821 3892,6824 3840,6827 "/>
 <path fill="rgb(255,66,14)" stroke="none" d="M 11886,4869 L 12011,4994 12136,4869 12011,4744 11886,4869 Z "/>
 <path fill="none" stroke="rgb(255,66,14)" stroke-linejoin="round" d="M 11886,4869 L 12011,4994 12136,4869 12011,4744 11886,4869 Z "/>
 <path fill="rgb(255,66,14)" stroke="none" d="M 11432,4602 L 11557,4727 11682,4602 11557,4478 11432,4602 Z "/>
 <path fill="none" stroke="rgb(255,66,14)" stroke-linejoin="round" d="M 11432,4602 L 11557,4727 11682,4602 11557,4478 11432,4602 Z "/>
 <path fill="rgb(255,66,14)" stroke="none" d="M 9227,6246 L 9352,6371 9477,6246 9352,6121 9227,6246 Z "/>
 <path fill="none" stroke="rgb(255,66,14)" stroke-linejoin="round" d="M 9227,6246 L 9352,6371 9477,6246 9352,6121 9227,6246 Z "/>
 <path fill="rgb(255,66,14)" stroke="none" d="M 8708,6516 L 8833,6641 8958,6516 8833,6391 8708,6516 Z "/>
 <path fill="none" stroke="rgb(255,66,14)" stroke-linejoin="round" d="M 8708,6516 L 8833,6641 8958,6516 8833,6391 8708,6516 Z "/>
 <path fill="rgb(255,66,14)" stroke="none" d="M 7736,5832 L 7861,5957 7986,5832 7861,5707 7736,5832 Z "/>
 <path fill="none" stroke="rgb(255,66,14)" stroke-linejoin="round" d="M 7736,5832 L 7861,5957 7986,5832 7861,5707 7736,5832 Z "/>
 <path fill="rgb(255,66,14)" stroke="none" d="M 6828,6633 L 6953,6758 7078,6633 6953,6508 6828,6633 Z "/>
 <path fill="none" stroke="rgb(255,66,14)" stroke-linejoin="round" d="M 6828,6633 L 6953,6758 7078,6633 6953,6508 6828,6633 Z "/>
 <path fill="rgb(255,66,14)" stroke="none" d="M 6050,6403 L 6175,6528 6300,6403 6175,6278 6050,6403 Z "/>
 <path fill="none" stroke="rgb(255,66,14)" stroke-linejoin="round" d="M 6050,6403 L 6175,6528 6300,6403 6175,6278 6050,6403 Z "/>
 <path fill="rgb(255,66,14)" stroke="none" d="M 4752,6692 L 4877,6817 5002,6692 4877,6567 4752,6692 Z "/>
 <path fill="none" stroke="rgb(255,66,14)" stroke-linejoin="round" d="M 4752,6692 L 4877,6817 5002,6692 4877,6567 4752,6692 Z "/>
 <path fill="rgb(255,66,14)" stroke="none" d="M 3715,6827 L 3840,6952 3965,6827 3840,6702 3715,6827 Z "/>
 <path fill="none" stroke="rgb(255,66,14)" stroke-linejoin="round" d="M 3715,6827 L 3840,6952 3965,6827 3840,6702 3715,6827 Z "/>
 <path fill="rgb(0,0,0)" stroke="none" d="M 12002,7071 L 12002,7179 11896,7118 11886,7135 11992,7196 11886,7256 11896,7273 12002,7212 12002,7321 12021,7321 12021,7212 12127,7273 12136,7256 12031,7196 12136,7135 12127,7118 12021,7179 12021,7071 12002,7071 Z "/>
 <path fill="none" stroke="rgb(0,0,0)" stroke-linejoin="round" d="M 12002,7071 L 12002,7179 11896,7118 11886,7135 11992,7196 11886,7256 11896,7273 12002,7212 12002,7321 12021,7321 12021,7212 12127,7273 12136,7256 12031,7196 12136,7135 12127,7118 12021,7179 12021,7071 12002,7071 Z "/>
 <path fill="rgb(0,0,0)" stroke="none" d="M 11547,7071 L 11547,7179 11442,7118 11432,7135 11538,7196 11432,7256 11442,7273 11547,7212 11547,7321 11567,7321 11567,7212 11672,7273 11682,7256 11577,7196 11682,7135 11672,7118 11567,7179 11567,7071 11547,7071 Z "/>
 <path fill="none" stroke="rgb(0,0,0)" stroke-linejoin="round" d="M 11547,7071 L 11547,7179 11442,7118 11432,7135 11538,7196 11432,7256 11442,7273 11547,7212 11547,7321 11567,7321 11567,7212 11672,7273 11682,7256 11577,7196 11682,7135 11672,7118 11567,7179 11567,7071 11547,7071 Z "/>
 <path fill="rgb(0,0,0)" stroke="none" d="M 9342,7071 L 9342,7179 9237,7118 9227,7135 9332,7196 9227,7256 9237,7273 9342,7212 9342,7321 9362,7321 9362,7212 9467,7273 9477,7256 9371,7196 9477,7135 9467,7118 9362,7179 9362,7071 9342,7071 Z "/>
 <path fill="none" stroke="rgb(0,0,0)" stroke-linejoin="round" d="M 9342,7071 L 9342,7179 9237,7118 9227,7135 9332,7196 9227,7256 9237,7273 9342,7212 9342,7321 9362,7321 9362,7212 9467,7273 9477,7256 9371,7196 9477,7135 9467,7118 9362,7179 9362,7071 9342,7071 Z "/>
 <path fill="rgb(0,0,0)" stroke="none" d="M 8823,7071 L 8823,7179 8718,7118 8708,7135 8813,7196 8708,7256 8718,7273 8823,7212 8823,7321 8843,7321 8843,7212 8948,7273 8958,7256 8853,7196 8958,7135 8948,7118 8843,7179 8843,7071 8823,7071 Z "/>
 <path fill="none" stroke="rgb(0,0,0)" stroke-linejoin="round" d="M 8823,7071 L 8823,7179 8718,7118 8708,7135 8813,7196 8708,7256 8718,7273 8823,7212 8823,7321 8843,7321 8843,7212 8948,7273 8958,7256 8853,7196 8958,7135 8948,7118 8843,7179 8843,7071 8823,7071 Z "/>
 <path fill="rgb(0,0,0)" stroke="none" d="M 7851,7071 L 7851,7179 7746,7118 7736,7135 7842,7196 7736,7256 7746,7273 7851,7212 7851,7321 7871,7321 7871,7212 7976,7273 7986,7256 7881,7196 7986,7135 7976,7118 7871,7179 7871,7071 7851,7071 Z "/>
 <path fill="none" stroke="rgb(0,0,0)" stroke-linejoin="round" d="M 7851,7071 L 7851,7179 7746,7118 7736,7135 7842,7196 7736,7256 7746,7273 7851,7212 7851,7321 7871,7321 7871,7212 7976,7273 7986,7256 7881,7196 7986,7135 7976,7118 7871,7179 7871,7071 7851,7071 Z "/>
 <path fill="rgb(0,0,0)" stroke="none" d="M 6943,7071 L 6943,7179 6838,7118 6828,7135 6933,7196 6828,7256 6838,7273 6943,7212 6943,7321 6963,7321 6963,7212 7068,7273 7078,7256 6972,7196 7078,7135 7068,7118 6963,7179 6963,7071 6943,7071 Z "/>
 <path fill="none" stroke="rgb(0,0,0)" stroke-linejoin="round" d="M 6943,7071 L 6943,7179 6838,7118 6828,7135 6933,7196 6828,7256 6838,7273 6943,7212 6943,7321 6963,7321 6963,7212 7068,7273 7078,7256 6972,7196 7078,7135 7068,7118 6963,7179 6963,7071 6943,7071 Z "/>
 <path fill="rgb(0,0,0)" stroke="none" d="M 6165,7071 L 6165,7179 6059,7118 6050,7135 6155,7196 6050,7256 6059,7273 6165,7212 6165,7321 6184,7321 6184,7212 6290,7273 6300,7256 6194,7196 6300,7135 6290,7118 6184,7179 6184,7071 6165,7071 Z "/>
 <path fill="none" stroke="rgb(0,0,0)" stroke-linejoin="round" d="M 6165,7071 L 6165,7179 6059,7118 6050,7135 6155,7196 6050,7256 6059,7273 6165,7212 6165,7321 6184,7321 6184,7212 6290,7273 6300,7256 6194,7196 6300,7135 6290,7118 6184,7179 6184,7071 6165,7071 Z "/>
 <path fill="rgb(0,0,0)" stroke="none" d="M 4868,7071 L 4868,7179 4762,7118 4752,7135 4858,7196 4752,7256 4762,7273 4868,7212 4868,7321 4887,7321 4887,7212 4993,7273 5002,7256 4897,7196 5002,7135 4993,7118 4887,7179 4887,7071 4868,7071 Z "/>
 <path fill="none" stroke="rgb(0,0,0)" stroke-linejoin="round" d="M 4868,7071 L 4868,7179 4762,7118 4752,7135 4858,7196 4752,7256 4762,7273 4868,7212 4868,7321 4887,7321 4887,7212 4993,7273 5002,7256 4897,7196 5002,7135 4993,7118 4887,7179 4887,7071 4868,7071 Z "/>
 <path fill="rgb(0,0,0)" stroke="none" d="M 3830,7071 L 3830,7179 3724,7118 3715,7135 3820,7196 3715,7256 3724,7273 3830,7212 3830,7321 3849,7321 3849,7212 3955,7273 3965,7256 3859,7196 3965,7135 3955,7118 3849,7179 3849,7071 3830,7071 Z "/>
 <path fill="none" stroke="rgb(0,0,0)" stroke-linejoin="round" d="M 3830,7071 L 3830,7179 3724,7118 3715,7135 3820,7196 3715,7256 3724,7273 3830,7212 3830,7321 3849,7321 3849,7212 3955,7273 3965,7256 3859,7196 3965,7135 3955,7118 3849,7179 3849,7071 3830,7071 Z "/>
 <path fill="none" stroke="rgb(0,69,134)" stroke-width="80" stroke-linejoin="round" d="M 12011,4869 L 12022,4573 12029,4294 12033,4031 12034,3786 12030,3557 12023,3346 12013,3152 11999,2974 11982,2814 11961,2671 11936,2546 11908,2437 11877,2345 11842,2270 11803,2213 11761,2173 11715,2149 11666,2143 11614,2154 11557,2182 11491,2233 11421,2304 11346,2396 11267,2510 11183,2643 11096,2798 11004,2974 10908,3170 10807,3387 10702,3625 10592,3867 10477,4095 10356,4310 10229,4511 10097,4699 9959,4874 9816,5036 9667,5184 9512,5320 9352,5441 9286,5487 9219,5530 9151,5571 9083,5609 9013,5646 8942,5680 8871,5713 8799,5743 8725,5771 8651,5797 8576,5820 8500,5842 8423,5861 8346,5879 8267,5894 8187,5907 8107,5918 8026,5926 7944,5933 7861,5937 "/>
 <path fill="rgb(0,69,134)" stroke="none" d="M 11886,4744 L 11886,4994 12136,4994 12136,4744 11886,4744 Z "/>
 <path fill="none" stroke="rgb(0,69,134)" stroke-linejoin="round" d="M 11886,4744 L 11886,4994 12136,4994 12136,4744 11886,4744 Z "/>
 <path fill="rgb(0,69,134)" stroke="none" d="M 11432,2057 L 11432,2307 11682,2307 11682,2057 11432,2057 Z "/>
 <path fill="none" stroke="rgb(0,69,134)" stroke-linejoin="round" d="M 11432,2057 L 11432,2307 11682,2307 11682,2057 11432,2057 Z "/>
 <path fill="rgb(0,69,134)" stroke="none" d="M 9227,5316 L 9227,5566 9477,5566 9477,5316 9227,5316 Z "/>
 <path fill="none" stroke="rgb(0,69,134)" stroke-linejoin="round" d="M 9227,5316 L 9227,5566 9477,5566 9477,5316 9227,5316 Z "/>
 <path fill="rgb(0,69,134)" stroke="none" d="M 7736,5812 L 7736,6062 7986,6062 7986,5812 7736,5812 Z "/>
 <path fill="none" stroke="rgb(0,69,134)" stroke-linejoin="round" d="M 7736,5812 L 7736,6062 7986,6062 7986,5812 7736,5812 Z "/>
 <text class="SVGTextShape"><tspan class="TextParagraph"><tspan class="TextPosition" x="1561" y="7764"><tspan font-family="Liberation Sans, sans-serif" font-size="353px" font-weight="400" lengthAdjust="spacingAndGlyphs" textLength="794" fill="rgb(0,0,0)" stroke="none" style="white-space: pre">2010</tspan></tspan></tspan></text>
 <text class="SVGTextShape"><tspan class="TextParagraph"><tspan class="TextPosition" x="3118" y="7764"><tspan font-family="Liberation Sans, sans-serif" font-size="353px" font-weight="400" lengthAdjust="spacingAndGlyphs" textLength="794" fill="rgb(0,0,0)" stroke="none" style="white-space: pre">2012</tspan></tspan></tspan></text>
 <text class="SVGTextShape"><tspan class="TextParagraph"><tspan class="TextPosition" x="4675" y="7764"><tspan font-family="Liberation Sans, sans-serif" font-size="353px" font-weight="400" lengthAdjust="spacingAndGlyphs" textLength="794" fill="rgb(0,0,0)" stroke="none" style="white-space: pre">2014</tspan></tspan></tspan></text>
 <text class="SVGTextShape"><tspan class="TextParagraph"><tspan class="TextPosition" x="6232" y="7764"><tspan font-family="Liberation Sans, sans-serif" font-size="353px" font-weight="400" lengthAdjust="spacingAndGlyphs" textLength="794" fill="rgb(0,0,0)" stroke="none" style="white-space: pre">2016</tspan></tspan></tspan></text>
 <text class="SVGTextShape"><tspan class="TextParagraph"><tspan class="TextPosition" x="7788" y="7764"><tspan font-family="Liberation Sans, sans-serif" font-size="353px" font-weight="400" lengthAdjust="spacingAndGlyphs" textLength="794" fill="rgb(0,0,0)" stroke="none" style="white-space: pre">2018</tspan></tspan></tspan></text>
 <text class="SVGTextShape"><tspan class="TextParagraph"><tspan class="TextPosition" x="9344" y="7764"><tspan font-family="Liberation Sans, sans-serif" font-size="353px" font-weight="400" lengthAdjust="spacingAndGlyphs" textLength="794" fill="rgb(0,0,0)" stroke="none" style="white-space: pre">2020</tspan></tspan></tspan></text>
 <text class="SVGTextShape"><tspan class="TextParagraph"><tspan class="TextPosition" x="10901" y="7764"><tspan font-family="Liberation Sans, sans-serif" font-size="353px" font-weight="400" lengthAdjust="spacingAndGlyphs" textLength="794" fill="rgb(0,0,0)" stroke="none" style="white-space: pre">2022</tspan></tspan></tspan></text>
 <text class="SVGTextShape"><tspan class="TextParagraph"><tspan class="TextPosition" x="12457" y="7764"><tspan font-family="Liberation Sans, sans-serif" font-size="353px" font-weight="400" lengthAdjust="spacingAndGlyphs" textLength="794" fill="rgb(0,0,0)" stroke="none" style="white-space: pre">2024</tspan></tspan></tspan></text>
 <text class="SVGTextShape"><tspan class="TextParagraph"><tspan class="TextPosition" x="1509" y="7317"><tspan font-family="Liberation Sans, sans-serif" font-size="353px" font-weight="400" lengthAdjust="spacingAndGlyphs" textLength="198" fill="rgb(0,0,0)" stroke="none" style="white-space: pre">0</tspan></tspan></tspan></text>
 <text class="SVGTextShape"><tspan class="TextParagraph"><tspan class="TextPosition" x="1311" y="6363"><tspan font-family="Liberation Sans, sans-serif" font-size="353px" font-weight="400" lengthAdjust="spacingAndGlyphs" textLength="397" fill="rgb(0,0,0)" stroke="none" style="white-space: pre">10</tspan></tspan></tspan></text>
 <text class="SVGTextShape"><tspan class="TextParagraph"><tspan class="TextPosition" x="1311" y="5410"><tspan font-family="Liberation Sans, sans-serif" font-size="353px" font-weight="400" lengthAdjust="spacingAndGlyphs" textLength="397" fill="rgb(0,0,0)" stroke="none" style="white-space: pre">20</tspan></tspan></tspan></text>
 <text class="SVGTextShape"><tspan class="TextParagraph"><tspan class="TextPosition" x="1311" y="4458"><tspan font-family="Liberation Sans, sans-serif" font-size="353px" font-weight="400" lengthAdjust="spacingAndGlyphs" textLength="397" fill="rgb(0,0,0)" stroke="none" style="white-space: pre">30</tspan></tspan></tspan></text>
 <text class="SVGTextShape"><tspan class="TextParagraph"><tspan class="TextPosition" x="1311" y="3504"><tspan font-family="Liberation Sans, sans-serif" font-size="353px" font-weight="400" lengthAdjust="spacingAndGlyphs" textLength="397" fill="rgb(0,0,0)" stroke="none" style="white-space: pre">40</tspan></tspan></tspan></text>
 <text class="SVGTextShape"><tspan class="TextParagraph"><tspan class="TextPosition" x="1311" y="2551"><tspan font-family="Liberation Sans, sans-serif" font-size="353px" font-weight="400" lengthAdjust="spacingAndGlyphs" textLength="397" fill="rgb(0,0,0)" stroke="none" style="white-space: pre">50</tspan></tspan></tspan></text>
 <text class="SVGTextShape"><tspan class="TextParagraph"><tspan class="TextPosition" x="1311" y="1598"><tspan font-family="Liberation Sans, sans-serif" font-size="353px" font-weight="400" lengthAdjust="spacingAndGlyphs" textLength="397" fill="rgb(0,0,0)" stroke="none" style="white-space: pre">60</tspan></tspan></tspan></text>
 <text class="SVGTextShape" transform="rotate(-90 12327 6808)"><tspan class="TextParagraph"><tspan class="TextPosition" x="12327" y="6808"><tspan font-family="Liberation Sans, sans-serif" font-size="353px" font-weight="400" lengthAdjust="spacingAndGlyphs" textLength="3534" fill="rgb(0,0,0)" stroke="none" style="white-space: pre">Radeon RX 7900 XTX</tspan></tspan></tspan></text>
 <text class="SVGTextShape" transform="rotate(-90 11484 6808)"><tspan class="TextParagraph"><tspan class="TextPosition" x="11484" y="6808"><tspan font-family="Liberation Sans, sans-serif" font-size="353px" font-weight="400" lengthAdjust="spacingAndGlyphs" textLength="3296" fill="rgb(0,0,0)" stroke="none" style="white-space: pre">Radeon RX 6950 XT</tspan></tspan></tspan></text>
 <text class="SVGTextShape" transform="rotate(-90 9473 5092)"><tspan class="TextParagraph"><tspan class="TextPosition" x="9473" y="5092"><tspan font-family="Liberation Sans, sans-serif" font-size="353px" font-weight="400" lengthAdjust="spacingAndGlyphs" textLength="3296" fill="rgb(0,0,0)" stroke="none" style="white-space: pre">Radeon RX 5700 XT</tspan></tspan></tspan></text>
 <text class="SVGTextShape" transform="rotate(-90 8954 5473)"><tspan class="TextParagraph"><tspan class="TextPosition" x="8954" y="5473"><tspan font-family="Liberation Sans, sans-serif" font-size="353px" font-weight="400" lengthAdjust="spacingAndGlyphs" textLength="2541" fill="rgb(0,0,0)" stroke="none" style="white-space: pre">Radeon RX 590</tspan></tspan></tspan></text>
 <text class="SVGTextShape" transform="rotate(-90 7982 5473)"><tspan class="TextParagraph"><tspan class="TextPosition" x="7982" y="5473"><tspan font-family="Liberation Sans, sans-serif" font-size="353px" font-weight="400" lengthAdjust="spacingAndGlyphs" textLength="4329" fill="rgb(0,0,0)" stroke="none" style="white-space: pre">Radeon RX Vega 64 Liquid</tspan></tspan></tspan></text>
 <text class="SVGTextShape" transform="rotate(-90 7074 6236)"><tspan class="TextParagraph"><tspan class="TextPosition" x="7074" y="6236"><tspan font-family="Liberation Sans, sans-serif" font-size="353px" font-weight="400" lengthAdjust="spacingAndGlyphs" textLength="2541" fill="rgb(0,0,0)" stroke="none" style="white-space: pre">Radeon RX 480</tspan></tspan></tspan></text>
 <text class="SVGTextShape" transform="rotate(-90 6296 6045)"><tspan class="TextParagraph"><tspan class="TextPosition" x="6296" y="6045"><tspan font-family="Liberation Sans, sans-serif" font-size="353px" font-weight="400" lengthAdjust="spacingAndGlyphs" textLength="2958" fill="rgb(0,0,0)" stroke="none" style="white-space: pre">Radeon R9 Fury X</tspan></tspan></tspan></text>
 <text class="SVGTextShape" transform="rotate(-90 4998 6331)"><tspan class="TextParagraph"><tspan class="TextPosition" x="4998" y="6331"><tspan font-family="Liberation Sans, sans-serif" font-size="353px" font-weight="400" lengthAdjust="spacingAndGlyphs" textLength="2740" fill="rgb(0,0,0)" stroke="none" style="white-space: pre">Radeon R9 290X</tspan></tspan></tspan></text>
 <text class="SVGTextShape" transform="rotate(-90 3961 6522)"><tspan class="TextParagraph"><tspan class="TextPosition" x="3961" y="6522"><tspan font-family="Liberation Sans, sans-serif" font-size="353px" font-weight="400" lengthAdjust="spacingAndGlyphs" textLength="4765" fill="rgb(0,0,0)" stroke="none" style="white-space: pre">Radeon HD 7970 GHz Edition</tspan></tspan></tspan></text>
 <text class="SVGTextShape"><tspan class="TextParagraph"><tspan class="TextPosition" x="4415" y="869"><tspan font-family="Liberation Sans, sans-serif" font-size="459px" font-weight="400" lengthAdjust="spacingAndGlyphs" textLength="7153" fill="rgb(0,0,0)" stroke="none" style="white-space: pre">AMD Graphics Cards Performance</tspan></tspan></tspan></text>
 <path fill="none" stroke="rgb(0,69,134)" stroke-width="80" stroke-linejoin="round" d="M 13688,3993 L 14488,3993 "/>
 <path fill="rgb(0,69,134)" stroke="none" d="M 13982,3888 L 13982,4099 14193,4099 14193,3888 13982,3888 Z "/>
 <path fill="none" stroke="rgb(0,69,134)" stroke-linejoin="round" d="M 13982,3888 L 13982,4099 14193,4099 14193,3888 13982,3888 Z "/>
 <path fill="none" stroke="rgb(255,66,14)" stroke-width="80" stroke-linejoin="round" d="M 13688,4491 L 14488,4491 "/>
 <path fill="rgb(255,66,14)" stroke="none" d="M 13982,4491 L 14088,4596 14193,4491 14088,4386 13982,4491 Z "/>
 <path fill="none" stroke="rgb(255,66,14)" stroke-linejoin="round" d="M 13982,4491 L 14088,4596 14193,4491 14088,4386 13982,4491 Z "/>
 <path fill="none" stroke="rgb(255,211,32)" stroke-width="80" stroke-linejoin="round" d="M 13688,4988 L 14488,4988 "/>
 <path fill="rgb(255,211,32)" stroke="none" d="M 13982,4883 L 14088,5094 14193,4883 13982,4883 Z "/>
 <path fill="none" stroke="rgb(255,211,32)" stroke-linejoin="round" d="M 13982,4883 L 14088,5094 14193,4883 13982,4883 Z "/>
 <text class="SVGTextShape"><tspan class="TextParagraph"><tspan class="TextPosition" x="14588" y="4113"><tspan font-family="Liberation Sans, sans-serif" font-size="353px" font-weight="400" lengthAdjust="spacingAndGlyphs" textLength="575" fill="rgb(0,0,0)" stroke="none" style="white-space: pre">half</tspan></tspan></tspan></text>
 <text class="SVGTextShape"><tspan class="TextParagraph"><tspan class="TextPosition" x="14588" y="4610"><tspan font-family="Liberation Sans, sans-serif" font-size="353px" font-weight="400" lengthAdjust="spacingAndGlyphs" textLength="675" fill="rgb(0,0,0)" stroke="none" style="white-space: pre">float</tspan></tspan></tspan></text>
 <text class="SVGTextShape"><tspan class="TextParagraph"><tspan class="TextPosition" x="14588" y="5108"><tspan font-family="Liberation Sans, sans-serif" font-size="353px" font-weight="400" lengthAdjust="spacingAndGlyphs" textLength="1072" fill="rgb(0,0,0)" stroke="none" style="white-space: pre">double</tspan></tspan></tspan></text>
 <text class="SVGTextShape"><tspan class="TextParagraph"><tspan class="TextPosition" x="5933" y="8411"><tspan font-family="Liberation Sans, sans-serif" font-size="318px" font-weight="400" lengthAdjust="spacingAndGlyphs" textLength="2700" fill="rgb(0,0,0)" stroke="none" style="white-space: pre">year of introduction</tspan></tspan></tspan></text>
 <text class="SVGTextShape" transform="rotate(-90 831 5179)"><tspan class="TextParagraph"><tspan class="TextPosition" x="831" y="5179"><tspan font-family="Liberation Sans, sans-serif" font-size="318px" font-weight="400" lengthAdjust="spacingAndGlyphs" textLength="1234" fill="rgb(0,0,0)" stroke="none" style="white-space: pre">TFLOPS</tspan></tspan></tspan></text>
</svg>