<?xml version="1.0" encoding="UTF-8"?>
<!DOCTYPE svg PUBLIC "-//W3C//DTD SVG 1.1//EN" "http://www.w3.org/Graphics/SVG/1.1/DTD/svg11.dtd">
<svg width="160mm" height="90mm" viewBox="0 0 16000 9000" version="1.1" xmlns="http://www.w3.org/2000/svg" xmlns:xlink="http://www.w3.org/1999/xlink" stroke-width="28.222" stroke-linejoin="round" xml:space="preserve">
 <path fill="rgb(255,255,255)" stroke="none" d="M 7991,8991 L -7,8991 -7,-7 15989,-7 15989,8991 7991,8991 Z "/>
 <path fill="none" stroke="rgb(179,179,179)" stroke-linejoin="round" d="M 7645,7197 L 2157,7197 2157,1478 13133,1478 13133,7197 7645,7197 Z "/>
 <path fill="none" stroke="rgb(179,179,179)" stroke-linejoin="round" d="M 13133,7196 L 2157,7196 "/>
 <path fill="none" stroke="rgb(179,179,179)" stroke-linejoin="round" d="M 13133,6560 L 2157,6560 "/>
 <path fill="none" stroke="rgb(179,179,179)" stroke-linejoin="round" d="M 13133,5924 L 2157,5924 "/>
 <path fill="none" stroke="rgb(179,179,179)" stroke-linejoin="round" d="M 13133,5289 L 2157,5289 "/>
 <path fill="none" stroke="rgb(179,179,179)" stroke-linejoin="round" d="M 13133,4653 L 2157,4653 "/>
 <path fill="none" stroke="rgb(179,179,179)" stroke-linejoin="round" d="M 13133,4019 L 2157,4019 "/>
 <path fill="none" stroke="rgb(179,179,179)" stroke-linejoin="round" d="M 13133,3383 L 2157,3383 "/>
 <path fill="none" stroke="rgb(179,179,179)" stroke-linejoin="round" d="M 13133,2748 L 2157,2748 "/>
 <path fill="none" stroke="rgb(179,179,179)" stroke-linejoin="round" d="M 13133,2112 L 2157,2112 "/>
 <path fill="none" stroke="rgb(179,179,179)" stroke-linejoin="round" d="M 13133,1477 L 2157,1477 "/>
 <path fill="none" stroke="rgb(179,179,179)" stroke-linejoin="round" d="M 2157,7346 L 2157,7196 "/>
 <path fill="none" stroke="rgb(179,179,179)" stroke-linejoin="round" d="M 2157,7346 L 2157,7196 "/>
 <path fill="none" stroke="rgb(179,179,179)" stroke-linejoin="round" d="M 3725,7346 L 3725,7196 "/>
 <path fill="none" stroke="rgb(179,179,179)" stroke-linejoin="round" d="M 3725,7346 L 3725,7196 "/>
 <path fill="none" stroke="rgb(179,179,179)" stroke-linejoin="round" d="M 5293,7346 L 5293,7196 "/>
 <path fill="none" stroke="rgb(179,179,179)" stroke-linejoin="round" d="M 5293,7346 L 5293,7196 "/>
 <path fill="none" stroke="rgb(179,179,179)" stroke-linejoin="round" d="M 6861,7346 L 6861,7196 "/>
 <path fill="none" stroke="rgb(179,179,179)" stroke-linejoin="round" d="M 6861,7346 L 6861,7196 "/>
 <path fill="none" stroke="rgb(179,179,179)" stroke-linejoin="round" d="M 8428,7346 L 8428,7196 "/>
 <path fill="none" stroke="rgb(179,179,179)" stroke-linejoin="round" d="M 8428,7346 L 8428,7196 "/>
 <path fill="none" stroke="rgb(179,179,179)" stroke-linejoin="round" d="M 9996,7346 L 9996,7196 "/>
 <path fill="none" stroke="rgb(179,179,179)" stroke-linejoin="round" d="M 9996,7346 L 9996,7196 "/>
 <path fill="none" stroke="rgb(179,179,179)" stroke-linejoin="round" d="M 11564,7346 L 11564,7196 "/>
 <path fill="none" stroke="rgb(179,179,179)" stroke-linejoin="round" d="M 11564,7346 L 11564,7196 "/>
 <path fill="none" stroke="rgb(179,179,179)" stroke-linejoin="round" d="M 13133,7346 L 13133,7196 "/>
 <path fill="none" stroke="rgb(179,179,179)" stroke-linejoin="round" d="M 13133,7346 L 13133,7196 "/>
 <path fill="none" stroke="rgb(179,179,179)" stroke-linejoin="round" d="M 2157,7196 L 13133,7196 "/>
 <path fill="none" stroke="rgb(179,179,179)" stroke-linejoin="round" d="M 2007,7196 L 2157,7196 "/>
 <path fill="none" stroke="rgb(179,179,179)" stroke-linejoin="round" d="M 2007,7196 L 2157,7196 "/>
 <path fill="none" stroke="rgb(179,179,179)" stroke-linejoin="round" d="M 2007,6560 L 2157,6560 "/>
 <path fill="none" stroke="rgb(179,179,179)" stroke-linejoin="round" d="M 2007,6560 L 2157,6560 "/>
 <path fill="none" stroke="rgb(179,179,179)" stroke-linejoin="round" d="M 2007,5924 L 2157,5924 "/>
 <path fill="none" stroke="rgb(179,179,179)" stroke-linejoin="round" d="M 2007,5924 L 2157,5924 "/>
 <path fill="none" stroke="rgb(179,179,179)" stroke-linejoin="round" d="M 2007,5289 L 2157,5289 "/>
 <path fill="none" stroke="rgb(179,179,179)" stroke-linejoin="round" d="M 2007,5289 L 2157,5289 "/>
 <path fill="none" stroke="rgb(179,179,179)" stroke-linejoin="round" d="M 2007,4653 L 2157,4653 "/>
 <path fill="none" stroke="rgb(179,179,179)" stroke-linejoin="round" d="M 2007,4653 L 2157,4653 "/>
 <path fill="none" stroke="rgb(179,179,179)" stroke-linejoin="round" d="M 2007,4019 L 2157,4019 "/>
 <path fill="none" stroke="rgb(179,179,179)" stroke-linejoin="round" d="M 2007,4019 L 2157,4019 "/>
 <path fill="none" stroke="rgb(179,179,179)" stroke-linejoin="round" d="M 2007,3383 L 2157,3383 "/>
 <path fill="none" stroke="rgb(179,179,179)" stroke-linejoin="round" d="M 2007,3383 L 2157,3383 "/>
 <path fill="none" stroke="rgb(179,179,179)" stroke-linejoin="round" d="M 2007,2748 L 2157,2748 "/>
 <path fill="none" stroke="rgb(179,179,179)" stroke-linejoin="round" d="M 2007,2748 L 2157,2748 "/>
 <path fill="none" stroke="rgb(179,179,179)" stroke-linejoin="round" d="M 2007,2112 L 2157,2112 "/>
 <path fill="none" stroke="rgb(179,179,179)" stroke-linejoin="round" d="M 2007,2112 L 2157,2112 "/>
 <path fill="none" stroke="rgb(179,179,179)" stroke-linejoin="round" d="M 2007,1477 L 2157,1477 "/>
 <path fill="none" stroke="rgb(179,179,179)" stroke-linejoin="round" d="M 2007,1477 L 2157,1477 "/>
 <path fill="none" stroke="rgb(179,179,179)" stroke-linejoin="round" d="M 2157,7196 L 2157,1477 "/>
 <path fill="none" stroke="rgb(51,51,255)" stroke-width="80" stroke-linejoin="round" d="M 11486,2837 L 11392,2968 11298,3099 11204,3229 11110,3358 11016,3486 10922,3614 10828,3741 10734,3866 10640,3992 10546,4116 10452,4239 10358,4362 10263,4484 10169,4604 10075,4725 9981,4844 9887,4963 9793,5081 9698,5198 9604,5314 9542,5391 9480,5467 9417,5543 9355,5618 9292,5693 9230,5768 9168,5842 9105,5917 9043,5990 8981,6064 8921,6133 8866,6194 8816,6247 8772,6293 8732,6330 8698,6360 8668,6381 8644,6395 8625,6401 8611,6399 8604,6391 8601,6386 8599,6379 8598,6371 8598,6362 8599,6352 8600,6340 8602,6328 8605,6314 8607,6300 8608,6287 8608,6276 8605,6266 8601,6257 8596,6250 8589,6244 8581,6239 8570,6236 8559,6233 8550,6232 8540,6232 8529,6233 8517,6234 8505,6236 8492,6238 8478,6241 8463,6245 8448,6249 8432,6254 8415,6259 8397,6265 8380,6270 8362,6276 8343,6282 8324,6288 8305,6295 8286,6301 8266,6308 8245,6315 8213,6325 8180,6336 8147,6348 8112,6359 8076,6371 8040,6384 8002,6397 7965,6410 7925,6423 7885,6437 7845,6451 7807,6463 7771,6473 7736,6482 7704,6489 7673,6495 7643,6500 7616,6503 7590,6504 7567,6504 7556,6503 7545,6503 7535,6501 7525,6500 7516,6498 7507,6495 7498,6492 7490,6489 7483,6486 7475,6482 7469,6478 7462,6475 7455,6472 7448,6469 7442,6466 7435,6464 7429,6462 7422,6460 7416,6459 7410,6458 7399,6457 7389,6457 7379,6458 7370,6460 7360,6463 7351,6467 7342,6471 7333,6477 7325,6483 7317,6490 7308,6498 7299,6507 7289,6516 7278,6525 7267,6535 7255,6545 7242,6555 7229,6566 7215,6577 7201,6589 7170,6614 7136,6640 7100,6667 7062,6697 7021,6728 6977,6761 6930,6795 6881,6831 6829,6868 6775,6908 6721,6946 6672,6979 6626,7009 6584,7034 6546,7056 6512,7073 6483,7086 6457,7095 6435,7099 6417,7100 6411,7099 6402,7095 6394,7090 6391,7086 6389,7082 6387,7077 6385,7072 6384,7066 6383,7060 6380,7055 6374,7050 6367,7046 6358,7043 6348,7040 6335,7037 6320,7035 6304,7034 6286,7033 6264,7032 6241,7033 6215,7034 6187,7035 6157,7037 6125,7040 6090,7044 6054,7048 6015,7052 5975,7058 5934,7063 5895,7069 5858,7074 5824,7079 5791,7084 5761,7089 5732,7093 5706,7097 5681,7102 5659,7106 5643,7109 5628,7111 5615,7114 5602,7117 5591,7119 5581,7122 5573,7124 5559,7129 5554,7131 5548,7133 5541,7135 5531,7137 5518,7139 5504,7141 5487,7143 5468,7144 5447,7146 5423,7148 5397,7150 5366,7152 5333,7154 5297,7157 5257,7159 5216,7161 5171,7163 5124,7165 5074,7167 5022,7169 4966,7171 4909,7173 4851,7175 4792,7176 4732,7178 4671,7180 4609,7181 4546,7182 4482,7184 4418,7185 4352,7186 4292,7186 4232,7187 4171,7188 4110,7188 4047,7189 3984,7189 3920,7190 3855,7190 3789,7190 3723,7190 3659,7190 3599,7190 3543,7190 3492,7190 3446,7190 3404,7191 3366,7191 3333,7191 3304,7191 3280,7192 3274,7192 3264,7192 3259,7192 3250,7192 3243,7193 3235,7193 3228,7194 "/>
 <path fill="rgb(51,51,255)" stroke="none" d="M 11361,2712 L 11486,2962 11611,2712 11361,2712 Z "/>
 <path fill="none" stroke="rgb(51,51,255)" stroke-linejoin="round" d="M 11361,2712 L 11486,2962 11611,2712 11361,2712 Z "/>
 <path fill="rgb(51,51,255)" stroke="none" d="M 9479,5189 L 9604,5439 9729,5189 9479,5189 Z "/>
 <path fill="none" stroke="rgb(51,51,255)" stroke-linejoin="round" d="M 9479,5189 L 9604,5439 9729,5189 9479,5189 Z "/>
 <path fill="rgb(51,51,255)" stroke="none" d="M 8486,6274 L 8611,6524 8736,6274 8486,6274 Z "/>
 <path fill="none" stroke="rgb(51,51,255)" stroke-linejoin="round" d="M 8486,6274 L 8611,6524 8736,6274 8486,6274 Z "/>
 <path fill="rgb(51,51,255)" stroke="none" d="M 8434,6108 L 8559,6358 8684,6108 8434,6108 Z "/>
 <path fill="none" stroke="rgb(51,51,255)" stroke-linejoin="round" d="M 8434,6108 L 8559,6358 8684,6108 8434,6108 Z "/>
 <path fill="rgb(51,51,255)" stroke="none" d="M 8120,6190 L 8245,6440 8370,6190 8120,6190 Z "/>
 <path fill="none" stroke="rgb(51,51,255)" stroke-linejoin="round" d="M 8120,6190 L 8245,6440 8370,6190 8120,6190 Z "/>
 <path fill="rgb(51,51,255)" stroke="none" d="M 7442,6379 L 7567,6629 7692,6379 7442,6379 Z "/>
 <path fill="none" stroke="rgb(51,51,255)" stroke-linejoin="round" d="M 7442,6379 L 7567,6629 7692,6379 7442,6379 Z "/>
 <path fill="rgb(51,51,255)" stroke="none" d="M 7285,6333 L 7410,6583 7535,6333 7285,6333 Z "/>
 <path fill="none" stroke="rgb(51,51,255)" stroke-linejoin="round" d="M 7285,6333 L 7410,6583 7535,6333 7285,6333 Z "/>
 <path fill="rgb(51,51,255)" stroke="none" d="M 7076,6464 L 7201,6714 7326,6464 7076,6464 Z "/>
 <path fill="none" stroke="rgb(51,51,255)" stroke-linejoin="round" d="M 7076,6464 L 7201,6714 7326,6464 7076,6464 Z "/>
 <path fill="rgb(51,51,255)" stroke="none" d="M 6292,6975 L 6417,7225 6542,6975 6292,6975 Z "/>
 <path fill="none" stroke="rgb(51,51,255)" stroke-linejoin="round" d="M 6292,6975 L 6417,7225 6542,6975 6292,6975 Z "/>
 <path fill="rgb(51,51,255)" stroke="none" d="M 6161,6908 L 6286,7158 6411,6908 6161,6908 Z "/>
 <path fill="none" stroke="rgb(51,51,255)" stroke-linejoin="round" d="M 6161,6908 L 6286,7158 6411,6908 6161,6908 Z "/>
 <path fill="rgb(51,51,255)" stroke="none" d="M 5534,6981 L 5659,7231 5784,6981 5534,6981 Z "/>
 <path fill="none" stroke="rgb(51,51,255)" stroke-linejoin="round" d="M 5534,6981 L 5659,7231 5784,6981 5534,6981 Z "/>
 <path fill="rgb(51,51,255)" stroke="none" d="M 5272,7025 L 5397,7275 5522,7025 5272,7025 Z "/>
 <path fill="none" stroke="rgb(51,51,255)" stroke-linejoin="round" d="M 5272,7025 L 5397,7275 5522,7025 5272,7025 Z "/>
 <path fill="rgb(51,51,255)" stroke="none" d="M 4227,7061 L 4352,7311 4477,7061 4227,7061 Z "/>
 <path fill="none" stroke="rgb(51,51,255)" stroke-linejoin="round" d="M 4227,7061 L 4352,7311 4477,7061 4227,7061 Z "/>
 <path fill="rgb(51,51,255)" stroke="none" d="M 3155,7067 L 3280,7317 3405,7067 3155,7067 Z "/>
 <path fill="none" stroke="rgb(51,51,255)" stroke-linejoin="round" d="M 3155,7067 L 3280,7317 3405,7067 3155,7067 Z "/>
 <path fill="rgb(51,51,255)" stroke="none" d="M 3103,7069 L 3228,7319 3353,7069 3103,7069 Z "/>
 <path fill="none" stroke="rgb(51,51,255)" stroke-linejoin="round" d="M 3103,7069 L 3228,7319 3353,7069 3103,7069 Z "/>
 <path fill="none" stroke="rgb(255,77,77)" stroke-width="80" stroke-linejoin="round" d="M 10963,2112 L 10921,2111 10879,2111 10838,2114 10798,2119 10759,2125 10720,2134 10682,2144 10645,2156 10609,2170 10573,2187 10538,2205 10504,2225 10471,2247 10438,2271 10406,2297 10375,2325 10344,2354 10315,2386 10286,2420 10258,2455 10163,2599 10077,2767 10002,2961 9936,3179 9879,3422 9832,3690 9795,3983 9767,4301 9749,4643 9741,5011 9729,5372 9703,5694 9662,5978 9605,6222 9534,6428 9447,6596 9346,6724 9229,6814 9098,6865 8951,6878 8906,6874 8860,6867 8813,6858 8765,6845 8715,6828 8664,6809 8612,6786 8559,6761 8505,6732 8449,6700 8393,6668 8339,6639 8286,6613 8235,6590 8185,6571 8137,6554 8090,6541 8044,6531 8000,6523 7959,6519 7914,6518 7870,6521 7828,6528 7788,6538 7750,6552 7714,6569 7679,6591 7646,6616 7615,6645 7585,6677 7555,6711 7522,6743 7485,6774 7446,6804 7404,6832 7359,6859 7311,6884 7260,6908 7206,6930 7148,6951 7111,6964 7073,6976 7033,6987 6992,6998 6950,7008 6907,7018 6863,7027 6818,7036 6771,7044 6723,7052 6673,7059 6621,7066 6566,7073 6508,7079 6447,7086 6384,7092 6318,7098 6249,7104 6177,7110 6103,7116 6052,7120 5999,7123 5945,7127 5890,7130 5834,7134 5777,7137 5718,7140 5658,7144 5597,7147 5535,7150 5472,7153 5409,7156 5345,7158 5282,7161 5219,7164 5155,7166 5092,7168 5028,7171 4965,7173 4901,7175 4853,7176 4805,7177 4757,7179 4709,7180 4661,7181 4613,7182 4565,7183 4516,7184 4468,7185 4420,7186 4371,7187 4323,7188 4274,7189 4226,7189 4177,7190 4129,7190 4080,7191 4031,7191 3983,7192 3934,7192 "/>
 <path fill="rgb(255,77,77)" stroke="none" d="M 10838,2112 L 10963,2237 11088,2112 10963,1987 10838,2112 Z "/>
 <path fill="none" stroke="rgb(255,77,77)" stroke-linejoin="round" d="M 10838,2112 L 10963,2237 11088,2112 10963,1987 10838,2112 Z "/>
 <path fill="rgb(255,77,77)" stroke="none" d="M 10133,2455 L 10258,2580 10383,2455 10258,2330 10133,2455 Z "/>
 <path fill="none" stroke="rgb(255,77,77)" stroke-linejoin="round" d="M 10133,2455 L 10258,2580 10383,2455 10258,2330 10133,2455 Z "/>
 <path fill="rgb(255,77,77)" stroke="none" d="M 8826,6878 L 8951,7003 9076,6878 8951,6753 8826,6878 Z "/>
 <path fill="none" stroke="rgb(255,77,77)" stroke-linejoin="round" d="M 8826,6878 L 8951,7003 9076,6878 8951,6753 8826,6878 Z "/>
 <path fill="rgb(255,77,77)" stroke="none" d="M 7834,6519 L 7959,6644 8083,6519 7959,6394 7834,6519 Z "/>
 <path fill="none" stroke="rgb(255,77,77)" stroke-linejoin="round" d="M 7834,6519 L 7959,6644 8083,6519 7959,6394 7834,6519 Z "/>
 <path fill="rgb(255,77,77)" stroke="none" d="M 7023,6951 L 7148,7076 7273,6951 7148,6826 7023,6951 Z "/>
 <path fill="none" stroke="rgb(255,77,77)" stroke-linejoin="round" d="M 7023,6951 L 7148,7076 7273,6951 7148,6826 7023,6951 Z "/>
 <path fill="rgb(255,77,77)" stroke="none" d="M 5978,7116 L 6103,7241 6228,7116 6103,6991 5978,7116 Z "/>
 <path fill="none" stroke="rgb(255,77,77)" stroke-linejoin="round" d="M 5978,7116 L 6103,7241 6228,7116 6103,6991 5978,7116 Z "/>
 <path fill="rgb(255,77,77)" stroke="none" d="M 4776,7175 L 4901,7300 5026,7175 4901,7050 4776,7175 Z "/>
 <path fill="none" stroke="rgb(255,77,77)" stroke-linejoin="round" d="M 4776,7175 L 4901,7300 5026,7175 4901,7050 4776,7175 Z "/>
 <path fill="rgb(255,77,77)" stroke="none" d="M 3809,7192 L 3934,7317 4059,7192 3934,7067 3809,7192 Z "/>
 <path fill="none" stroke="rgb(255,77,77)" stroke-linejoin="round" d="M 3809,7192 L 3934,7317 4059,7192 3934,7067 3809,7192 Z "/>
 <path fill="rgb(0,0,0)" stroke="none" d="M 10953,7071 L 10953,7179 10848,7118 10838,7135 10944,7196 10838,7256 10848,7273 10953,7212 10953,7321 10973,7321 10973,7212 11078,7273 11088,7256 10983,7196 11088,7135 11078,7118 10973,7179 10973,7071 10953,7071 Z "/>
 <path fill="none" stroke="rgb(0,0,0)" stroke-linejoin="round" d="M 10953,7071 L 10953,7179 10848,7118 10838,7135 10944,7196 10838,7256 10848,7273 10953,7212 10953,7321 10973,7321 10973,7212 11078,7273 11088,7256 10983,7196 11088,7135 11078,7118 10973,7179 10973,7071 10953,7071 Z "/>
 <path fill="rgb(0,0,0)" stroke="none" d="M 10248,7071 L 10248,7179 10142,7118 10133,7135 10238,7196 10133,7256 10142,7273 10248,7212 10248,7321 10267,7321 10267,7212 10373,7273 10383,7256 10277,7196 10383,7135 10373,7118 10267,7179 10267,7071 10248,7071 Z "/>
 <path fill="none" stroke="rgb(0,0,0)" stroke-linejoin="round" d="M 10248,7071 L 10248,7179 10142,7118 10133,7135 10238,7196 10133,7256 10142,7273 10248,7212 10248,7321 10267,7321 10267,7212 10373,7273 10383,7256 10277,7196 10383,7135 10373,7118 10267,7179 10267,7071 10248,7071 Z "/>
 <path fill="rgb(0,0,0)" stroke="none" d="M 8941,7071 L 8941,7179 8836,7118 8826,7135 8931,7196 8826,7256 8836,7273 8941,7212 8941,7321 8961,7321 8961,7212 9066,7273 9076,7256 8970,7196 9076,7135 9066,7118 8961,7179 8961,7071 8941,7071 Z "/>
 <path fill="none" stroke="rgb(0,0,0)" stroke-linejoin="round" d="M 8941,7071 L 8941,7179 8836,7118 8826,7135 8931,7196 8826,7256 8836,7273 8941,7212 8941,7321 8961,7321 8961,7212 9066,7273 9076,7256 8970,7196 9076,7135 9066,7118 8961,7179 8961,7071 8941,7071 Z "/>
 <path fill="rgb(0,0,0)" stroke="none" d="M 7949,7071 L 7949,7179 7843,7118 7834,7135 7939,7196 7834,7256 7843,7273 7949,7212 7949,7321 7968,7321 7968,7212 8073,7273 8083,7256 7978,7196 8083,7135 8073,7118 7968,7179 7968,7071 7949,7071 Z "/>
 <path fill="none" stroke="rgb(0,0,0)" stroke-linejoin="round" d="M 7949,7071 L 7949,7179 7843,7118 7834,7135 7939,7196 7834,7256 7843,7273 7949,7212 7949,7321 7968,7321 7968,7212 8073,7273 8083,7256 7978,7196 8083,7135 8073,7118 7968,7179 7968,7071 7949,7071 Z "/>
 <path fill="rgb(0,0,0)" stroke="none" d="M 7139,7071 L 7139,7179 7033,7118 7023,7135 7129,7196 7023,7256 7033,7273 7139,7212 7139,7321 7158,7321 7158,7212 7264,7273 7273,7256 7168,7196 7273,7135 7264,7118 7158,7179 7158,7071 7139,7071 Z "/>
 <path fill="none" stroke="rgb(0,0,0)" stroke-linejoin="round" d="M 7139,7071 L 7139,7179 7033,7118 7023,7135 7129,7196 7023,7256 7033,7273 7139,7212 7139,7321 7158,7321 7158,7212 7264,7273 7273,7256 7168,7196 7273,7135 7264,7118 7158,7179 7158,7071 7139,7071 Z "/>
 <path fill="rgb(0,0,0)" stroke="none" d="M 6093,7071 L 6093,7179 5988,7118 5978,7135 6083,7196 5978,7256 5988,7273 6093,7212 6093,7321 6113,7321 6113,7212 6218,7273 6228,7256 6123,7196 6228,7135 6218,7118 6113,7179 6113,7071 6093,7071 Z "/>
 <path fill="none" stroke="rgb(0,0,0)" stroke-linejoin="round" d="M 6093,7071 L 6093,7179 5988,7118 5978,7135 6083,7196 5978,7256 5988,7273 6093,7212 6093,7321 6113,7321 6113,7212 6218,7273 6228,7256 6123,7196 6228,7135 6218,7118 6113,7179 6113,7071 6093,7071 Z "/>
 <path fill="rgb(0,0,0)" stroke="none" d="M 4891,7071 L 4891,7179 4786,7118 4776,7135 4881,7196 4776,7256 4786,7273 4891,7212 4891,7321 4911,7321 4911,7212 5016,7273 5026,7256 4920,7196 5026,7135 5016,7118 4911,7179 4911,7071 4891,7071 Z "/>
 <path fill="none" stroke="rgb(0,0,0)" stroke-linejoin="round" d="M 4891,7071 L 4891,7179 4786,7118 4776,7135 4881,7196 4776,7256 4786,7273 4891,7212 4891,7321 4911,7321 4911,7212 5016,7273 5026,7256 4920,7196 5026,7135 5016,7118 4911,7179 4911,7071 4891,7071 Z "/>
 <path fill="rgb(0,0,0)" stroke="none" d="M 3924,7071 L 3924,7179 3818,7118 3809,7135 3914,7196 3809,7256 3818,7273 3924,7212 3924,7321 3943,7321 3943,7212 4049,7273 4059,7256 3953,7196 4059,7135 4049,7118 3943,7179 3943,7071 3924,7071 Z "/>
 <path fill="none" stroke="rgb(0,0,0)" stroke-linejoin="round" d="M 3924,7071 L 3924,7179 3818,7118 3809,7135 3914,7196 3809,7256 3818,7273 3924,7212 3924,7321 3943,7321 3943,7212 4049,7273 4059,7256 3953,7196 4059,7135 4049,7118 3943,7179 3943,7071 3924,7071 Z "/>
 <path fill="rgb(0,0,0)" stroke="none" d="M 11476,7071 L 11476,7179 11371,7118 11361,7135 11466,7196 11361,7256 11371,7273 11476,7212 11476,7321 11496,7321 11496,7212 11601,7273 11611,7256 11505,7196 11611,7135 11601,7118 11496,7179 11496,7071 11476,7071 Z "/>
 <path fill="none" stroke="rgb(0,0,0)" stroke-linejoin="round" d="M 11476,7071 L 11476,7179 11371,7118 11361,7135 11466,7196 11361,7256 11371,7273 11476,7212 11476,7321 11496,7321 11496,7212 11601,7273 11611,7256 11505,7196 11611,7135 11601,7118 11496,7179 11496,7071 11476,7071 Z "/>
 <path fill="rgb(0,0,0)" stroke="none" d="M 9594,7071 L 9594,7179 9489,7118 9479,7135 9585,7196 9479,7256 9489,7273 9594,7212 9594,7321 9614,7321 9614,7212 9719,7273 9729,7256 9624,7196 9729,7135 9719,7118 9614,7179 9614,7071 9594,7071 Z "/>
 <path fill="none" stroke="rgb(0,0,0)" stroke-linejoin="round" d="M 9594,7071 L 9594,7179 9489,7118 9479,7135 9585,7196 9479,7256 9489,7273 9594,7212 9594,7321 9614,7321 9614,7212 9719,7273 9729,7256 9624,7196 9729,7135 9719,7118 9614,7179 9614,7071 9594,7071 Z "/>
 <path fill="rgb(0,0,0)" stroke="none" d="M 8601,7071 L 8601,7179 8496,7118 8486,7135 8591,7196 8486,7256 8496,7273 8601,7212 8601,7321 8621,7321 8621,7212 8726,7273 8736,7256 8631,7196 8736,7135 8726,7118 8621,7179 8621,7071 8601,7071 Z "/>
 <path fill="none" stroke="rgb(0,0,0)" stroke-linejoin="round" d="M 8601,7071 L 8601,7179 8496,7118 8486,7135 8591,7196 8486,7256 8496,7273 8601,7212 8601,7321 8621,7321 8621,7212 8726,7273 8736,7256 8631,7196 8736,7135 8726,7118 8621,7179 8621,7071 8601,7071 Z "/>
 <path fill="rgb(0,0,0)" stroke="none" d="M 8549,7071 L 8549,7179 8444,7118 8434,7135 8539,7196 8434,7256 8444,7273 8549,7212 8549,7321 8569,7321 8569,7212 8674,7273 8684,7256 8578,7196 8684,7135 8674,7118 8569,7179 8569,7071 8549,7071 Z "/>
 <path fill="none" stroke="rgb(0,0,0)" stroke-linejoin="round" d="M 8549,7071 L 8549,7179 8444,7118 8434,7135 8539,7196 8434,7256 8444,7273 8549,7212 8549,7321 8569,7321 8569,7212 8674,7273 8684,7256 8578,7196 8684,7135 8674,7118 8569,7179 8569,7071 8549,7071 Z "/>
 <path fill="rgb(0,0,0)" stroke="none" d="M 8235,7071 L 8235,7179 8130,7118 8120,7135 8226,7196 8120,7256 8130,7273 8235,7212 8235,7321 8255,7321 8255,7212 8360,7273 8370,7256 8265,7196 8370,7135 8360,7118 8255,7179 8255,7071 8235,7071 Z "/>
 <path fill="none" stroke="rgb(0,0,0)" stroke-linejoin="round" d="M 8235,7071 L 8235,7179 8130,7118 8120,7135 8226,7196 8120,7256 8130,7273 8235,7212 8235,7321 8255,7321 8255,7212 8360,7273 8370,7256 8265,7196 8370,7135 8360,7118 8255,7179 8255,7071 8235,7071 Z "/>
 <path fill="rgb(0,0,0)" stroke="none" d="M 7557,7071 L 7557,7179 7451,7118 7442,7135 7547,7196 7442,7256 7451,7273 7557,7212 7557,7321 7576,7321 7576,7212 7682,7273 7692,7256 7586,7196 7692,7135 7682,7118 7576,7179 7576,7071 7557,7071 Z "/>
 <path fill="none" stroke="rgb(0,0,0)" stroke-linejoin="round" d="M 7557,7071 L 7557,7179 7451,7118 7442,7135 7547,7196 7442,7256 7451,7273 7557,7212 7557,7321 7576,7321 7576,7212 7682,7273 7692,7256 7586,7196 7692,7135 7682,7118 7576,7179 7576,7071 7557,7071 Z "/>
 <path fill="rgb(0,0,0)" stroke="none" d="M 7400,7071 L 7400,7179 7295,7118 7285,7135 7390,7196 7285,7256 7295,7273 7400,7212 7400,7321 7420,7321 7420,7212 7525,7273 7535,7256 7429,7196 7535,7135 7525,7118 7420,7179 7420,7071 7400,7071 Z "/>
 <path fill="none" stroke="rgb(0,0,0)" stroke-linejoin="round" d="M 7400,7071 L 7400,7179 7295,7118 7285,7135 7390,7196 7285,7256 7295,7273 7400,7212 7400,7321 7420,7321 7420,7212 7525,7273 7535,7256 7429,7196 7535,7135 7525,7118 7420,7179 7420,7071 7400,7071 Z "/>
 <path fill="rgb(0,0,0)" stroke="none" d="M 7191,7071 L 7191,7179 7085,7118 7076,7135 7181,7196 7076,7256 7085,7273 7191,7212 7191,7321 7210,7321 7210,7212 7316,7273 7326,7256 7220,7196 7326,7135 7316,7118 7210,7179 7210,7071 7191,7071 Z "/>
 <path fill="none" stroke="rgb(0,0,0)" stroke-linejoin="round" d="M 7191,7071 L 7191,7179 7085,7118 7076,7135 7181,7196 7076,7256 7085,7273 7191,7212 7191,7321 7210,7321 7210,7212 7316,7273 7326,7256 7220,7196 7326,7135 7316,7118 7210,7179 7210,7071 7191,7071 Z "/>
 <path fill="rgb(0,0,0)" stroke="none" d="M 6407,7071 L 6407,7179 6301,7118 6292,7135 6397,7196 6292,7256 6301,7273 6407,7212 6407,7321 6426,7321 6426,7212 6532,7273 6542,7256 6436,7196 6542,7135 6532,7118 6426,7179 6426,7071 6407,7071 Z "/>
 <path fill="none" stroke="rgb(0,0,0)" stroke-linejoin="round" d="M 6407,7071 L 6407,7179 6301,7118 6292,7135 6397,7196 6292,7256 6301,7273 6407,7212 6407,7321 6426,7321 6426,7212 6532,7273 6542,7256 6436,7196 6542,7135 6532,7118 6426,7179 6426,7071 6407,7071 Z "/>
 <path fill="rgb(0,0,0)" stroke="none" d="M 6276,7071 L 6276,7179 6171,7118 6161,7135 6266,7196 6161,7256 6171,7273 6276,7212 6276,7321 6296,7321 6296,7212 6401,7273 6411,7256 6305,7196 6411,7135 6401,7118 6296,7179 6296,7071 6276,7071 Z "/>
 <path fill="none" stroke="rgb(0,0,0)" stroke-linejoin="round" d="M 6276,7071 L 6276,7179 6171,7118 6161,7135 6266,7196 6161,7256 6171,7273 6276,7212 6276,7321 6296,7321 6296,7212 6401,7273 6411,7256 6305,7196 6411,7135 6401,7118 6296,7179 6296,7071 6276,7071 Z "/>
 <path fill="rgb(0,0,0)" stroke="none" d="M 5649,7071 L 5649,7179 5543,7118 5534,7135 5639,7196 5534,7256 5543,7273 5649,7212 5649,7321 5668,7321 5668,7212 5774,7273 5784,7256 5678,7196 5784,7135 5774,7118 5668,7179 5668,7071 5649,7071 Z "/>
 <path fill="none" stroke="rgb(0,0,0)" stroke-linejoin="round" d="M 5649,7071 L 5649,7179 5543,7118 5534,7135 5639,7196 5534,7256 5543,7273 5649,7212 5649,7321 5668,7321 5668,7212 5774,7273 5784,7256 5678,7196 5784,7135 5774,7118 5668,7179 5668,7071 5649,7071 Z "/>
 <path fill="rgb(0,0,0)" stroke="none" d="M 5388,7071 L 5388,7179 5282,7118 5272,7135 5378,7196 5272,7256 5282,7273 5388,7212 5388,7321 5407,7321 5407,7212 5513,7273 5522,7256 5417,7196 5522,7135 5513,7118 5407,7179 5407,7071 5388,7071 Z "/>
 <path fill="none" stroke="rgb(0,0,0)" stroke-linejoin="round" d="M 5388,7071 L 5388,7179 5282,7118 5272,7135 5378,7196 5272,7256 5282,7273 5388,7212 5388,7321 5407,7321 5407,7212 5513,7273 5522,7256 5417,7196 5522,7135 5513,7118 5407,7179 5407,7071 5388,7071 Z "/>
 <path fill="rgb(0,0,0)" stroke="none" d="M 4342,7071 L 4342,7179 4237,7118 4227,7135 4332,7196 4227,7256 4237,7273 4342,7212 4342,7321 4362,7321 4362,7212 4467,7273 4477,7256 4371,7196 4477,7135 4467,7118 4362,7179 4362,7071 4342,7071 Z "/>
 <path fill="none" stroke="rgb(0,0,0)" stroke-linejoin="round" d="M 4342,7071 L 4342,7179 4237,7118 4227,7135 4332,7196 4227,7256 4237,7273 4342,7212 4342,7321 4362,7321 4362,7212 4467,7273 4477,7256 4371,7196 4477,7135 4467,7118 4362,7179 4362,7071 4342,7071 Z "/>
 <path fill="rgb(0,0,0)" stroke="none" d="M 3271,7071 L 3271,7179 3165,7118 3155,7135 3261,7196 3155,7256 3165,7273 3271,7212 3271,7321 3290,7321 3290,7212 3396,7273 3405,7256 3300,7196 3405,7135 3396,7118 3290,7179 3290,7071 3271,7071 Z "/>
 <path fill="none" stroke="rgb(0,0,0)" stroke-linejoin="round" d="M 3271,7071 L 3271,7179 3165,7118 3155,7135 3261,7196 3155,7256 3165,7273 3271,7212 3271,7321 3290,7321 3290,7212 3396,7273 3405,7256 3300,7196 3405,7135 3396,7118 3290,7179 3290,7071 3271,7071 Z "/>
 <path fill="rgb(0,0,0)" stroke="none" d="M 3218,7071 L 3218,7179 3113,7118 3103,7135 3209,7196 3103,7256 3113,7273 3218,7212 3218,7321 3238,7321 3238,7212 3343,7273 3353,7256 3248,7196 3353,7135 3343,7118 3238,7179 3238,7071 3218,7071 Z "/>
 <path fill="none" stroke="rgb(0,0,0)" stroke-linejoin="round" d="M 3218,7071 L 3218,7179 3113,7118 3103,7135 3209,7196 3103,7256 3113,7273 3218,7212 3218,7321 3238,7321 3238,7212 3343,7273 3353,7256 3248,7196 3353,7135 3343,7118 3238,7179 3238,7071 3218,7071 Z "/>
 <text class="SVGTextShape"><tspan class="TextParagraph"><tspan class="TextPosition" x="1760" y="7764"><tspan font-family="Liberation Sans, sans-serif" font-size="353px" font-weight="400" lengthAdjust="spacingAndGlyphs" textLength="794" fill="rgb(0,0,0)" stroke="none" style="white-space: pre">1995</tspan></tspan></tspan></text>
 <text class="SVGTextShape"><tspan class="TextParagraph"><tspan class="TextPosition" x="3328" y="7764"><tspan font-family="Liberation Sans, sans-serif" font-size="353px" font-weight="400" lengthAdjust="spacingAndGlyphs" textLength="794" fill="rgb(0,0,0)" stroke="none" style="white-space: pre">2000</tspan></tspan></tspan></text>
 <text class="SVGTextShape"><tspan class="TextParagraph"><tspan class="TextPosition" x="4896" y="7764"><tspan font-family="Liberation Sans, sans-serif" font-size="353px" font-weight="400" lengthAdjust="spacingAndGlyphs" textLength="794" fill="rgb(0,0,0)" stroke="none" style="white-space: pre">2005</tspan></tspan></tspan></text>
 <text class="SVGTextShape"><tspan class="TextParagraph"><tspan class="TextPosition" x="6464" y="7764"><tspan font-family="Liberation Sans, sans-serif" font-size="353px" font-weight="400" lengthAdjust="spacingAndGlyphs" textLength="794" fill="rgb(0,0,0)" stroke="none" style="white-space: pre">2010</tspan></tspan></tspan></text>
 <text class="SVGTextShape"><tspan class="TextParagraph"><tspan class="TextPosition" x="8031" y="7764"><tspan font-family="Liberation Sans, sans-serif" font-size="353px" font-weight="400" lengthAdjust="spacingAndGlyphs" textLength="794" fill="rgb(0,0,0)" stroke="none" style="white-space: pre">2015</tspan></tspan></tspan></text>
 <text class="SVGTextShape"><tspan class="TextParagraph"><tspan class="TextPosition" x="9599" y="7764"><tspan font-family="Liberation Sans, sans-serif" font-size="353px" font-weight="400" lengthAdjust="spacingAndGlyphs" textLength="794" fill="rgb(0,0,0)" stroke="none" style="white-space: pre">2020</tspan></tspan></tspan></text>
 <text class="SVGTextShape"><tspan class="TextParagraph"><tspan class="TextPosition" x="11167" y="7764"><tspan font-family="Liberation Sans, sans-serif" font-size="353px" font-weight="400" lengthAdjust="spacingAndGlyphs" textLength="794" fill="rgb(0,0,0)" stroke="none" style="white-space: pre">2025</tspan></tspan></tspan></text>
 <text class="SVGTextShape"><tspan class="TextParagraph"><tspan class="TextPosition" x="12736" y="7764"><tspan font-family="Liberation Sans, sans-serif" font-size="353px" font-weight="400" lengthAdjust="spacingAndGlyphs" textLength="794" fill="rgb(0,0,0)" stroke="none" style="white-space: pre">2030</tspan></tspan></tspan></text>
 <text class="SVGTextShape"><tspan class="TextParagraph"><tspan class="TextPosition" x="1708" y="7317"><tspan font-family="Liberation Sans, sans-serif" font-size="353px" font-weight="400" lengthAdjust="spacingAndGlyphs" textLength="198" fill="rgb(0,0,0)" stroke="none" style="white-space: pre">0</tspan></tspan></tspan></text>
 <text class="SVGTextShape"><tspan class="TextParagraph"><tspan class="TextPosition" x="1510" y="6681"><tspan font-family="Liberation Sans, sans-serif" font-size="353px" font-weight="400" lengthAdjust="spacingAndGlyphs" textLength="397" fill="rgb(0,0,0)" stroke="none" style="white-space: pre">50</tspan></tspan></tspan></text>
 <text class="SVGTextShape"><tspan class="TextParagraph"><tspan class="TextPosition" x="1311" y="6045"><tspan font-family="Liberation Sans, sans-serif" font-size="353px" font-weight="400" lengthAdjust="spacingAndGlyphs" textLength="595" fill="rgb(0,0,0)" stroke="none" style="white-space: pre">100</tspan></tspan></tspan></text>
 <text class="SVGTextShape"><tspan class="TextParagraph"><tspan class="TextPosition" x="1311" y="5410"><tspan font-family="Liberation Sans, sans-serif" font-size="353px" font-weight="400" lengthAdjust="spacingAndGlyphs" textLength="595" fill="rgb(0,0,0)" stroke="none" style="white-space: pre">150</tspan></tspan></tspan></text>
 <text class="SVGTextShape"><tspan class="TextParagraph"><tspan class="TextPosition" x="1311" y="4774"><tspan font-family="Liberation Sans, sans-serif" font-size="353px" font-weight="400" lengthAdjust="spacingAndGlyphs" textLength="595" fill="rgb(0,0,0)" stroke="none" style="white-space: pre">200</tspan></tspan></tspan></text>
 <text class="SVGTextShape"><tspan class="TextParagraph"><tspan class="TextPosition" x="1311" y="4140"><tspan font-family="Liberation Sans, sans-serif" font-size="353px" font-weight="400" lengthAdjust="spacingAndGlyphs" textLength="595" fill="rgb(0,0,0)" stroke="none" style="white-space: pre">250</tspan></tspan></tspan></text>
 <text class="SVGTextShape"><tspan class="TextParagraph"><tspan class="TextPosition" x="1311" y="3504"><tspan font-family="Liberation Sans, sans-serif" font-size="353px" font-weight="400" lengthAdjust="spacingAndGlyphs" textLength="595" fill="rgb(0,0,0)" stroke="none" style="white-space: pre">300</tspan></tspan></tspan></text>
 <text class="SVGTextShape"><tspan class="TextParagraph"><tspan class="TextPosition" x="1311" y="2869"><tspan font-family="Liberation Sans, sans-serif" font-size="353px" font-weight="400" lengthAdjust="spacingAndGlyphs" textLength="595" fill="rgb(0,0,0)" stroke="none" style="white-space: pre">350</tspan></tspan></tspan></text>
 <text class="SVGTextShape"><tspan class="TextParagraph"><tspan class="TextPosition" x="1311" y="2233"><tspan font-family="Liberation Sans, sans-serif" font-size="353px" font-weight="400" lengthAdjust="spacingAndGlyphs" textLength="595" fill="rgb(0,0,0)" stroke="none" style="white-space: pre">400</tspan></tspan></tspan></text>
 <text class="SVGTextShape"><tspan class="TextParagraph"><tspan class="TextPosition" x="1311" y="1598"><tspan font-family="Liberation Sans, sans-serif" font-size="353px" font-weight="400" lengthAdjust="spacingAndGlyphs" textLength="595" fill="rgb(0,0,0)" stroke="none" style="white-space: pre">450</tspan></tspan></tspan></text>
 <text class="SVGTextShape" transform="rotate(-90 11084 5441)"><tspan class="TextParagraph"><tspan class="TextPosition" x="11084" y="5441"><tspan font-family="Liberation Sans, sans-serif" font-size="353px" font-weight="400" lengthAdjust="spacingAndGlyphs" textLength="2899" fill="rgb(0,0,0)" stroke="none" style="white-space: pre">Ryzen 9 7950X3D</tspan></tspan></tspan></text>
 <text class="SVGTextShape" transform="rotate(-90 10379 5441)"><tspan class="TextParagraph"><tspan class="TextPosition" x="10379" y="5441"><tspan font-family="Liberation Sans, sans-serif" font-size="353px" font-weight="400" lengthAdjust="spacingAndGlyphs" textLength="2442" fill="rgb(0,0,0)" stroke="none" style="white-space: pre">Ryzen 9 5950X</tspan></tspan></tspan></text>
 <text class="SVGTextShape" transform="rotate(-90 9103 5822)"><tspan class="TextParagraph"><tspan class="TextPosition" x="9103" y="5822"><tspan font-family="Liberation Sans, sans-serif" font-size="353px" font-weight="400" lengthAdjust="spacingAndGlyphs" textLength="1549" fill="rgb(0,0,0)" stroke="none" style="white-space: pre">A12-9800</tspan></tspan></tspan></text>
 <text class="SVGTextShape" transform="rotate(-90 8079 6204)"><tspan class="TextParagraph"><tspan class="TextPosition" x="8079" y="6204"><tspan font-family="Liberation Sans, sans-serif" font-size="353px" font-weight="400" lengthAdjust="spacingAndGlyphs" textLength="1369" fill="rgb(0,0,0)" stroke="none" style="white-space: pre">FX-9590</tspan></tspan></tspan></text>
 <text class="SVGTextShape" transform="rotate(-90 7081 6824)"><tspan class="TextParagraph"><tspan class="TextPosition" x="7081" y="6824"><tspan font-family="Liberation Sans, sans-serif" font-size="353px" font-weight="400" lengthAdjust="spacingAndGlyphs" textLength="3276" fill="rgb(0,0,0)" stroke="none" style="white-space: pre">Phenom II X6 1100T</tspan></tspan></tspan></text>
 <text class="SVGTextShape" transform="rotate(-90 6161 6925)"><tspan class="TextParagraph"><tspan class="TextPosition" x="6161" y="6925"><tspan font-family="Liberation Sans, sans-serif" font-size="353px" font-weight="400" lengthAdjust="spacingAndGlyphs" textLength="3147" fill="rgb(0,0,0)" stroke="none" style="white-space: pre">Athlon 64 X2 6400+</tspan></tspan></tspan></text>
 <text class="SVGTextShape" transform="rotate(-90 5022 6984)"><tspan class="TextParagraph"><tspan class="TextPosition" x="5022" y="6984"><tspan font-family="Liberation Sans, sans-serif" font-size="353px" font-weight="400" lengthAdjust="spacingAndGlyphs" textLength="2690" fill="rgb(0,0,0)" stroke="none" style="white-space: pre">Athlon XP 3200+</tspan></tspan></tspan></text>
 <text class="SVGTextShape" transform="rotate(-90 4055 7081)"><tspan class="TextParagraph"><tspan class="TextPosition" x="4055" y="7081"><tspan font-family="Liberation Sans, sans-serif" font-size="353px" font-weight="400" lengthAdjust="spacingAndGlyphs" textLength="1995" fill="rgb(0,0,0)" stroke="none" style="white-space: pre">K6-IIIE+ 550</tspan></tspan></tspan></text>
 <text class="SVGTextShape" transform="rotate(-90 11607 5060)"><tspan class="TextParagraph"><tspan class="TextPosition" x="11607" y="5060"><tspan font-family="Liberation Sans, sans-serif" font-size="353px" font-weight="400" lengthAdjust="spacingAndGlyphs" textLength="834" fill="rgb(0,0,0)" stroke="none" style="white-space: pre">285K</tspan></tspan></tspan></text>
 <text class="SVGTextShape" transform="rotate(-90 9725 5060)"><tspan class="TextParagraph"><tspan class="TextPosition" x="9725" y="5060"><tspan font-family="Liberation Sans, sans-serif" font-size="353px" font-weight="400" lengthAdjust="spacingAndGlyphs" textLength="1429" fill="rgb(0,0,0)" stroke="none" style="white-space: pre">i9-9900K</tspan></tspan></tspan></text>
 <text class="SVGTextShape" transform="rotate(-90 8889 6077)"><tspan class="TextParagraph"><tspan class="TextPosition" x="8889" y="6077"><tspan font-family="Liberation Sans, sans-serif" font-size="353px" font-weight="400" lengthAdjust="spacingAndGlyphs" textLength="1429" fill="rgb(0,0,0)" stroke="none" style="white-space: pre">i7-6700K</tspan></tspan></tspan></text>
 <text class="SVGTextShape" transform="rotate(-90 8680 5950)"><tspan class="TextParagraph"><tspan class="TextPosition" x="8680" y="5950"><tspan font-family="Liberation Sans, sans-serif" font-size="353px" font-weight="400" lengthAdjust="spacingAndGlyphs" textLength="1449" fill="rgb(0,0,0)" stroke="none" style="white-space: pre">i7-5775C</tspan></tspan></tspan></text>
 <text class="SVGTextShape" transform="rotate(-90 8366 6013)"><tspan class="TextParagraph"><tspan class="TextPosition" x="8366" y="6013"><tspan font-family="Liberation Sans, sans-serif" font-size="353px" font-weight="400" lengthAdjust="spacingAndGlyphs" textLength="1429" fill="rgb(0,0,0)" stroke="none" style="white-space: pre">i7-4790K</tspan></tspan></tspan></text>
 <text class="SVGTextShape" transform="rotate(-90 7750 6267)"><tspan class="TextParagraph"><tspan class="TextPosition" x="7750" y="6267"><tspan font-family="Liberation Sans, sans-serif" font-size="353px" font-weight="400" lengthAdjust="spacingAndGlyphs" textLength="1429" fill="rgb(0,0,0)" stroke="none" style="white-space: pre">i7-3770K</tspan></tspan></tspan></text>
 <text class="SVGTextShape" transform="rotate(-90 7531 6204)"><tspan class="TextParagraph"><tspan class="TextPosition" x="7531" y="6204"><tspan font-family="Liberation Sans, sans-serif" font-size="353px" font-weight="400" lengthAdjust="spacingAndGlyphs" textLength="1429" fill="rgb(0,0,0)" stroke="none" style="white-space: pre">i7-2700K</tspan></tspan></tspan></text>
 <text class="SVGTextShape" transform="rotate(-90 7322 6398)"><tspan class="TextParagraph"><tspan class="TextPosition" x="7322" y="6398"><tspan font-family="Liberation Sans, sans-serif" font-size="353px" font-weight="400" lengthAdjust="spacingAndGlyphs" textLength="1231" fill="rgb(0,0,0)" stroke="none" style="white-space: pre">i7-990X</tspan></tspan></tspan></text>
 <text class="SVGTextShape" transform="rotate(-90 6632 6909)"><tspan class="TextParagraph"><tspan class="TextPosition" x="6632" y="6909"><tspan font-family="Liberation Sans, sans-serif" font-size="353px" font-weight="400" lengthAdjust="spacingAndGlyphs" textLength="3335" fill="rgb(0,0,0)" stroke="none" style="white-space: pre">Core 2 Duo 3.33GHz</tspan></tspan></tspan></text>
 <text class="SVGTextShape" transform="rotate(-90 6407 6842)"><tspan class="TextParagraph"><tspan class="TextPosition" x="6407" y="6842"><tspan font-family="Liberation Sans, sans-serif" font-size="353px" font-weight="400" lengthAdjust="spacingAndGlyphs" textLength="3355" fill="rgb(0,0,0)" stroke="none" style="white-space: pre">Core 2 Quad 3.2GHz</tspan></tspan></tspan></text>
 <text class="SVGTextShape" transform="rotate(-90 5780 6865)"><tspan class="TextParagraph"><tspan class="TextPosition" x="5780" y="6865"><tspan font-family="Liberation Sans, sans-serif" font-size="353px" font-weight="400" lengthAdjust="spacingAndGlyphs" textLength="3176" fill="rgb(0,0,0)" stroke="none" style="white-space: pre">Pentium D 3.73GHz</tspan></tspan></tspan></text>
 <text class="SVGTextShape" transform="rotate(-90 5518 6903)"><tspan class="TextParagraph"><tspan class="TextPosition" x="5518" y="6903"><tspan font-family="Liberation Sans, sans-serif" font-size="353px" font-weight="400" lengthAdjust="spacingAndGlyphs" textLength="3493" fill="rgb(0,0,0)" stroke="none" style="white-space: pre">Pentium 4 HT 3.8GHz</tspan></tspan></tspan></text>
 <text class="SVGTextShape" transform="rotate(-90 4473 7081)"><tspan class="TextParagraph"><tspan class="TextPosition" x="4473" y="7081"><tspan font-family="Liberation Sans, sans-serif" font-size="353px" font-weight="400" lengthAdjust="spacingAndGlyphs" textLength="2918" fill="rgb(0,0,0)" stroke="none" style="white-space: pre">Pentium 3 1.4GHz</tspan></tspan></tspan></text>
 <text class="SVGTextShape" transform="rotate(-90 3527 7081)"><tspan class="TextParagraph"><tspan class="TextPosition" x="3527" y="7081"><tspan font-family="Liberation Sans, sans-serif" font-size="353px" font-weight="400" lengthAdjust="spacingAndGlyphs" textLength="2303" fill="rgb(0,0,0)" stroke="none" style="white-space: pre">Pentium II 450</tspan></tspan></tspan></text>
 <text class="SVGTextShape" transform="rotate(-90 3224 7081)"><tspan class="TextParagraph"><tspan class="TextPosition" x="3224" y="7081"><tspan font-family="Liberation Sans, sans-serif" font-size="353px" font-weight="400" lengthAdjust="spacingAndGlyphs" textLength="2938" fill="rgb(0,0,0)" stroke="none" style="white-space: pre">Pentium MMX 233</tspan></tspan></tspan></text>
 <text class="SVGTextShape"><tspan class="TextParagraph"><tspan class="TextPosition" x="4492" y="869"><tspan font-family="Liberation Sans, sans-serif" font-size="459px" font-weight="400" lengthAdjust="spacingAndGlyphs" textLength="6999" fill="rgb(0,0,0)" stroke="none" style="white-space: pre">CPU Performance (multithreaded)</tspan></tspan></tspan></text>
 <path fill="none" stroke="rgb(255,77,77)" stroke-width="80" stroke-linejoin="round" d="M 13967,4242 L 14767,4242 "/>
 <path fill="rgb(255,77,77)" stroke="none" d="M 14261,4242 L 14367,4348 14472,4242 14367,4137 14261,4242 Z "/>
 <path fill="none" stroke="rgb(255,77,77)" stroke-linejoin="round" d="M 14261,4242 L 14367,4348 14472,4242 14367,4137 14261,4242 Z "/>
 <path fill="none" stroke="rgb(51,51,255)" stroke-width="80" stroke-linejoin="round" d="M 13967,4739 L 14767,4739 "/>
 <path fill="rgb(51,51,255)" stroke="none" d="M 14261,4634 L 14367,4845 14472,4634 14261,4634 Z "/>
 <path fill="none" stroke="rgb(51,51,255)" stroke-linejoin="round" d="M 14261,4634 L 14367,4845 14472,4634 14261,4634 Z "/>
 <text class="SVGTextShape"><tspan class="TextParagraph"><tspan class="TextPosition" x="14867" y="4362"><tspan font-family="Liberation Sans, sans-serif" font-size="353px" font-weight="400" lengthAdjust="spacingAndGlyphs" textLength="793" fill="rgb(0,0,0)" stroke="none" style="white-space: pre">AMD</tspan></tspan></tspan></text>
 <text class="SVGTextShape"><tspan class="TextParagraph"><tspan class="TextPosition" x="14867" y="4859"><tspan font-family="Liberation Sans, sans-serif" font-size="353px" font-weight="400" lengthAdjust="spacingAndGlyphs" textLength="675" fill="rgb(0,0,0)" stroke="none" style="white-space: pre">Intel</tspan></tspan></tspan></text>
 <text class="SVGTextShape"><tspan class="TextParagraph"><tspan class="TextPosition" x="6072" y="8411"><tspan font-family="Liberation Sans, sans-serif" font-size="318px" font-weight="400" lengthAdjust="spacingAndGlyphs" textLength="2700" fill="rgb(0,0,0)" stroke="none" style="white-space: pre">year of introduction</tspan></tspan></tspan></text>
 <text class="SVGTextShape" transform="rotate(-90 831 5205)"><tspan class="TextParagraph"><tspan class="TextPosition" x="831" y="5205"><tspan font-family="Liberation Sans, sans-serif" font-size="318px" font-weight="400" lengthAdjust="spacingAndGlyphs" textLength="1287" fill="rgb(0,0,0)" stroke="none" style="white-space: pre">GFLOPS</tspan></tspan></tspan></text>
</svg>