<?xml version="1.0" encoding="UTF-8"?>
<!DOCTYPE svg PUBLIC "-//W3C//DTD SVG 1.1//EN" "http://www.w3.org/Graphics/SVG/1.1/DTD/svg11.dtd">
<svg width="160mm" height="90mm" viewBox="0 0 16000 9000" version="1.1" xmlns="http://www.w3.org/2000/svg" xmlns:xlink="http://www.w3.org/1999/xlink" stroke-width="28.222" stroke-linejoin="round" xml:space="preserve">
 <path fill="rgb(255,255,255)" stroke="none" d="M 7991,8991 L -7,8991 -7,-7 15989,-7 15989,8991 7991,8991 Z "/>
 <path fill="none" stroke="rgb(179,179,179)" stroke-linejoin="round" d="M 7546,7197 L 1958,7197 1958,1478 13133,1478 13133,7197 7546,7197 Z "/>
 <path fill="none" stroke="rgb(179,179,179)" stroke-linejoin="round" d="M 13133,7196 L 1958,7196 "/>
 <path fill="none" stroke="rgb(179,179,179)" stroke-linejoin="round" d="M 13133,6560 L 1958,6560 "/>
 <path fill="none" stroke="rgb(179,179,179)" stroke-linejoin="round" d="M 13133,5924 L 1958,5924 "/>
 <path fill="none" stroke="rgb(179,179,179)" stroke-linejoin="round" d="M 13133,5289 L 1958,5289 "/>
 <path fill="none" stroke="rgb(179,179,179)" stroke-linejoin="round" d="M 13133,4653 L 1958,4653 "/>
 <path fill="none" stroke="rgb(179,179,179)" stroke-linejoin="round" d="M 13133,4019 L 1958,4019 "/>
 <path fill="none" stroke="rgb(179,179,179)" stroke-linejoin="round" d="M 13133,3383 L 1958,3383 "/>
 <path fill="none" stroke="rgb(179,179,179)" stroke-linejoin="round" d="M 13133,2748 L 1958,2748 "/>
 <path fill="none" stroke="rgb(179,179,179)" stroke-linejoin="round" d="M 13133,2112 L 1958,2112 "/>
 <path fill="none" stroke="rgb(179,179,179)" stroke-linejoin="round" d="M 13133,1477 L 1958,1477 "/>
 <path fill="none" stroke="rgb(179,179,179)" stroke-linejoin="round" d="M 1958,7346 L 1958,7196 "/>
 <path fill="none" stroke="rgb(179,179,179)" stroke-linejoin="round" d="M 1958,7346 L 1958,7196 "/>
 <path fill="none" stroke="rgb(179,179,179)" stroke-linejoin="round" d="M 3554,7346 L 3554,7196 "/>
 <path fill="none" stroke="rgb(179,179,179)" stroke-linejoin="round" d="M 3554,7346 L 3554,7196 "/>
 <path fill="none" stroke="rgb(179,179,179)" stroke-linejoin="round" d="M 5151,7346 L 5151,7196 "/>
 <path fill="none" stroke="rgb(179,179,179)" stroke-linejoin="round" d="M 5151,7346 L 5151,7196 "/>
 <path fill="none" stroke="rgb(179,179,179)" stroke-linejoin="round" d="M 6747,7346 L 6747,7196 "/>
 <path fill="none" stroke="rgb(179,179,179)" stroke-linejoin="round" d="M 6747,7346 L 6747,7196 "/>
 <path fill="none" stroke="rgb(179,179,179)" stroke-linejoin="round" d="M 8343,7346 L 8343,7196 "/>
 <path fill="none" stroke="rgb(179,179,179)" stroke-linejoin="round" d="M 8343,7346 L 8343,7196 "/>
 <path fill="none" stroke="rgb(179,179,179)" stroke-linejoin="round" d="M 9939,7346 L 9939,7196 "/>
 <path fill="none" stroke="rgb(179,179,179)" stroke-linejoin="round" d="M 9939,7346 L 9939,7196 "/>
 <path fill="none" stroke="rgb(179,179,179)" stroke-linejoin="round" d="M 11536,7346 L 11536,7196 "/>
 <path fill="none" stroke="rgb(179,179,179)" stroke-linejoin="round" d="M 11536,7346 L 11536,7196 "/>
 <path fill="none" stroke="rgb(179,179,179)" stroke-linejoin="round" d="M 13133,7346 L 13133,7196 "/>
 <path fill="none" stroke="rgb(179,179,179)" stroke-linejoin="round" d="M 13133,7346 L 13133,7196 "/>
 <path fill="none" stroke="rgb(179,179,179)" stroke-linejoin="round" d="M 1958,7196 L 13133,7196 "/>
 <path fill="none" stroke="rgb(179,179,179)" stroke-linejoin="round" d="M 1808,7196 L 1958,7196 "/>
 <path fill="none" stroke="rgb(179,179,179)" stroke-linejoin="round" d="M 1808,7196 L 1958,7196 "/>
 <path fill="none" stroke="rgb(179,179,179)" stroke-linejoin="round" d="M 1808,6560 L 1958,6560 "/>
 <path fill="none" stroke="rgb(179,179,179)" stroke-linejoin="round" d="M 1808,6560 L 1958,6560 "/>
 <path fill="none" stroke="rgb(179,179,179)" stroke-linejoin="round" d="M 1808,5924 L 1958,5924 "/>
 <path fill="none" stroke="rgb(179,179,179)" stroke-linejoin="round" d="M 1808,5924 L 1958,5924 "/>
 <path fill="none" stroke="rgb(179,179,179)" stroke-linejoin="round" d="M 1808,5289 L 1958,5289 "/>
 <path fill="none" stroke="rgb(179,179,179)" stroke-linejoin="round" d="M 1808,5289 L 1958,5289 "/>
 <path fill="none" stroke="rgb(179,179,179)" stroke-linejoin="round" d="M 1808,4653 L 1958,4653 "/>
 <path fill="none" stroke="rgb(179,179,179)" stroke-linejoin="round" d="M 1808,4653 L 1958,4653 "/>
 <path fill="none" stroke="rgb(179,179,179)" stroke-linejoin="round" d="M 1808,4019 L 1958,4019 "/>
 <path fill="none" stroke="rgb(179,179,179)" stroke-linejoin="round" d="M 1808,4019 L 1958,4019 "/>
 <path fill="none" stroke="rgb(179,179,179)" stroke-linejoin="round" d="M 1808,3383 L 1958,3383 "/>
 <path fill="none" stroke="rgb(179,179,179)" stroke-linejoin="round" d="M 1808,3383 L 1958,3383 "/>
 <path fill="none" stroke="rgb(179,179,179)" stroke-linejoin="round" d="M 1808,2748 L 1958,2748 "/>
 <path fill="none" stroke="rgb(179,179,179)" stroke-linejoin="round" d="M 1808,2748 L 1958,2748 "/>
 <path fill="none" stroke="rgb(179,179,179)" stroke-linejoin="round" d="M 1808,2112 L 1958,2112 "/>
 <path fill="none" stroke="rgb(179,179,179)" stroke-linejoin="round" d="M 1808,2112 L 1958,2112 "/>
 <path fill="none" stroke="rgb(179,179,179)" stroke-linejoin="round" d="M 1808,1477 L 1958,1477 "/>
 <path fill="none" stroke="rgb(179,179,179)" stroke-linejoin="round" d="M 1808,1477 L 1958,1477 "/>
 <path fill="none" stroke="rgb(179,179,179)" stroke-linejoin="round" d="M 1958,7196 L 1958,1477 "/>
 <path fill="none" stroke="rgb(51,51,255)" stroke-width="80" stroke-linejoin="round" d="M 11456,2398 L 11357,2494 11258,2588 11160,2681 11062,2772 10964,2862 10867,2951 10770,3038 10673,3124 10577,3208 10481,3291 10385,3372 10290,3452 10195,3531 10100,3608 10006,3684 9912,3758 9819,3831 9726,3902 9633,3972 9540,4041 9478,4086 9417,4131 9355,4175 9294,4218 9232,4261 9171,4303 9110,4344 9050,4385 8989,4425 8929,4464 8870,4500 8816,4530 8766,4554 8720,4573 8678,4586 8640,4593 8606,4593 8576,4589 8551,4578 8529,4561 8517,4547 8507,4531 8499,4512 8492,4492 8487,4469 8484,4443 8483,4414 8483,4383 8484,4350 8488,4314 8492,4279 8495,4246 8496,4217 8497,4190 8496,4167 8494,4146 8491,4129 8487,4115 8482,4103 8476,4095 8469,4090 8460,4087 8451,4088 8441,4091 8429,4098 8417,4107 8403,4119 8388,4134 8372,4152 8356,4173 8338,4196 8320,4219 8301,4242 8282,4266 8262,4290 8242,4314 8221,4339 8200,4364 8179,4390 8157,4416 8124,4454 8091,4492 8057,4530 8022,4570 7986,4611 7949,4652 7911,4695 7871,4738 7831,4782 7790,4826 7749,4869 7710,4906 7673,4937 7638,4963 7604,4984 7573,4999 7543,5009 7516,5013 7490,5012 7466,5006 7453,5000 7440,4992 7429,4982 7418,4971 7407,4957 7397,4942 7388,4925 7379,4907 7372,4886 7364,4864 7357,4842 7351,4822 7344,4805 7338,4790 7332,4778 7326,4768 7321,4760 7316,4755 7306,4752 7298,4758 7290,4773 7284,4797 7278,4830 7273,4873 7270,4924 7267,4985 7265,5054 7264,5133 7264,5221 7263,5310 7258,5394 7250,5473 7238,5546 7223,5613 7204,5675 7182,5731 7156,5782 7126,5827 7093,5867 7063,5896 7030,5922 6994,5943 6956,5961 6915,5974 6872,5984 6827,5990 6779,5991 6728,5989 6675,5983 6623,5976 6573,5971 6527,5968 6484,5966 6444,5966 6408,5968 6375,5972 6345,5978 6318,5985 6295,5994 6284,6000 6274,6006 6265,6012 6256,6020 6249,6027 6242,6035 6237,6044 6232,6053 6228,6062 6225,6072 6222,6083 6219,6093 6214,6103 6209,6113 6203,6123 6197,6133 6189,6143 6181,6153 6172,6163 6162,6172 6143,6189 6121,6206 6097,6222 6071,6239 6042,6255 6011,6271 5978,6286 5942,6302 5904,6317 5864,6332 5823,6347 5783,6360 5745,6371 5709,6382 5674,6391 5641,6399 5609,6405 5579,6411 5550,6414 5523,6417 5507,6418 5491,6418 5477,6418 5462,6418 5448,6416 5435,6415 5423,6413 5411,6410 5399,6407 5389,6403 5378,6400 5367,6397 5355,6395 5342,6393 5330,6393 5316,6393 5302,6394 5288,6396 5273,6398 5257,6401 5222,6410 5185,6423 5146,6438 5104,6457 5059,6480 5012,6506 4963,6535 4912,6567 4858,6603 4801,6642 4743,6682 4685,6720 4625,6756 4565,6789 4505,6821 4444,6851 4382,6878 4320,6904 4256,6927 4193,6949 4131,6968 4069,6984 4006,6999 3942,7012 3878,7024 3814,7033 3748,7040 3682,7046 3616,7050 3549,7052 3484,7053 3423,7055 3367,7058 3316,7062 3269,7067 3226,7072 3188,7079 3155,7086 3126,7094 3102,7103 3096,7106 3090,7109 3085,7111 3075,7117 3071,7120 3067,7123 3064,7126 3061,7129 3058,7133 3053,7139 3051,7143 3050,7146 3048,7153 3048,7157 3048,7161 3048,7165 "/>
 <path fill="rgb(51,51,255)" stroke="none" d="M 11331,2273 L 11456,2523 11581,2273 11331,2273 Z "/>
 <path fill="none" stroke="rgb(51,51,255)" stroke-linejoin="round" d="M 11331,2273 L 11456,2523 11581,2273 11331,2273 Z "/>
 <path fill="rgb(51,51,255)" stroke="none" d="M 9415,3916 L 9540,4166 9665,3916 9415,3916 Z "/>
 <path fill="none" stroke="rgb(51,51,255)" stroke-linejoin="round" d="M 9415,3916 L 9540,4166 9665,3916 9415,3916 Z "/>
 <path fill="rgb(51,51,255)" stroke="none" d="M 8404,4437 L 8529,4686 8654,4437 8404,4437 Z "/>
 <path fill="none" stroke="rgb(51,51,255)" stroke-linejoin="round" d="M 8404,4437 L 8529,4686 8654,4437 8404,4437 Z "/>
 <path fill="rgb(51,51,255)" stroke="none" d="M 8351,3970 L 8476,4220 8601,3970 8351,3970 Z "/>
 <path fill="none" stroke="rgb(51,51,255)" stroke-linejoin="round" d="M 8351,3970 L 8476,4220 8601,3970 8351,3970 Z "/>
 <path fill="rgb(51,51,255)" stroke="none" d="M 8032,4291 L 8157,4540 8282,4291 8032,4291 Z "/>
 <path fill="none" stroke="rgb(51,51,255)" stroke-linejoin="round" d="M 8032,4291 L 8157,4540 8282,4291 8032,4291 Z "/>
 <path fill="rgb(51,51,255)" stroke="none" d="M 7341,4881 L 7466,5131 7591,4881 7341,4881 Z "/>
 <path fill="none" stroke="rgb(51,51,255)" stroke-linejoin="round" d="M 7341,4881 L 7466,5131 7591,4881 7341,4881 Z "/>
 <path fill="rgb(51,51,255)" stroke="none" d="M 7181,4627 L 7306,4877 7431,4627 7181,4627 Z "/>
 <path fill="none" stroke="rgb(51,51,255)" stroke-linejoin="round" d="M 7181,4627 L 7306,4877 7431,4627 7181,4627 Z "/>
 <path fill="rgb(51,51,255)" stroke="none" d="M 6968,5742 L 7093,5992 7218,5742 6968,5742 Z "/>
 <path fill="none" stroke="rgb(51,51,255)" stroke-linejoin="round" d="M 6968,5742 L 7093,5992 7218,5742 6968,5742 Z "/>
 <path fill="rgb(51,51,255)" stroke="none" d="M 6170,5869 L 6295,6119 6420,5869 6170,5869 Z "/>
 <path fill="none" stroke="rgb(51,51,255)" stroke-linejoin="round" d="M 6170,5869 L 6295,6119 6420,5869 6170,5869 Z "/>
 <path fill="rgb(51,51,255)" stroke="none" d="M 6037,6047 L 6162,6297 6287,6047 6037,6047 Z "/>
 <path fill="none" stroke="rgb(51,51,255)" stroke-linejoin="round" d="M 6037,6047 L 6162,6297 6287,6047 6037,6047 Z "/>
 <path fill="rgb(51,51,255)" stroke="none" d="M 5398,6292 L 5523,6542 5648,6292 5398,6292 Z "/>
 <path fill="none" stroke="rgb(51,51,255)" stroke-linejoin="round" d="M 5398,6292 L 5523,6542 5648,6292 5398,6292 Z "/>
 <path fill="rgb(51,51,255)" stroke="none" d="M 5132,6276 L 5257,6526 5382,6276 5132,6276 Z "/>
 <path fill="none" stroke="rgb(51,51,255)" stroke-linejoin="round" d="M 5132,6276 L 5257,6526 5382,6276 5132,6276 Z "/>
 <path fill="rgb(51,51,255)" stroke="none" d="M 4068,6824 L 4193,7074 4318,6824 4068,6824 Z "/>
 <path fill="none" stroke="rgb(51,51,255)" stroke-linejoin="round" d="M 4068,6824 L 4193,7074 4318,6824 4068,6824 Z "/>
 <path fill="rgb(51,51,255)" stroke="none" d="M 2977,6978 L 3102,7228 3227,6978 2977,6978 Z "/>
 <path fill="none" stroke="rgb(51,51,255)" stroke-linejoin="round" d="M 2977,6978 L 3102,7228 3227,6978 2977,6978 Z "/>
 <path fill="rgb(51,51,255)" stroke="none" d="M 2923,7043 L 3048,7293 3173,7043 2923,7043 Z "/>
 <path fill="none" stroke="rgb(51,51,255)" stroke-linejoin="round" d="M 2923,7043 L 3048,7293 3173,7043 2923,7043 Z "/>
 <path fill="none" stroke="rgb(255,77,77)" stroke-width="80" stroke-linejoin="round" d="M 10924,2938 L 10888,2921 10851,2907 10815,2895 10779,2887 10743,2881 10707,2878 10670,2877 10634,2880 10598,2885 10562,2893 10527,2904 10491,2918 10455,2935 10419,2954 10383,2976 10348,3001 10312,3029 10277,3059 10241,3093 10205,3129 10141,3202 10077,3284 10012,3376 9948,3477 9885,3587 9821,3706 9757,3835 9694,3973 9631,4120 9567,4277 9504,4431 9439,4570 9373,4696 9305,4809 9237,4907 9167,4991 9096,5061 9023,5117 8950,5159 8875,5187 8825,5198 8775,5203 8724,5201 8672,5194 8620,5180 8567,5161 8514,5135 8460,5103 8406,5066 8351,5022 8297,4978 8244,4939 8192,4907 8141,4880 8092,4860 8044,4845 7997,4836 7952,4833 7908,4835 7865,4844 7816,4861 7769,4887 7724,4920 7680,4961 7638,5011 7598,5068 7560,5133 7523,5206 7488,5287 7454,5376 7421,5467 7386,5552 7349,5631 7310,5706 7270,5775 7227,5838 7183,5896 7137,5949 7089,5997 7040,6039 6996,6071 6951,6099 6904,6123 6856,6143 6807,6159 6756,6171 6704,6179 6651,6183 6596,6183 6540,6179 6484,6174 6427,6171 6371,6169 6314,6168 6258,6169 6201,6172 6145,6176 6088,6182 6032,6189 5976,6198 5913,6209 5851,6222 5789,6238 5726,6255 5664,6274 5602,6294 5539,6317 5477,6341 5415,6368 5353,6396 5291,6425 5229,6454 5168,6482 5107,6511 5047,6539 4987,6566 4928,6594 4868,6621 4810,6648 4751,6674 4699,6698 4647,6722 4595,6745 4544,6768 4493,6791 4442,6814 4392,6837 4342,6859 4292,6881 4242,6903 4193,6925 4145,6946 4096,6967 4048,6988 4000,7009 3953,7029 3906,7050 3859,7070 3813,7090 3767,7109 "/>
 <path fill="rgb(255,77,77)" stroke="none" d="M 10799,2938 L 10924,3063 11049,2938 10924,2813 10799,2938 Z "/>
 <path fill="none" stroke="rgb(255,77,77)" stroke-linejoin="round" d="M 10799,2938 L 10924,3063 11049,2938 10924,2813 10799,2938 Z "/>
 <path fill="rgb(255,77,77)" stroke="none" d="M 10080,3129 L 10205,3254 10330,3129 10205,3004 10080,3129 Z "/>
 <path fill="none" stroke="rgb(255,77,77)" stroke-linejoin="round" d="M 10080,3129 L 10205,3254 10330,3129 10205,3004 10080,3129 Z "/>
 <path fill="rgb(255,77,77)" stroke="none" d="M 8750,5187 L 8875,5312 9000,5187 8875,5062 8750,5187 Z "/>
 <path fill="none" stroke="rgb(255,77,77)" stroke-linejoin="round" d="M 8750,5187 L 8875,5312 9000,5187 8875,5062 8750,5187 Z "/>
 <path fill="rgb(255,77,77)" stroke="none" d="M 7740,4844 L 7865,4969 7990,4844 7865,4719 7740,4844 Z "/>
 <path fill="none" stroke="rgb(255,77,77)" stroke-linejoin="round" d="M 7740,4844 L 7865,4969 7990,4844 7865,4719 7740,4844 Z "/>
 <path fill="rgb(255,77,77)" stroke="none" d="M 6915,6039 L 7040,6164 7165,6039 7040,5914 6915,6039 Z "/>
 <path fill="none" stroke="rgb(255,77,77)" stroke-linejoin="round" d="M 6915,6039 L 7040,6164 7165,6039 7040,5914 6915,6039 Z "/>
 <path fill="rgb(255,77,77)" stroke="none" d="M 5851,6198 L 5976,6323 6101,6198 5976,6073 5851,6198 Z "/>
 <path fill="none" stroke="rgb(255,77,77)" stroke-linejoin="round" d="M 5851,6198 L 5976,6323 6101,6198 5976,6073 5851,6198 Z "/>
 <path fill="rgb(255,77,77)" stroke="none" d="M 4627,6674 L 4752,6799 4877,6674 4752,6549 4627,6674 Z "/>
 <path fill="none" stroke="rgb(255,77,77)" stroke-linejoin="round" d="M 4627,6674 L 4752,6799 4877,6674 4752,6549 4627,6674 Z "/>
 <path fill="rgb(255,77,77)" stroke="none" d="M 3642,7109 L 3767,7234 3892,7109 3767,6984 3642,7109 Z "/>
 <path fill="none" stroke="rgb(255,77,77)" stroke-linejoin="round" d="M 3642,7109 L 3767,7234 3892,7109 3767,6984 3642,7109 Z "/>
 <path fill="rgb(0,0,0)" stroke="none" d="M 10914,7071 L 10914,7179 10809,7118 10799,7135 10904,7196 10799,7256 10809,7273 10914,7212 10914,7321 10934,7321 10934,7212 11039,7273 11049,7256 10943,7196 11049,7135 11039,7118 10934,7179 10934,7071 10914,7071 Z "/>
 <path fill="none" stroke="rgb(0,0,0)" stroke-linejoin="round" d="M 10914,7071 L 10914,7179 10809,7118 10799,7135 10904,7196 10799,7256 10809,7273 10914,7212 10914,7321 10934,7321 10934,7212 11039,7273 11049,7256 10943,7196 11049,7135 11039,7118 10934,7179 10934,7071 10914,7071 Z "/>
 <path fill="rgb(0,0,0)" stroke="none" d="M 10196,7071 L 10196,7179 10090,7118 10080,7135 10186,7196 10080,7256 10090,7273 10196,7212 10196,7321 10215,7321 10215,7212 10321,7273 10330,7256 10225,7196 10330,7135 10321,7118 10215,7179 10215,7071 10196,7071 Z "/>
 <path fill="none" stroke="rgb(0,0,0)" stroke-linejoin="round" d="M 10196,7071 L 10196,7179 10090,7118 10080,7135 10186,7196 10080,7256 10090,7273 10196,7212 10196,7321 10215,7321 10215,7212 10321,7273 10330,7256 10225,7196 10330,7135 10321,7118 10215,7179 10215,7071 10196,7071 Z "/>
 <path fill="rgb(0,0,0)" stroke="none" d="M 8865,7071 L 8865,7179 8760,7118 8750,7135 8855,7196 8750,7256 8760,7273 8865,7212 8865,7321 8885,7321 8885,7212 8990,7273 9000,7256 8895,7196 9000,7135 8990,7118 8885,7179 8885,7071 8865,7071 Z "/>
 <path fill="none" stroke="rgb(0,0,0)" stroke-linejoin="round" d="M 8865,7071 L 8865,7179 8760,7118 8750,7135 8855,7196 8750,7256 8760,7273 8865,7212 8865,7321 8885,7321 8885,7212 8990,7273 9000,7256 8895,7196 9000,7135 8990,7118 8885,7179 8885,7071 8865,7071 Z "/>
 <path fill="rgb(0,0,0)" stroke="none" d="M 7855,7071 L 7855,7179 7750,7118 7740,7135 7845,7196 7740,7256 7750,7273 7855,7212 7855,7321 7875,7321 7875,7212 7980,7273 7990,7256 7884,7196 7990,7135 7980,7118 7875,7179 7875,7071 7855,7071 Z "/>
 <path fill="none" stroke="rgb(0,0,0)" stroke-linejoin="round" d="M 7855,7071 L 7855,7179 7750,7118 7740,7135 7845,7196 7740,7256 7750,7273 7855,7212 7855,7321 7875,7321 7875,7212 7980,7273 7990,7256 7884,7196 7990,7135 7980,7118 7875,7179 7875,7071 7855,7071 Z "/>
 <path fill="rgb(0,0,0)" stroke="none" d="M 7030,7071 L 7030,7179 6925,7118 6915,7135 7020,7196 6915,7256 6925,7273 7030,7212 7030,7321 7050,7321 7050,7212 7155,7273 7165,7256 7059,7196 7165,7135 7155,7118 7050,7179 7050,7071 7030,7071 Z "/>
 <path fill="none" stroke="rgb(0,0,0)" stroke-linejoin="round" d="M 7030,7071 L 7030,7179 6925,7118 6915,7135 7020,7196 6915,7256 6925,7273 7030,7212 7030,7321 7050,7321 7050,7212 7155,7273 7165,7256 7059,7196 7165,7135 7155,7118 7050,7179 7050,7071 7030,7071 Z "/>
 <path fill="rgb(0,0,0)" stroke="none" d="M 5966,7071 L 5966,7179 5860,7118 5851,7135 5956,7196 5851,7256 5860,7273 5966,7212 5966,7321 5985,7321 5985,7212 6091,7273 6101,7256 5995,7196 6101,7135 6091,7118 5985,7179 5985,7071 5966,7071 Z "/>
 <path fill="none" stroke="rgb(0,0,0)" stroke-linejoin="round" d="M 5966,7071 L 5966,7179 5860,7118 5851,7135 5956,7196 5851,7256 5860,7273 5966,7212 5966,7321 5985,7321 5985,7212 6091,7273 6101,7256 5995,7196 6101,7135 6091,7118 5985,7179 5985,7071 5966,7071 Z "/>
 <path fill="rgb(0,0,0)" stroke="none" d="M 4742,7071 L 4742,7179 4636,7118 4627,7135 4732,7196 4627,7256 4636,7273 4742,7212 4742,7321 4761,7321 4761,7212 4867,7273 4877,7256 4771,7196 4877,7135 4867,7118 4761,7179 4761,7071 4742,7071 Z "/>
 <path fill="none" stroke="rgb(0,0,0)" stroke-linejoin="round" d="M 4742,7071 L 4742,7179 4636,7118 4627,7135 4732,7196 4627,7256 4636,7273 4742,7212 4742,7321 4761,7321 4761,7212 4867,7273 4877,7256 4771,7196 4877,7135 4867,7118 4761,7179 4761,7071 4742,7071 Z "/>
 <path fill="rgb(0,0,0)" stroke="none" d="M 3757,7071 L 3757,7179 3652,7118 3642,7135 3747,7196 3642,7256 3652,7273 3757,7212 3757,7321 3777,7321 3777,7212 3882,7273 3892,7256 3786,7196 3892,7135 3882,7118 3777,7179 3777,7071 3757,7071 Z "/>
 <path fill="none" stroke="rgb(0,0,0)" stroke-linejoin="round" d="M 3757,7071 L 3757,7179 3652,7118 3642,7135 3747,7196 3642,7256 3652,7273 3757,7212 3757,7321 3777,7321 3777,7212 3882,7273 3892,7256 3786,7196 3892,7135 3882,7118 3777,7179 3777,7071 3757,7071 Z "/>
 <path fill="rgb(0,0,0)" stroke="none" d="M 11446,7071 L 11446,7179 11341,7118 11331,7135 11437,7196 11331,7256 11341,7273 11446,7212 11446,7321 11466,7321 11466,7212 11571,7273 11581,7256 11476,7196 11581,7135 11571,7118 11466,7179 11466,7071 11446,7071 Z "/>
 <path fill="none" stroke="rgb(0,0,0)" stroke-linejoin="round" d="M 11446,7071 L 11446,7179 11341,7118 11331,7135 11437,7196 11331,7256 11341,7273 11446,7212 11446,7321 11466,7321 11466,7212 11571,7273 11581,7256 11476,7196 11581,7135 11571,7118 11466,7179 11466,7071 11446,7071 Z "/>
 <path fill="rgb(0,0,0)" stroke="none" d="M 9530,7071 L 9530,7179 9425,7118 9415,7135 9521,7196 9415,7256 9425,7273 9530,7212 9530,7321 9550,7321 9550,7212 9655,7273 9665,7256 9560,7196 9665,7135 9655,7118 9550,7179 9550,7071 9530,7071 Z "/>
 <path fill="none" stroke="rgb(0,0,0)" stroke-linejoin="round" d="M 9530,7071 L 9530,7179 9425,7118 9415,7135 9521,7196 9415,7256 9425,7273 9530,7212 9530,7321 9550,7321 9550,7212 9655,7273 9665,7256 9560,7196 9665,7135 9655,7118 9550,7179 9550,7071 9530,7071 Z "/>
 <path fill="rgb(0,0,0)" stroke="none" d="M 8519,7071 L 8519,7179 8414,7118 8404,7135 8510,7196 8404,7256 8414,7273 8519,7212 8519,7321 8539,7321 8539,7212 8644,7273 8654,7256 8549,7196 8654,7135 8644,7118 8539,7179 8539,7071 8519,7071 Z "/>
 <path fill="none" stroke="rgb(0,0,0)" stroke-linejoin="round" d="M 8519,7071 L 8519,7179 8414,7118 8404,7135 8510,7196 8404,7256 8414,7273 8519,7212 8519,7321 8539,7321 8539,7212 8644,7273 8654,7256 8549,7196 8654,7135 8644,7118 8539,7179 8539,7071 8519,7071 Z "/>
 <path fill="rgb(0,0,0)" stroke="none" d="M 8466,7071 L 8466,7179 8361,7118 8351,7135 8456,7196 8351,7256 8361,7273 8466,7212 8466,7321 8486,7321 8486,7212 8591,7273 8601,7256 8495,7196 8601,7135 8591,7118 8486,7179 8486,7071 8466,7071 Z "/>
 <path fill="none" stroke="rgb(0,0,0)" stroke-linejoin="round" d="M 8466,7071 L 8466,7179 8361,7118 8351,7135 8456,7196 8351,7256 8361,7273 8466,7212 8466,7321 8486,7321 8486,7212 8591,7273 8601,7256 8495,7196 8601,7135 8591,7118 8486,7179 8486,7071 8466,7071 Z "/>
 <path fill="rgb(0,0,0)" stroke="none" d="M 8147,7071 L 8147,7179 8041,7118 8032,7135 8137,7196 8032,7256 8041,7273 8147,7212 8147,7321 8166,7321 8166,7212 8272,7273 8282,7256 8176,7196 8282,7135 8272,7118 8166,7179 8166,7071 8147,7071 Z "/>
 <path fill="none" stroke="rgb(0,0,0)" stroke-linejoin="round" d="M 8147,7071 L 8147,7179 8041,7118 8032,7135 8137,7196 8032,7256 8041,7273 8147,7212 8147,7321 8166,7321 8166,7212 8272,7273 8282,7256 8176,7196 8282,7135 8272,7118 8166,7179 8166,7071 8147,7071 Z "/>
 <path fill="rgb(0,0,0)" stroke="none" d="M 7456,7071 L 7456,7179 7350,7118 7341,7135 7446,7196 7341,7256 7350,7273 7456,7212 7456,7321 7475,7321 7475,7212 7581,7273 7591,7256 7485,7196 7591,7135 7581,7118 7475,7179 7475,7071 7456,7071 Z "/>
 <path fill="none" stroke="rgb(0,0,0)" stroke-linejoin="round" d="M 7456,7071 L 7456,7179 7350,7118 7341,7135 7446,7196 7341,7256 7350,7273 7456,7212 7456,7321 7475,7321 7475,7212 7581,7273 7591,7256 7485,7196 7591,7135 7581,7118 7475,7179 7475,7071 7456,7071 Z "/>
 <path fill="rgb(0,0,0)" stroke="none" d="M 7296,7071 L 7296,7179 7191,7118 7181,7135 7286,7196 7181,7256 7191,7273 7296,7212 7296,7321 7316,7321 7316,7212 7421,7273 7431,7256 7326,7196 7431,7135 7421,7118 7316,7179 7316,7071 7296,7071 Z "/>
 <path fill="none" stroke="rgb(0,0,0)" stroke-linejoin="round" d="M 7296,7071 L 7296,7179 7191,7118 7181,7135 7286,7196 7181,7256 7191,7273 7296,7212 7296,7321 7316,7321 7316,7212 7421,7273 7431,7256 7326,7196 7431,7135 7421,7118 7316,7179 7316,7071 7296,7071 Z "/>
 <path fill="rgb(0,0,0)" stroke="none" d="M 7083,7071 L 7083,7179 6978,7118 6968,7135 7074,7196 6968,7256 6978,7273 7083,7212 7083,7321 7103,7321 7103,7212 7208,7273 7218,7256 7113,7196 7218,7135 7208,7118 7103,7179 7103,7071 7083,7071 Z "/>
 <path fill="none" stroke="rgb(0,0,0)" stroke-linejoin="round" d="M 7083,7071 L 7083,7179 6978,7118 6968,7135 7074,7196 6968,7256 6978,7273 7083,7212 7083,7321 7103,7321 7103,7212 7208,7273 7218,7256 7113,7196 7218,7135 7208,7118 7103,7179 7103,7071 7083,7071 Z "/>
 <path fill="rgb(0,0,0)" stroke="none" d="M 6285,7071 L 6285,7179 6180,7118 6170,7135 6275,7196 6170,7256 6180,7273 6285,7212 6285,7321 6305,7321 6305,7212 6410,7273 6420,7256 6314,7196 6420,7135 6410,7118 6305,7179 6305,7071 6285,7071 Z "/>
 <path fill="none" stroke="rgb(0,0,0)" stroke-linejoin="round" d="M 6285,7071 L 6285,7179 6180,7118 6170,7135 6275,7196 6170,7256 6180,7273 6285,7212 6285,7321 6305,7321 6305,7212 6410,7273 6420,7256 6314,7196 6420,7135 6410,7118 6305,7179 6305,7071 6285,7071 Z "/>
 <path fill="rgb(0,0,0)" stroke="none" d="M 6152,7071 L 6152,7179 6047,7118 6037,7135 6142,7196 6037,7256 6047,7273 6152,7212 6152,7321 6172,7321 6172,7212 6277,7273 6287,7256 6181,7196 6287,7135 6277,7118 6172,7179 6172,7071 6152,7071 Z "/>
 <path fill="none" stroke="rgb(0,0,0)" stroke-linejoin="round" d="M 6152,7071 L 6152,7179 6047,7118 6037,7135 6142,7196 6037,7256 6047,7273 6152,7212 6152,7321 6172,7321 6172,7212 6277,7273 6287,7256 6181,7196 6287,7135 6277,7118 6172,7179 6172,7071 6152,7071 Z "/>
 <path fill="rgb(0,0,0)" stroke="none" d="M 5513,7071 L 5513,7179 5408,7118 5398,7135 5504,7196 5398,7256 5408,7273 5513,7212 5513,7321 5533,7321 5533,7212 5638,7273 5648,7256 5543,7196 5648,7135 5638,7118 5533,7179 5533,7071 5513,7071 Z "/>
 <path fill="none" stroke="rgb(0,0,0)" stroke-linejoin="round" d="M 5513,7071 L 5513,7179 5408,7118 5398,7135 5504,7196 5398,7256 5408,7273 5513,7212 5513,7321 5533,7321 5533,7212 5638,7273 5648,7256 5543,7196 5648,7135 5638,7118 5533,7179 5533,7071 5513,7071 Z "/>
 <path fill="rgb(0,0,0)" stroke="none" d="M 5247,7071 L 5247,7179 5142,7118 5132,7135 5238,7196 5132,7256 5142,7273 5247,7212 5247,7321 5267,7321 5267,7212 5372,7273 5382,7256 5277,7196 5382,7135 5372,7118 5267,7179 5267,7071 5247,7071 Z "/>
 <path fill="none" stroke="rgb(0,0,0)" stroke-linejoin="round" d="M 5247,7071 L 5247,7179 5142,7118 5132,7135 5238,7196 5132,7256 5142,7273 5247,7212 5247,7321 5267,7321 5267,7212 5372,7273 5382,7256 5277,7196 5382,7135 5372,7118 5267,7179 5267,7071 5247,7071 Z "/>
 <path fill="rgb(0,0,0)" stroke="none" d="M 4183,7071 L 4183,7179 4077,7118 4068,7135 4173,7196 4068,7256 4077,7273 4183,7212 4183,7321 4202,7321 4202,7212 4308,7273 4318,7256 4212,7196 4318,7135 4308,7118 4202,7179 4202,7071 4183,7071 Z "/>
 <path fill="none" stroke="rgb(0,0,0)" stroke-linejoin="round" d="M 4183,7071 L 4183,7179 4077,7118 4068,7135 4173,7196 4068,7256 4077,7273 4183,7212 4183,7321 4202,7321 4202,7212 4308,7273 4318,7256 4212,7196 4318,7135 4308,7118 4202,7179 4202,7071 4183,7071 Z "/>
 <path fill="rgb(0,0,0)" stroke="none" d="M 3092,7071 L 3092,7179 2986,7118 2977,7135 3082,7196 2977,7256 2986,7273 3092,7212 3092,7321 3111,7321 3111,7212 3217,7273 3227,7256 3121,7196 3227,7135 3217,7118 3111,7179 3111,7071 3092,7071 Z "/>
 <path fill="none" stroke="rgb(0,0,0)" stroke-linejoin="round" d="M 3092,7071 L 3092,7179 2986,7118 2977,7135 3082,7196 2977,7256 2986,7273 3092,7212 3092,7321 3111,7321 3111,7212 3217,7273 3227,7256 3121,7196 3227,7135 3217,7118 3111,7179 3111,7071 3092,7071 Z "/>
 <path fill="rgb(0,0,0)" stroke="none" d="M 3039,7071 L 3039,7179 2933,7118 2923,7135 3029,7196 2923,7256 2933,7273 3039,7212 3039,7321 3058,7321 3058,7212 3164,7273 3173,7256 3068,7196 3173,7135 3164,7118 3058,7179 3058,7071 3039,7071 Z "/>
 <path fill="none" stroke="rgb(0,0,0)" stroke-linejoin="round" d="M 3039,7071 L 3039,7179 2933,7118 2923,7135 3029,7196 2923,7256 2933,7273 3039,7212 3039,7321 3058,7321 3058,7212 3164,7273 3173,7256 3068,7196 3173,7135 3164,7118 3058,7179 3058,7071 3039,7071 Z "/>
 <text class="SVGTextShape"><tspan class="TextParagraph"><tspan class="TextPosition" x="1561" y="7764"><tspan font-family="Liberation Sans, sans-serif" font-size="353px" font-weight="400" lengthAdjust="spacingAndGlyphs" textLength="794" fill="rgb(0,0,0)" stroke="none" style="white-space: pre">1995</tspan></tspan></tspan></text>
 <text class="SVGTextShape"><tspan class="TextParagraph"><tspan class="TextPosition" x="3157" y="7764"><tspan font-family="Liberation Sans, sans-serif" font-size="353px" font-weight="400" lengthAdjust="spacingAndGlyphs" textLength="794" fill="rgb(0,0,0)" stroke="none" style="white-space: pre">2000</tspan></tspan></tspan></text>
 <text class="SVGTextShape"><tspan class="TextParagraph"><tspan class="TextPosition" x="4754" y="7764"><tspan font-family="Liberation Sans, sans-serif" font-size="353px" font-weight="400" lengthAdjust="spacingAndGlyphs" textLength="794" fill="rgb(0,0,0)" stroke="none" style="white-space: pre">2005</tspan></tspan></tspan></text>
 <text class="SVGTextShape"><tspan class="TextParagraph"><tspan class="TextPosition" x="6350" y="7764"><tspan font-family="Liberation Sans, sans-serif" font-size="353px" font-weight="400" lengthAdjust="spacingAndGlyphs" textLength="794" fill="rgb(0,0,0)" stroke="none" style="white-space: pre">2010</tspan></tspan></tspan></text>
 <text class="SVGTextShape"><tspan class="TextParagraph"><tspan class="TextPosition" x="7947" y="7764"><tspan font-family="Liberation Sans, sans-serif" font-size="353px" font-weight="400" lengthAdjust="spacingAndGlyphs" textLength="794" fill="rgb(0,0,0)" stroke="none" style="white-space: pre">2015</tspan></tspan></tspan></text>
 <text class="SVGTextShape"><tspan class="TextParagraph"><tspan class="TextPosition" x="9542" y="7764"><tspan font-family="Liberation Sans, sans-serif" font-size="353px" font-weight="400" lengthAdjust="spacingAndGlyphs" textLength="794" fill="rgb(0,0,0)" stroke="none" style="white-space: pre">2020</tspan></tspan></tspan></text>
 <text class="SVGTextShape"><tspan class="TextParagraph"><tspan class="TextPosition" x="11139" y="7764"><tspan font-family="Liberation Sans, sans-serif" font-size="353px" font-weight="400" lengthAdjust="spacingAndGlyphs" textLength="794" fill="rgb(0,0,0)" stroke="none" style="white-space: pre">2025</tspan></tspan></tspan></text>
 <text class="SVGTextShape"><tspan class="TextParagraph"><tspan class="TextPosition" x="12736" y="7764"><tspan font-family="Liberation Sans, sans-serif" font-size="353px" font-weight="400" lengthAdjust="spacingAndGlyphs" textLength="794" fill="rgb(0,0,0)" stroke="none" style="white-space: pre">2030</tspan></tspan></tspan></text>
 <text class="SVGTextShape"><tspan class="TextParagraph"><tspan class="TextPosition" x="1509" y="7317"><tspan font-family="Liberation Sans, sans-serif" font-size="353px" font-weight="400" lengthAdjust="spacingAndGlyphs" textLength="198" fill="rgb(0,0,0)" stroke="none" style="white-space: pre">0</tspan></tspan></tspan></text>
 <text class="SVGTextShape"><tspan class="TextParagraph"><tspan class="TextPosition" x="1509" y="6681"><tspan font-family="Liberation Sans, sans-serif" font-size="353px" font-weight="400" lengthAdjust="spacingAndGlyphs" textLength="198" fill="rgb(0,0,0)" stroke="none" style="white-space: pre">2</tspan></tspan></tspan></text>
 <text class="SVGTextShape"><tspan class="TextParagraph"><tspan class="TextPosition" x="1509" y="6045"><tspan font-family="Liberation Sans, sans-serif" font-size="353px" font-weight="400" lengthAdjust="spacingAndGlyphs" textLength="198" fill="rgb(0,0,0)" stroke="none" style="white-space: pre">4</tspan></tspan></tspan></text>
 <text class="SVGTextShape"><tspan class="TextParagraph"><tspan class="TextPosition" x="1509" y="5410"><tspan font-family="Liberation Sans, sans-serif" font-size="353px" font-weight="400" lengthAdjust="spacingAndGlyphs" textLength="198" fill="rgb(0,0,0)" stroke="none" style="white-space: pre">6</tspan></tspan></tspan></text>
 <text class="SVGTextShape"><tspan class="TextParagraph"><tspan class="TextPosition" x="1509" y="4774"><tspan font-family="Liberation Sans, sans-serif" font-size="353px" font-weight="400" lengthAdjust="spacingAndGlyphs" textLength="198" fill="rgb(0,0,0)" stroke="none" style="white-space: pre">8</tspan></tspan></tspan></text>
 <text class="SVGTextShape"><tspan class="TextParagraph"><tspan class="TextPosition" x="1311" y="4140"><tspan font-family="Liberation Sans, sans-serif" font-size="353px" font-weight="400" lengthAdjust="spacingAndGlyphs" textLength="397" fill="rgb(0,0,0)" stroke="none" style="white-space: pre">10</tspan></tspan></tspan></text>
 <text class="SVGTextShape"><tspan class="TextParagraph"><tspan class="TextPosition" x="1311" y="3504"><tspan font-family="Liberation Sans, sans-serif" font-size="353px" font-weight="400" lengthAdjust="spacingAndGlyphs" textLength="397" fill="rgb(0,0,0)" stroke="none" style="white-space: pre">12</tspan></tspan></tspan></text>
 <text class="SVGTextShape"><tspan class="TextParagraph"><tspan class="TextPosition" x="1311" y="2869"><tspan font-family="Liberation Sans, sans-serif" font-size="353px" font-weight="400" lengthAdjust="spacingAndGlyphs" textLength="397" fill="rgb(0,0,0)" stroke="none" style="white-space: pre">14</tspan></tspan></tspan></text>
 <text class="SVGTextShape"><tspan class="TextParagraph"><tspan class="TextPosition" x="1311" y="2233"><tspan font-family="Liberation Sans, sans-serif" font-size="353px" font-weight="400" lengthAdjust="spacingAndGlyphs" textLength="397" fill="rgb(0,0,0)" stroke="none" style="white-space: pre">16</tspan></tspan></tspan></text>
 <text class="SVGTextShape"><tspan class="TextParagraph"><tspan class="TextPosition" x="1311" y="1598"><tspan font-family="Liberation Sans, sans-serif" font-size="353px" font-weight="400" lengthAdjust="spacingAndGlyphs" textLength="397" fill="rgb(0,0,0)" stroke="none" style="white-space: pre">18</tspan></tspan></tspan></text>
 <text class="SVGTextShape" transform="rotate(-90 11045 6140)"><tspan class="TextParagraph"><tspan class="TextPosition" x="11045" y="6140"><tspan font-family="Liberation Sans, sans-serif" font-size="353px" font-weight="400" lengthAdjust="spacingAndGlyphs" textLength="2899" fill="rgb(0,0,0)" stroke="none" style="white-space: pre">Ryzen 9 7950X3D</tspan></tspan></tspan></text>
 <text class="SVGTextShape" transform="rotate(-90 10326 6140)"><tspan class="TextParagraph"><tspan class="TextPosition" x="10326" y="6140"><tspan font-family="Liberation Sans, sans-serif" font-size="353px" font-weight="400" lengthAdjust="spacingAndGlyphs" textLength="2442" fill="rgb(0,0,0)" stroke="none" style="white-space: pre">Ryzen 9 5950X</tspan></tspan></tspan></text>
 <text class="SVGTextShape" transform="rotate(-90 8996 6839)"><tspan class="TextParagraph"><tspan class="TextPosition" x="8996" y="6839"><tspan font-family="Liberation Sans, sans-serif" font-size="353px" font-weight="400" lengthAdjust="spacingAndGlyphs" textLength="1549" fill="rgb(0,0,0)" stroke="none" style="white-space: pre">A12-9800</tspan></tspan></tspan></text>
 <text class="SVGTextShape" transform="rotate(-90 7986 6458)"><tspan class="TextParagraph"><tspan class="TextPosition" x="7986" y="6458"><tspan font-family="Liberation Sans, sans-serif" font-size="353px" font-weight="400" lengthAdjust="spacingAndGlyphs" textLength="1369" fill="rgb(0,0,0)" stroke="none" style="white-space: pre">FX-9590</tspan></tspan></tspan></text>
 <text class="SVGTextShape" transform="rotate(-90 7001 5841)"><tspan class="TextParagraph"><tspan class="TextPosition" x="7001" y="5841"><tspan font-family="Liberation Sans, sans-serif" font-size="353px" font-weight="400" lengthAdjust="spacingAndGlyphs" textLength="3276" fill="rgb(0,0,0)" stroke="none" style="white-space: pre">Phenom II X6 1100T</tspan></tspan></tspan></text>
 <text class="SVGTextShape" transform="rotate(-90 6033 5969)"><tspan class="TextParagraph"><tspan class="TextPosition" x="6033" y="5969"><tspan font-family="Liberation Sans, sans-serif" font-size="353px" font-weight="400" lengthAdjust="spacingAndGlyphs" textLength="3147" fill="rgb(0,0,0)" stroke="none" style="white-space: pre">Athlon 64 X2 6400+</tspan></tspan></tspan></text>
 <text class="SVGTextShape" transform="rotate(-90 4873 6445)"><tspan class="TextParagraph"><tspan class="TextPosition" x="4873" y="6445"><tspan font-family="Liberation Sans, sans-serif" font-size="353px" font-weight="400" lengthAdjust="spacingAndGlyphs" textLength="2690" fill="rgb(0,0,0)" stroke="none" style="white-space: pre">Athlon XP 3200+</tspan></tspan></tspan></text>
 <text class="SVGTextShape" transform="rotate(-90 3888 6880)"><tspan class="TextParagraph"><tspan class="TextPosition" x="3888" y="6880"><tspan font-family="Liberation Sans, sans-serif" font-size="353px" font-weight="400" lengthAdjust="spacingAndGlyphs" textLength="1995" fill="rgb(0,0,0)" stroke="none" style="white-space: pre">K6-IIIE+ 550</tspan></tspan></tspan></text>
 <text class="SVGTextShape" transform="rotate(-90 11577 2137)"><tspan class="TextParagraph"><tspan class="TextPosition" x="11577" y="2137"><tspan font-family="Liberation Sans, sans-serif" font-size="353px" font-weight="400" lengthAdjust="spacingAndGlyphs" textLength="834" fill="rgb(0,0,0)" stroke="none" style="white-space: pre">285K</tspan></tspan></tspan></text>
 <text class="SVGTextShape" transform="rotate(-90 9661 3780)"><tspan class="TextParagraph"><tspan class="TextPosition" x="9661" y="3780"><tspan font-family="Liberation Sans, sans-serif" font-size="353px" font-weight="400" lengthAdjust="spacingAndGlyphs" textLength="1429" fill="rgb(0,0,0)" stroke="none" style="white-space: pre">i9-9900K</tspan></tspan></tspan></text>
 <text class="SVGTextShape" transform="rotate(-90 8842 4397)"><tspan class="TextParagraph"><tspan class="TextPosition" x="8842" y="4397"><tspan font-family="Liberation Sans, sans-serif" font-size="353px" font-weight="400" lengthAdjust="spacingAndGlyphs" textLength="1429" fill="rgb(0,0,0)" stroke="none" style="white-space: pre">i7-6700K</tspan></tspan></tspan></text>
 <text class="SVGTextShape" transform="rotate(-90 8597 3834)"><tspan class="TextParagraph"><tspan class="TextPosition" x="8597" y="3834"><tspan font-family="Liberation Sans, sans-serif" font-size="353px" font-weight="400" lengthAdjust="spacingAndGlyphs" textLength="1449" fill="rgb(0,0,0)" stroke="none" style="white-space: pre">i7-5775C</tspan></tspan></tspan></text>
 <text class="SVGTextShape" transform="rotate(-90 8278 4155)"><tspan class="TextParagraph"><tspan class="TextPosition" x="8278" y="4155"><tspan font-family="Liberation Sans, sans-serif" font-size="353px" font-weight="400" lengthAdjust="spacingAndGlyphs" textLength="1429" fill="rgb(0,0,0)" stroke="none" style="white-space: pre">i7-4790K</tspan></tspan></tspan></text>
 <text class="SVGTextShape" transform="rotate(-90 7667 4777)"><tspan class="TextParagraph"><tspan class="TextPosition" x="7667" y="4777"><tspan font-family="Liberation Sans, sans-serif" font-size="353px" font-weight="400" lengthAdjust="spacingAndGlyphs" textLength="1429" fill="rgb(0,0,0)" stroke="none" style="white-space: pre">i7-3770K</tspan></tspan></tspan></text>
 <text class="SVGTextShape" transform="rotate(-90 7427 4492)"><tspan class="TextParagraph"><tspan class="TextPosition" x="7427" y="4492"><tspan font-family="Liberation Sans, sans-serif" font-size="353px" font-weight="400" lengthAdjust="spacingAndGlyphs" textLength="1429" fill="rgb(0,0,0)" stroke="none" style="white-space: pre">i7-2700K</tspan></tspan></tspan></text>
 <text class="SVGTextShape" transform="rotate(-90 7214 5606)"><tspan class="TextParagraph"><tspan class="TextPosition" x="7214" y="5606"><tspan font-family="Liberation Sans, sans-serif" font-size="353px" font-weight="400" lengthAdjust="spacingAndGlyphs" textLength="1231" fill="rgb(0,0,0)" stroke="none" style="white-space: pre">i7-990X</tspan></tspan></tspan></text>
 <text class="SVGTextShape" transform="rotate(-90 6480 5765)"><tspan class="TextParagraph"><tspan class="TextPosition" x="6480" y="5765"><tspan font-family="Liberation Sans, sans-serif" font-size="353px" font-weight="400" lengthAdjust="spacingAndGlyphs" textLength="3335" fill="rgb(0,0,0)" stroke="none" style="white-space: pre">Core 2 Duo 3.33GHz</tspan></tspan></tspan></text>
 <text class="SVGTextShape" transform="rotate(-90 6251 5880)"><tspan class="TextParagraph"><tspan class="TextPosition" x="6251" y="5880"><tspan font-family="Liberation Sans, sans-serif" font-size="353px" font-weight="400" lengthAdjust="spacingAndGlyphs" textLength="3355" fill="rgb(0,0,0)" stroke="none" style="white-space: pre">Core 2 Quad 3.2GHz</tspan></tspan></tspan></text>
 <text class="SVGTextShape" transform="rotate(-90 5644 6156)"><tspan class="TextParagraph"><tspan class="TextPosition" x="5644" y="6156"><tspan font-family="Liberation Sans, sans-serif" font-size="353px" font-weight="400" lengthAdjust="spacingAndGlyphs" textLength="3176" fill="rgb(0,0,0)" stroke="none" style="white-space: pre">Pentium D 3.73GHz</tspan></tspan></tspan></text>
 <text class="SVGTextShape" transform="rotate(-90 5378 6140)"><tspan class="TextParagraph"><tspan class="TextPosition" x="5378" y="6140"><tspan font-family="Liberation Sans, sans-serif" font-size="353px" font-weight="400" lengthAdjust="spacingAndGlyphs" textLength="3493" fill="rgb(0,0,0)" stroke="none" style="white-space: pre">Pentium 4 HT 3.8GHz</tspan></tspan></tspan></text>
 <text class="SVGTextShape" transform="rotate(-90 4314 6688)"><tspan class="TextParagraph"><tspan class="TextPosition" x="4314" y="6688"><tspan font-family="Liberation Sans, sans-serif" font-size="353px" font-weight="400" lengthAdjust="spacingAndGlyphs" textLength="2918" fill="rgb(0,0,0)" stroke="none" style="white-space: pre">Pentium 3 1.4GHz</tspan></tspan></tspan></text>
 <text class="SVGTextShape" transform="rotate(-90 3350 6842)"><tspan class="TextParagraph"><tspan class="TextPosition" x="3350" y="6842"><tspan font-family="Liberation Sans, sans-serif" font-size="353px" font-weight="400" lengthAdjust="spacingAndGlyphs" textLength="2303" fill="rgb(0,0,0)" stroke="none" style="white-space: pre">Pentium II 450</tspan></tspan></tspan></text>
 <text class="SVGTextShape" transform="rotate(-90 3042 6908)"><tspan class="TextParagraph"><tspan class="TextPosition" x="3042" y="6908"><tspan font-family="Liberation Sans, sans-serif" font-size="353px" font-weight="400" lengthAdjust="spacingAndGlyphs" textLength="2938" fill="rgb(0,0,0)" stroke="none" style="white-space: pre">Pentium MMX 233</tspan></tspan></tspan></text>
 <text class="SVGTextShape"><tspan class="TextParagraph"><tspan class="TextPosition" x="3488" y="869"><tspan font-family="Liberation Sans, sans-serif" font-size="459px" font-weight="400" lengthAdjust="spacingAndGlyphs" textLength="9006" fill="rgb(0,0,0)" stroke="none" style="white-space: pre">CPU Performance (single threaded, float32)</tspan></tspan></tspan></text>
 <path fill="none" stroke="rgb(255,77,77)" stroke-width="80" stroke-linejoin="round" d="M 13967,4242 L 14767,4242 "/>
 <path fill="rgb(255,77,77)" stroke="none" d="M 14261,4242 L 14367,4348 14472,4242 14367,4137 14261,4242 Z "/>
 <path fill="none" stroke="rgb(255,77,77)" stroke-linejoin="round" d="M 14261,4242 L 14367,4348 14472,4242 14367,4137 14261,4242 Z "/>
 <path fill="none" stroke="rgb(51,51,255)" stroke-width="80" stroke-linejoin="round" d="M 13967,4739 L 14767,4739 "/>
 <path fill="rgb(51,51,255)" stroke="none" d="M 14261,4634 L 14367,4845 14472,4634 14261,4634 Z "/>
 <path fill="none" stroke="rgb(51,51,255)" stroke-linejoin="round" d="M 14261,4634 L 14367,4845 14472,4634 14261,4634 Z "/>
 <text class="SVGTextShape"><tspan class="TextParagraph"><tspan class="TextPosition" x="14867" y="4362"><tspan font-family="Liberation Sans, sans-serif" font-size="353px" font-weight="400" lengthAdjust="spacingAndGlyphs" textLength="793" fill="rgb(0,0,0)" stroke="none" style="white-space: pre">AMD</tspan></tspan></tspan></text>
 <text class="SVGTextShape"><tspan class="TextParagraph"><tspan class="TextPosition" x="14867" y="4859"><tspan font-family="Liberation Sans, sans-serif" font-size="353px" font-weight="400" lengthAdjust="spacingAndGlyphs" textLength="675" fill="rgb(0,0,0)" stroke="none" style="white-space: pre">Intel</tspan></tspan></tspan></text>
 <text class="SVGTextShape"><tspan class="TextParagraph"><tspan class="TextPosition" x="6072" y="8411"><tspan font-family="Liberation Sans, sans-serif" font-size="318px" font-weight="400" lengthAdjust="spacingAndGlyphs" textLength="2700" fill="rgb(0,0,0)" stroke="none" style="white-space: pre">year of introduction</tspan></tspan></tspan></text>
 <text class="SVGTextShape" transform="rotate(-90 831 5205)"><tspan class="TextParagraph"><tspan class="TextPosition" x="831" y="5205"><tspan font-family="Liberation Sans, sans-serif" font-size="318px" font-weight="400" lengthAdjust="spacingAndGlyphs" textLength="1287" fill="rgb(0,0,0)" stroke="none" style="white-space: pre">GFLOPS</tspan></tspan></tspan></text>
</svg>