<?xml version="1.0" encoding="UTF-8"?>
<!DOCTYPE svg PUBLIC "-//W3C//DTD SVG 1.1//EN" "http://www.w3.org/Graphics/SVG/1.1/DTD/svg11.dtd">
<svg width="160mm" height="90mm" viewBox="0 0 16000 9000" version="1.1" xmlns="http://www.w3.org/2000/svg" xmlns:xlink="http://www.w3.org/1999/xlink" stroke-width="28.222" stroke-linejoin="round" xml:space="preserve">
 <path fill="rgb(255,255,255)" stroke="none" d="M 7991,8981 L -7,8981 -7,-7 15989,-7 15989,8981 7991,8981 Z "/>
 <path fill="none" stroke="rgb(179,179,179)" stroke-linejoin="round" d="M 7507,7187 L 2158,7187 2158,1478 12855,1478 12855,7187 7507,7187 Z "/>
 <path fill="none" stroke="rgb(179,179,179)" stroke-linejoin="round" d="M 12854,7186 L 2157,7186 "/>
 <path fill="none" stroke="rgb(179,179,179)" stroke-linejoin="round" d="M 12854,6615 L 2157,6615 "/>
 <path fill="none" stroke="rgb(179,179,179)" stroke-linejoin="round" d="M 12854,6044 L 2157,6044 "/>
 <path fill="none" stroke="rgb(179,179,179)" stroke-linejoin="round" d="M 12854,5473 L 2157,5473 "/>
 <path fill="none" stroke="rgb(179,179,179)" stroke-linejoin="round" d="M 12854,4902 L 2157,4902 "/>
 <path fill="none" stroke="rgb(179,179,179)" stroke-linejoin="round" d="M 12854,4332 L 2157,4332 "/>
 <path fill="none" stroke="rgb(179,179,179)" stroke-linejoin="round" d="M 12854,3761 L 2157,3761 "/>
 <path fill="none" stroke="rgb(179,179,179)" stroke-linejoin="round" d="M 12854,3190 L 2157,3190 "/>
 <path fill="none" stroke="rgb(179,179,179)" stroke-linejoin="round" d="M 12854,2619 L 2157,2619 "/>
 <path fill="none" stroke="rgb(179,179,179)" stroke-linejoin="round" d="M 12854,2048 L 2157,2048 "/>
 <path fill="none" stroke="rgb(179,179,179)" stroke-linejoin="round" d="M 12854,1477 L 2157,1477 "/>
 <path fill="none" stroke="rgb(179,179,179)" stroke-linejoin="round" d="M 2157,7336 L 2157,7186 "/>
 <path fill="none" stroke="rgb(179,179,179)" stroke-linejoin="round" d="M 2157,7336 L 2157,7186 "/>
 <path fill="none" stroke="rgb(179,179,179)" stroke-linejoin="round" d="M 3686,7336 L 3686,7186 "/>
 <path fill="none" stroke="rgb(179,179,179)" stroke-linejoin="round" d="M 3686,7336 L 3686,7186 "/>
 <path fill="none" stroke="rgb(179,179,179)" stroke-linejoin="round" d="M 5214,7336 L 5214,7186 "/>
 <path fill="none" stroke="rgb(179,179,179)" stroke-linejoin="round" d="M 5214,7336 L 5214,7186 "/>
 <path fill="none" stroke="rgb(179,179,179)" stroke-linejoin="round" d="M 6742,7336 L 6742,7186 "/>
 <path fill="none" stroke="rgb(179,179,179)" stroke-linejoin="round" d="M 6742,7336 L 6742,7186 "/>
 <path fill="none" stroke="rgb(179,179,179)" stroke-linejoin="round" d="M 8270,7336 L 8270,7186 "/>
 <path fill="none" stroke="rgb(179,179,179)" stroke-linejoin="round" d="M 8270,7336 L 8270,7186 "/>
 <path fill="none" stroke="rgb(179,179,179)" stroke-linejoin="round" d="M 9798,7336 L 9798,7186 "/>
 <path fill="none" stroke="rgb(179,179,179)" stroke-linejoin="round" d="M 9798,7336 L 9798,7186 "/>
 <path fill="none" stroke="rgb(179,179,179)" stroke-linejoin="round" d="M 11326,7336 L 11326,7186 "/>
 <path fill="none" stroke="rgb(179,179,179)" stroke-linejoin="round" d="M 11326,7336 L 11326,7186 "/>
 <path fill="none" stroke="rgb(179,179,179)" stroke-linejoin="round" d="M 12854,7336 L 12854,7186 "/>
 <path fill="none" stroke="rgb(179,179,179)" stroke-linejoin="round" d="M 12854,7336 L 12854,7186 "/>
 <path fill="none" stroke="rgb(179,179,179)" stroke-linejoin="round" d="M 2157,7186 L 12854,7186 "/>
 <path fill="none" stroke="rgb(179,179,179)" stroke-linejoin="round" d="M 2007,7186 L 2157,7186 "/>
 <path fill="none" stroke="rgb(179,179,179)" stroke-linejoin="round" d="M 2007,7186 L 2157,7186 "/>
 <path fill="none" stroke="rgb(179,179,179)" stroke-linejoin="round" d="M 2007,6615 L 2157,6615 "/>
 <path fill="none" stroke="rgb(179,179,179)" stroke-linejoin="round" d="M 2007,6615 L 2157,6615 "/>
 <path fill="none" stroke="rgb(179,179,179)" stroke-linejoin="round" d="M 2007,6044 L 2157,6044 "/>
 <path fill="none" stroke="rgb(179,179,179)" stroke-linejoin="round" d="M 2007,6044 L 2157,6044 "/>
 <path fill="none" stroke="rgb(179,179,179)" stroke-linejoin="round" d="M 2007,5473 L 2157,5473 "/>
 <path fill="none" stroke="rgb(179,179,179)" stroke-linejoin="round" d="M 2007,5473 L 2157,5473 "/>
 <path fill="none" stroke="rgb(179,179,179)" stroke-linejoin="round" d="M 2007,4902 L 2157,4902 "/>
 <path fill="none" stroke="rgb(179,179,179)" stroke-linejoin="round" d="M 2007,4902 L 2157,4902 "/>
 <path fill="none" stroke="rgb(179,179,179)" stroke-linejoin="round" d="M 2007,4332 L 2157,4332 "/>
 <path fill="none" stroke="rgb(179,179,179)" stroke-linejoin="round" d="M 2007,4332 L 2157,4332 "/>
 <path fill="none" stroke="rgb(179,179,179)" stroke-linejoin="round" d="M 2007,3761 L 2157,3761 "/>
 <path fill="none" stroke="rgb(179,179,179)" stroke-linejoin="round" d="M 2007,3761 L 2157,3761 "/>
 <path fill="none" stroke="rgb(179,179,179)" stroke-linejoin="round" d="M 2007,3190 L 2157,3190 "/>
 <path fill="none" stroke="rgb(179,179,179)" stroke-linejoin="round" d="M 2007,3190 L 2157,3190 "/>
 <path fill="none" stroke="rgb(179,179,179)" stroke-linejoin="round" d="M 2007,2619 L 2157,2619 "/>
 <path fill="none" stroke="rgb(179,179,179)" stroke-linejoin="round" d="M 2007,2619 L 2157,2619 "/>
 <path fill="none" stroke="rgb(179,179,179)" stroke-linejoin="round" d="M 2007,2048 L 2157,2048 "/>
 <path fill="none" stroke="rgb(179,179,179)" stroke-linejoin="round" d="M 2007,2048 L 2157,2048 "/>
 <path fill="none" stroke="rgb(179,179,179)" stroke-linejoin="round" d="M 2007,1477 L 2157,1477 "/>
 <path fill="none" stroke="rgb(179,179,179)" stroke-linejoin="round" d="M 2007,1477 L 2157,1477 "/>
 <path fill="none" stroke="rgb(179,179,179)" stroke-linejoin="round" d="M 2157,7186 L 2157,1477 "/>
 <path fill="none" stroke="rgb(255,211,32)" stroke-width="80" stroke-linejoin="round" d="M 11899,7105 L 11743,7108 11587,7110 11431,7113 11275,7115 11119,7118 10963,7121 10807,7123 10651,7126 10495,7128 10339,7131 10183,7134 10027,7136 9871,7139 9715,7141 9559,7144 9403,7147 9247,7149 9091,7152 8935,7154 8779,7157 8722,7157 8664,7157 8607,7158 8550,7158 8493,7158 8435,7159 8378,7159 8321,7159 8263,7159 8206,7160 8149,7160 8091,7160 8034,7161 7978,7161 7920,7161 7863,7161 7806,7162 7748,7162 7691,7162 7634,7163 7567,7163 7500,7164 7433,7164 7366,7165 7300,7166 7233,7166 7166,7167 7099,7167 7032,7168 6965,7169 6898,7169 6832,7170 6765,7170 6698,7171 6631,7172 6564,7172 6497,7173 6430,7173 6363,7174 6297,7175 6236,7174 6176,7174 6115,7174 6055,7174 5994,7173 5934,7173 5873,7173 5813,7173 5752,7172 5692,7172 5631,7172 5571,7172 5510,7171 5450,7171 5389,7171 5329,7171 5268,7170 5208,7170 5147,7170 5087,7170 5023,7170 4959,7170 4896,7171 4832,7171 4768,7172 4705,7172 4641,7172 4577,7173 4514,7173 4450,7174 4386,7174 4323,7174 4259,7175 4195,7175 4132,7175 4068,7176 4004,7176 3940,7177 3877,7177 3813,7177 "/>
 <path fill="rgb(255,211,32)" stroke="none" d="M 11774,6980 L 11899,7230 12024,6980 11774,6980 Z "/>
 <path fill="none" stroke="rgb(255,211,32)" stroke-linejoin="round" d="M 11774,6980 L 11899,7230 12024,6980 11774,6980 Z "/>
 <path fill="rgb(255,211,32)" stroke="none" d="M 8654,7032 L 8779,7282 8904,7032 8654,7032 Z "/>
 <path fill="none" stroke="rgb(255,211,32)" stroke-linejoin="round" d="M 8654,7032 L 8779,7282 8904,7032 8654,7032 Z "/>
 <path fill="rgb(255,211,32)" stroke="none" d="M 7509,7038 L 7634,7288 7759,7038 7509,7038 Z "/>
 <path fill="none" stroke="rgb(255,211,32)" stroke-linejoin="round" d="M 7509,7038 L 7634,7288 7759,7038 7509,7038 Z "/>
 <path fill="rgb(255,211,32)" stroke="none" d="M 6172,7050 L 6297,7300 6422,7050 6172,7050 Z "/>
 <path fill="none" stroke="rgb(255,211,32)" stroke-linejoin="round" d="M 6172,7050 L 6297,7300 6422,7050 6172,7050 Z "/>
 <path fill="rgb(255,211,32)" stroke="none" d="M 4962,7045 L 5087,7295 5212,7045 4962,7045 Z "/>
 <path fill="none" stroke="rgb(255,211,32)" stroke-linejoin="round" d="M 4962,7045 L 5087,7295 5212,7045 4962,7045 Z "/>
 <path fill="rgb(255,211,32)" stroke="none" d="M 3688,7052 L 3813,7302 3938,7052 3688,7052 Z "/>
 <path fill="none" stroke="rgb(255,211,32)" stroke-linejoin="round" d="M 3688,7052 L 3813,7302 3938,7052 3688,7052 Z "/>
 <path fill="none" stroke="rgb(255,66,14)" stroke-width="80" stroke-linejoin="round" d="M 11899,4587 L 11743,4674 11587,4761 11431,4848 11275,4935 11119,5021 10963,5108 10807,5195 10651,5282 10495,5369 10339,5455 10183,5542 10027,5629 9871,5716 9715,5803 9559,5889 9403,5976 9247,6063 9091,6150 8935,6236 8779,6323 8722,6337 8664,6350 8607,6364 8550,6377 8493,6390 8435,6404 8378,6417 8321,6431 8263,6444 8206,6457 8149,6471 8091,6484 8034,6498 7978,6511 7920,6525 7863,6538 7806,6551 7748,6565 7691,6578 7634,6592 7567,6607 7500,6622 7433,6637 7366,6652 7300,6667 7233,6682 7166,6698 7099,6713 7032,6728 6965,6743 6898,6758 6832,6773 6765,6788 6698,6804 6631,6819 6564,6834 6497,6849 6430,6864 6363,6879 6297,6894 6236,6899 6176,6904 6115,6909 6055,6914 5994,6919 5934,6923 5873,6928 5813,6933 5752,6938 5692,6943 5631,6948 5571,6953 5510,6957 5450,6962 5389,6967 5329,6972 5268,6977 5208,6982 5147,6987 5087,6991 5023,6996 4959,7000 4896,7005 4832,7010 4768,7014 4705,7019 4641,7023 4577,7028 4514,7032 4450,7037 4386,7042 4323,7046 4259,7051 4195,7055 4132,7060 4068,7064 4004,7069 3940,7074 3877,7078 3813,7083 "/>
 <path fill="rgb(255,66,14)" stroke="none" d="M 11774,4587 L 11899,4712 12024,4587 11899,4463 11774,4587 Z "/>
 <path fill="none" stroke="rgb(255,66,14)" stroke-linejoin="round" d="M 11774,4587 L 11899,4712 12024,4587 11899,4463 11774,4587 Z "/>
 <path fill="rgb(255,66,14)" stroke="none" d="M 8654,6323 L 8779,6448 8904,6323 8779,6198 8654,6323 Z "/>
 <path fill="none" stroke="rgb(255,66,14)" stroke-linejoin="round" d="M 8654,6323 L 8779,6448 8904,6323 8779,6198 8654,6323 Z "/>
 <path fill="rgb(255,66,14)" stroke="none" d="M 7509,6592 L 7634,6717 7759,6592 7634,6467 7509,6592 Z "/>
 <path fill="none" stroke="rgb(255,66,14)" stroke-linejoin="round" d="M 7509,6592 L 7634,6717 7759,6592 7634,6467 7509,6592 Z "/>
 <path fill="rgb(255,66,14)" stroke="none" d="M 6172,6894 L 6297,7019 6422,6894 6297,6769 6172,6894 Z "/>
 <path fill="none" stroke="rgb(255,66,14)" stroke-linejoin="round" d="M 6172,6894 L 6297,7019 6422,6894 6297,6769 6172,6894 Z "/>
 <path fill="rgb(255,66,14)" stroke="none" d="M 4962,6991 L 5087,7116 5212,6991 5087,6866 4962,6991 Z "/>
 <path fill="none" stroke="rgb(255,66,14)" stroke-linejoin="round" d="M 4962,6991 L 5087,7116 5212,6991 5087,6866 4962,6991 Z "/>
 <path fill="rgb(255,66,14)" stroke="none" d="M 3688,7083 L 3813,7208 3938,7083 3813,6958 3688,7083 Z "/>
 <path fill="none" stroke="rgb(255,66,14)" stroke-linejoin="round" d="M 3688,7083 L 3813,7208 3938,7083 3813,6958 3688,7083 Z "/>
 <path fill="rgb(0,0,0)" stroke="none" d="M 11890,7061 L 11890,7169 11784,7108 11774,7125 11880,7186 11774,7246 11784,7263 11890,7202 11890,7311 11909,7311 11909,7202 12015,7263 12024,7246 11919,7186 12024,7125 12015,7108 11909,7169 11909,7061 11890,7061 Z "/>
 <path fill="none" stroke="rgb(0,0,0)" stroke-linejoin="round" d="M 11890,7061 L 11890,7169 11784,7108 11774,7125 11880,7186 11774,7246 11784,7263 11890,7202 11890,7311 11909,7311 11909,7202 12015,7263 12024,7246 11919,7186 12024,7125 12015,7108 11909,7169 11909,7061 11890,7061 Z "/>
 <path fill="rgb(0,0,0)" stroke="none" d="M 8769,7061 L 8769,7169 8664,7108 8654,7125 8760,7186 8654,7246 8664,7263 8769,7202 8769,7311 8789,7311 8789,7202 8894,7263 8904,7246 8799,7186 8904,7125 8894,7108 8789,7169 8789,7061 8769,7061 Z "/>
 <path fill="none" stroke="rgb(0,0,0)" stroke-linejoin="round" d="M 8769,7061 L 8769,7169 8664,7108 8654,7125 8760,7186 8654,7246 8664,7263 8769,7202 8769,7311 8789,7311 8789,7202 8894,7263 8904,7246 8799,7186 8904,7125 8894,7108 8789,7169 8789,7061 8769,7061 Z "/>
 <path fill="rgb(0,0,0)" stroke="none" d="M 7624,7061 L 7624,7169 7519,7108 7509,7125 7614,7186 7509,7246 7519,7263 7624,7202 7624,7311 7644,7311 7644,7202 7749,7263 7759,7246 7653,7186 7759,7125 7749,7108 7644,7169 7644,7061 7624,7061 Z "/>
 <path fill="none" stroke="rgb(0,0,0)" stroke-linejoin="round" d="M 7624,7061 L 7624,7169 7519,7108 7509,7125 7614,7186 7509,7246 7519,7263 7624,7202 7624,7311 7644,7311 7644,7202 7749,7263 7759,7246 7653,7186 7759,7125 7749,7108 7644,7169 7644,7061 7624,7061 Z "/>
 <path fill="rgb(0,0,0)" stroke="none" d="M 6287,7061 L 6287,7169 6181,7108 6172,7125 6277,7186 6172,7246 6181,7263 6287,7202 6287,7311 6306,7311 6306,7202 6412,7263 6422,7246 6316,7186 6422,7125 6412,7108 6306,7169 6306,7061 6287,7061 Z "/>
 <path fill="none" stroke="rgb(0,0,0)" stroke-linejoin="round" d="M 6287,7061 L 6287,7169 6181,7108 6172,7125 6277,7186 6172,7246 6181,7263 6287,7202 6287,7311 6306,7311 6306,7202 6412,7263 6422,7246 6316,7186 6422,7125 6412,7108 6306,7169 6306,7061 6287,7061 Z "/>
 <path fill="rgb(0,0,0)" stroke="none" d="M 5077,7061 L 5077,7169 4971,7108 4962,7125 5067,7186 4962,7246 4971,7263 5077,7202 5077,7311 5096,7311 5096,7202 5202,7263 5212,7246 5106,7186 5212,7125 5202,7108 5096,7169 5096,7061 5077,7061 Z "/>
 <path fill="none" stroke="rgb(0,0,0)" stroke-linejoin="round" d="M 5077,7061 L 5077,7169 4971,7108 4962,7125 5067,7186 4962,7246 4971,7263 5077,7202 5077,7311 5096,7311 5096,7202 5202,7263 5212,7246 5106,7186 5212,7125 5202,7108 5096,7169 5096,7061 5077,7061 Z "/>
 <path fill="rgb(0,0,0)" stroke="none" d="M 3803,7061 L 3803,7169 3698,7108 3688,7125 3794,7186 3688,7246 3698,7263 3803,7202 3803,7311 3823,7311 3823,7202 3928,7263 3938,7246 3833,7186 3938,7125 3928,7108 3823,7169 3823,7061 3803,7061 Z "/>
 <path fill="none" stroke="rgb(0,0,0)" stroke-linejoin="round" d="M 3803,7061 L 3803,7169 3698,7108 3688,7125 3794,7186 3688,7246 3698,7263 3803,7202 3803,7311 3823,7311 3823,7202 3928,7263 3938,7246 3833,7186 3938,7125 3928,7108 3823,7169 3823,7061 3803,7061 Z "/>
 <path fill="none" stroke="rgb(0,69,134)" stroke-width="80" stroke-linejoin="round" d="M 11899,1996 L 11743,2163 11587,2331 11431,2498 11275,2665 11119,2833 10963,3000 10807,3167 10651,3335 10495,3502 10339,3669 10183,3836 10027,4004 9871,4171 9715,4338 9559,4505 9403,4672 9247,4839 9091,5007 8935,5174 8779,5341 "/>
 <path fill="rgb(0,69,134)" stroke="none" d="M 11774,1871 L 11774,2121 12024,2121 12024,1871 11774,1871 Z "/>
 <path fill="none" stroke="rgb(0,69,134)" stroke-linejoin="round" d="M 11774,1871 L 11774,2121 12024,2121 12024,1871 11774,1871 Z "/>
 <path fill="rgb(0,69,134)" stroke="none" d="M 8654,5216 L 8654,5466 8904,5466 8904,5216 8654,5216 Z "/>
 <path fill="none" stroke="rgb(0,69,134)" stroke-linejoin="round" d="M 8654,5216 L 8654,5466 8904,5466 8904,5216 8654,5216 Z "/>
 <text class="SVGTextShape"><tspan class="TextParagraph"><tspan class="TextPosition" x="1760" y="7754"><tspan font-family="Liberation Sans, sans-serif" font-size="353px" font-weight="400" lengthAdjust="spacingAndGlyphs" textLength="794" fill="rgb(0,0,0)" stroke="none" style="white-space: pre">2010</tspan></tspan></tspan></text>
 <text class="SVGTextShape"><tspan class="TextParagraph"><tspan class="TextPosition" x="3289" y="7754"><tspan font-family="Liberation Sans, sans-serif" font-size="353px" font-weight="400" lengthAdjust="spacingAndGlyphs" textLength="794" fill="rgb(0,0,0)" stroke="none" style="white-space: pre">2012</tspan></tspan></tspan></text>
 <text class="SVGTextShape"><tspan class="TextParagraph"><tspan class="TextPosition" x="4817" y="7754"><tspan font-family="Liberation Sans, sans-serif" font-size="353px" font-weight="400" lengthAdjust="spacingAndGlyphs" textLength="794" fill="rgb(0,0,0)" stroke="none" style="white-space: pre">2014</tspan></tspan></tspan></text>
 <text class="SVGTextShape"><tspan class="TextParagraph"><tspan class="TextPosition" x="6345" y="7754"><tspan font-family="Liberation Sans, sans-serif" font-size="353px" font-weight="400" lengthAdjust="spacingAndGlyphs" textLength="794" fill="rgb(0,0,0)" stroke="none" style="white-space: pre">2016</tspan></tspan></tspan></text>
 <text class="SVGTextShape"><tspan class="TextParagraph"><tspan class="TextPosition" x="7874" y="7754"><tspan font-family="Liberation Sans, sans-serif" font-size="353px" font-weight="400" lengthAdjust="spacingAndGlyphs" textLength="794" fill="rgb(0,0,0)" stroke="none" style="white-space: pre">2018</tspan></tspan></tspan></text>
 <text class="SVGTextShape"><tspan class="TextParagraph"><tspan class="TextPosition" x="9401" y="7754"><tspan font-family="Liberation Sans, sans-serif" font-size="353px" font-weight="400" lengthAdjust="spacingAndGlyphs" textLength="794" fill="rgb(0,0,0)" stroke="none" style="white-space: pre">2020</tspan></tspan></tspan></text>
 <text class="SVGTextShape"><tspan class="TextParagraph"><tspan class="TextPosition" x="10929" y="7754"><tspan font-family="Liberation Sans, sans-serif" font-size="353px" font-weight="400" lengthAdjust="spacingAndGlyphs" textLength="794" fill="rgb(0,0,0)" stroke="none" style="white-space: pre">2022</tspan></tspan></tspan></text>
 <text class="SVGTextShape"><tspan class="TextParagraph"><tspan class="TextPosition" x="12457" y="7754"><tspan font-family="Liberation Sans, sans-serif" font-size="353px" font-weight="400" lengthAdjust="spacingAndGlyphs" textLength="794" fill="rgb(0,0,0)" stroke="none" style="white-space: pre">2024</tspan></tspan></tspan></text>
 <text class="SVGTextShape"><tspan class="TextParagraph"><tspan class="TextPosition" x="1708" y="7307"><tspan font-family="Liberation Sans, sans-serif" font-size="353px" font-weight="400" lengthAdjust="spacingAndGlyphs" textLength="198" fill="rgb(0,0,0)" stroke="none" style="white-space: pre">0</tspan></tspan></tspan></text>
 <text class="SVGTextShape"><tspan class="TextParagraph"><tspan class="TextPosition" x="1510" y="6736"><tspan font-family="Liberation Sans, sans-serif" font-size="353px" font-weight="400" lengthAdjust="spacingAndGlyphs" textLength="397" fill="rgb(0,0,0)" stroke="none" style="white-space: pre">10</tspan></tspan></tspan></text>
 <text class="SVGTextShape"><tspan class="TextParagraph"><tspan class="TextPosition" x="1510" y="6165"><tspan font-family="Liberation Sans, sans-serif" font-size="353px" font-weight="400" lengthAdjust="spacingAndGlyphs" textLength="397" fill="rgb(0,0,0)" stroke="none" style="white-space: pre">20</tspan></tspan></tspan></text>
 <text class="SVGTextShape"><tspan class="TextParagraph"><tspan class="TextPosition" x="1510" y="5594"><tspan font-family="Liberation Sans, sans-serif" font-size="353px" font-weight="400" lengthAdjust="spacingAndGlyphs" textLength="397" fill="rgb(0,0,0)" stroke="none" style="white-space: pre">30</tspan></tspan></tspan></text>
 <text class="SVGTextShape"><tspan class="TextParagraph"><tspan class="TextPosition" x="1510" y="5023"><tspan font-family="Liberation Sans, sans-serif" font-size="353px" font-weight="400" lengthAdjust="spacingAndGlyphs" textLength="397" fill="rgb(0,0,0)" stroke="none" style="white-space: pre">40</tspan></tspan></tspan></text>
 <text class="SVGTextShape"><tspan class="TextParagraph"><tspan class="TextPosition" x="1510" y="4453"><tspan font-family="Liberation Sans, sans-serif" font-size="353px" font-weight="400" lengthAdjust="spacingAndGlyphs" textLength="397" fill="rgb(0,0,0)" stroke="none" style="white-space: pre">50</tspan></tspan></tspan></text>
 <text class="SVGTextShape"><tspan class="TextParagraph"><tspan class="TextPosition" x="1510" y="3882"><tspan font-family="Liberation Sans, sans-serif" font-size="353px" font-weight="400" lengthAdjust="spacingAndGlyphs" textLength="397" fill="rgb(0,0,0)" stroke="none" style="white-space: pre">60</tspan></tspan></tspan></text>
 <text class="SVGTextShape"><tspan class="TextParagraph"><tspan class="TextPosition" x="1510" y="3311"><tspan font-family="Liberation Sans, sans-serif" font-size="353px" font-weight="400" lengthAdjust="spacingAndGlyphs" textLength="397" fill="rgb(0,0,0)" stroke="none" style="white-space: pre">70</tspan></tspan></tspan></text>
 <text class="SVGTextShape"><tspan class="TextParagraph"><tspan class="TextPosition" x="1510" y="2740"><tspan font-family="Liberation Sans, sans-serif" font-size="353px" font-weight="400" lengthAdjust="spacingAndGlyphs" textLength="397" fill="rgb(0,0,0)" stroke="none" style="white-space: pre">80</tspan></tspan></tspan></text>
 <text class="SVGTextShape"><tspan class="TextParagraph"><tspan class="TextPosition" x="1510" y="2169"><tspan font-family="Liberation Sans, sans-serif" font-size="353px" font-weight="400" lengthAdjust="spacingAndGlyphs" textLength="397" fill="rgb(0,0,0)" stroke="none" style="white-space: pre">90</tspan></tspan></tspan></text>
 <text class="SVGTextShape"><tspan class="TextParagraph"><tspan class="TextPosition" x="1311" y="1598"><tspan font-family="Liberation Sans, sans-serif" font-size="353px" font-weight="400" lengthAdjust="spacingAndGlyphs" textLength="595" fill="rgb(0,0,0)" stroke="none" style="white-space: pre">100</tspan></tspan></tspan></text>
 <text class="SVGTextShape" transform="rotate(-90 12288 7084)"><tspan class="TextParagraph"><tspan class="TextPosition" x="12288" y="7084"><tspan font-family="Liberation Sans, sans-serif" font-size="353px" font-weight="400" lengthAdjust="spacingAndGlyphs" textLength="3096" fill="rgb(0,0,0)" stroke="none" style="white-space: pre">GeForce RTX 4090</tspan></tspan></tspan></text>
 <text class="SVGTextShape" transform="rotate(-90 8900 5011)"><tspan class="TextParagraph"><tspan class="TextPosition" x="8900" y="5011"><tspan font-family="Liberation Sans, sans-serif" font-size="353px" font-weight="400" lengthAdjust="spacingAndGlyphs" textLength="3493" fill="rgb(0,0,0)" stroke="none" style="white-space: pre">GeForce RTX 2080 Ti</tspan></tspan></tspan></text>
 <text class="SVGTextShape" transform="rotate(-90 7755 6318)"><tspan class="TextParagraph"><tspan class="TextPosition" x="7755" y="6318"><tspan font-family="Liberation Sans, sans-serif" font-size="353px" font-weight="400" lengthAdjust="spacingAndGlyphs" textLength="3513" fill="rgb(0,0,0)" stroke="none" style="white-space: pre">GeForce GTX 1080 Ti</tspan></tspan></tspan></text>
 <text class="SVGTextShape" transform="rotate(-90 6418 6621)"><tspan class="TextParagraph"><tspan class="TextPosition" x="6418" y="6621"><tspan font-family="Liberation Sans, sans-serif" font-size="353px" font-weight="400" lengthAdjust="spacingAndGlyphs" textLength="3314" fill="rgb(0,0,0)" stroke="none" style="white-space: pre">GeForce GTX 980 Ti</tspan></tspan></tspan></text>
 <text class="SVGTextShape" transform="rotate(-90 5208 6718)"><tspan class="TextParagraph"><tspan class="TextPosition" x="5208" y="6718"><tspan font-family="Liberation Sans, sans-serif" font-size="353px" font-weight="400" lengthAdjust="spacingAndGlyphs" textLength="3314" fill="rgb(0,0,0)" stroke="none" style="white-space: pre">GeForce GTX 780 Ti</tspan></tspan></tspan></text>
 <text class="SVGTextShape" transform="rotate(-90 3934 6809)"><tspan class="TextParagraph"><tspan class="TextPosition" x="3934" y="6809"><tspan font-family="Liberation Sans, sans-serif" font-size="353px" font-weight="400" lengthAdjust="spacingAndGlyphs" textLength="2918" fill="rgb(0,0,0)" stroke="none" style="white-space: pre">GeForce GTX 680</tspan></tspan></tspan></text>
 <text class="SVGTextShape"><tspan class="TextParagraph"><tspan class="TextPosition" x="4353" y="869"><tspan font-family="Liberation Sans, sans-serif" font-size="459px" font-weight="400" lengthAdjust="spacingAndGlyphs" textLength="7411" fill="rgb(0,0,0)" stroke="none" style="white-space: pre">Nvidia Graphics Cards Performance</tspan></tspan></tspan></text>
 <path fill="none" stroke="rgb(0,69,134)" stroke-width="80" stroke-linejoin="round" d="M 13688,3988 L 14488,3988 "/>
 <path fill="rgb(0,69,134)" stroke="none" d="M 13982,3883 L 13982,4094 14193,4094 14193,3883 13982,3883 Z "/>
 <path fill="none" stroke="rgb(0,69,134)" stroke-linejoin="round" d="M 13982,3883 L 13982,4094 14193,4094 14193,3883 13982,3883 Z "/>
 <path fill="none" stroke="rgb(255,66,14)" stroke-width="80" stroke-linejoin="round" d="M 13688,4486 L 14488,4486 "/>
 <path fill="rgb(255,66,14)" stroke="none" d="M 13982,4486 L 14088,4591 14193,4486 14088,4381 13982,4486 Z "/>
 <path fill="none" stroke="rgb(255,66,14)" stroke-linejoin="round" d="M 13982,4486 L 14088,4591 14193,4486 14088,4381 13982,4486 Z "/>
 <path fill="none" stroke="rgb(255,211,32)" stroke-width="80" stroke-linejoin="round" d="M 13688,4983 L 14488,4983 "/>
 <path fill="rgb(255,211,32)" stroke="none" d="M 13982,4878 L 14088,5089 14193,4878 13982,4878 Z "/>
 <path fill="none" stroke="rgb(255,211,32)" stroke-linejoin="round" d="M 13982,4878 L 14088,5089 14193,4878 13982,4878 Z "/>
 <text class="SVGTextShape"><tspan class="TextParagraph"><tspan class="TextPosition" x="14588" y="4108"><tspan font-family="Liberation Sans, sans-serif" font-size="353px" font-weight="400" lengthAdjust="spacingAndGlyphs" textLength="575" fill="rgb(0,0,0)" stroke="none" style="white-space: pre">half</tspan></tspan></tspan></text>
 <text class="SVGTextShape"><tspan class="TextParagraph"><tspan class="TextPosition" x="14588" y="4605"><tspan font-family="Liberation Sans, sans-serif" font-size="353px" font-weight="400" lengthAdjust="spacingAndGlyphs" textLength="675" fill="rgb(0,0,0)" stroke="none" style="white-space: pre">float</tspan></tspan></tspan></text>
 <text class="SVGTextShape"><tspan class="TextParagraph"><tspan class="TextPosition" x="14588" y="5103"><tspan font-family="Liberation Sans, sans-serif" font-size="353px" font-weight="400" lengthAdjust="spacingAndGlyphs" textLength="1072" fill="rgb(0,0,0)" stroke="none" style="white-space: pre">double</tspan></tspan></tspan></text>
 <text class="SVGTextShape"><tspan class="TextParagraph"><tspan class="TextPosition" x="5933" y="8401"><tspan font-family="Liberation Sans, sans-serif" font-size="318px" font-weight="400" lengthAdjust="spacingAndGlyphs" textLength="2700" fill="rgb(0,0,0)" stroke="none" style="white-space: pre">year of introduction</tspan></tspan></tspan></text>
 <text class="SVGTextShape" transform="rotate(-90 831 5174)"><tspan class="TextParagraph"><tspan class="TextPosition" x="831" y="5174"><tspan font-family="Liberation Sans, sans-serif" font-size="318px" font-weight="400" lengthAdjust="spacingAndGlyphs" textLength="1234" fill="rgb(0,0,0)" stroke="none" style="white-space: pre">TFLOPS</tspan></tspan></tspan></text>
</svg>